<?xml version="1.0" encoding="utf-8"?>
<!-- Generator: Adobe Illustrator 19.0.0, SVG Export Plug-In . SVG Version: 6.00 Build 0)  -->
<svg version="1.1" id="Layer_1" xmlns="http://www.w3.org/2000/svg" xmlns:xlink="http://www.w3.org/1999/xlink" x="0px" y="0px"
	 viewBox="0 0 500 500" style="enable-background:new 0 0 500 500;" xml:space="preserve">
<style type="text/css">
	.st0{fill:#9B9C9E;}
</style>
<g>
	<path class="st0" d="M367,490.8c-11,1.3-22.5-2-31.4-10L109.7,280.2c-16.7-14.7-18.1-40.3-3.3-57c14.7-16.7,40.3-18.1,57-3.3
		l225.8,200.6c16.7,14.7,18.1,40.3,3.3,57C385.7,485.2,376.5,489.7,367,490.8z"/>
	<g>
		<path class="st0" d="M107.6,276.7c-14.9-16.7-13.4-42.2,3.3-57L336.7,19.2c16.7-14.9,42.2-13.4,57,3.3c14.9,16.7,13.4,42.2-3.3,57
			L164.4,280c-8.9,7.9-20.4,11.2-31.4,10C123.5,288.9,114.3,284.4,107.6,276.7z"/>
	</g>
</g>
</svg>
