<?xml version="1.0" encoding="utf-8"?>
<!-- Generator: Adobe Illustrator 19.2.1, SVG Export Plug-In . SVG Version: 6.00 Build 0)  -->
<svg version="1.1" id="Layer_2" xmlns="http://www.w3.org/2000/svg" xmlns:xlink="http://www.w3.org/1999/xlink" x="0px" y="0px"
	 width="500px" height="500px" viewBox="0 0 500 500" style="enable-background:new 0 0 500 500;" xml:space="preserve">
<style type="text/css">
	.st0{fill:#FFFFFF;}
</style>
<path class="st0" d="M257,339c-8.2-42.1-63-169-63-169s20.4-57.3,0-113c-10-27.3-32-18-32-18L75,76c0,0-20,9.7-9,33
	c31.7,67.1,81,77,81,77l47,107c0,0-43.7,15.4-57,23c-15.2,8.7-8,25-8,25l19,47c0,0,6.5-12.8,27-19c1-0.3-11-27-11-27l43-20
	c0,0,13.4,25.6,20,32C240.2,366.7,259.6,352.3,257,339z M164,160c-19.8,8.5-67.5-53-63-59c8.7-11.7,61.2-31.4,64-27
	C175.7,90.7,183.8,151.6,164,160z"/>
<path class="st0" d="M256,266l11,30l25-9l26,61c0,0,12.7-4.2,41,12c1.2,0.7-32-69.9-41-93c-10.8-27.8-27-16-27-16L256,266z"/>
<path class="st0" d="M87,459h350c0,0-1.8-36.3-34-46c-11-3.3-31.3-15.4-40-23c-12.5-11-25.3-33.3-64-18c-11,4.4-32,20.4-42,22
	c-17.5,2.9-44.4-13.4-62-11c-30.8,4.2-32.8,25.4-46,28c-26.3,5.2-34.2,7.7-43,15C98.7,432.1,87,459,87,459z"/>
</svg>
