<?xml version="1.0" encoding="utf-8"?>
<!-- Generator: Adobe Illustrator 19.0.0, SVG Export Plug-In . SVG Version: 6.00 Build 0)  -->
<svg version="1.1" id="Layer_1" xmlns="http://www.w3.org/2000/svg" xmlns:xlink="http://www.w3.org/1999/xlink" x="0px" y="0px"
	 viewBox="0 0 500 500" style="enable-background:new 0 0 500 500;" xml:space="preserve">
<style type="text/css">
	.st0{fill:#666666;}
</style>
<g id="XMLID_606_">
	<path id="XMLID_5_" class="st0" d="M355.9,484.5c-60.3,0-107.4-49.3-107.4-112.3c0-55.7,30.5-93.7,57.5-127.1
		c15-18.6,29.1-36.1,36.5-54.8l13.5-33.6l13.5,33.6c7.5,18.6,21.6,36.2,36.5,54.8c26.9,33.5,57.5,71.4,57.5,127.1
		C463.4,435.2,416.2,484.5,355.9,484.5z M355.9,226.7c-8,12.4-17.5,24.3-27.4,36.5c-25.1,31.2-51.1,63.5-51.1,109
		c0,47.5,33.7,83.4,78.5,83.4s78.5-35.8,78.5-83.4c0-45.5-26-77.8-51.1-109C373.4,251,363.9,239.1,355.9,226.7z"/>
	<path id="XMLID_2_" class="st0" d="M144.1,343.3C83.8,343.3,36.6,294,36.6,231c0-55.7,30.5-93.7,57.5-127.1
		c15-18.6,29.1-36.1,36.5-54.7l13.5-33.6l13.5,33.6c7.4,18.6,21.6,36.2,36.5,54.7c26.9,33.5,57.5,71.4,57.5,127.1
		C251.5,294,204.3,343.3,144.1,343.3z M144.1,85.5c-8,12.4-17.5,24.3-27.4,36.5c-25.1,31.2-51.1,63.5-51.1,109
		c0,47.5,33.7,83.4,78.5,83.4s78.5-35.8,78.5-83.4c0-45.5-26-77.8-51.1-109C161.6,109.8,152.1,97.9,144.1,85.5z"/>
</g>
</svg>
