<?xml version="1.0" encoding="UTF-8"?>
<svg width="30px" height="30px" viewBox="0 0 30 30" version="1.1" xmlns="http://www.w3.org/2000/svg" xmlns:xlink="http://www.w3.org/1999/xlink">
    <!-- Generator: Sketch 41.2 (35397) - http://www.bohemiancoding.com/sketch -->
    <title>ok_grey</title>
    <desc>Created with Sketch.</desc>
    <defs></defs>
    <g id="Page-1" stroke="none" stroke-width="1" fill="none" fill-rule="evenodd">
        <g id="ok_grey">
            <path d="M14.713875,30.000225 C6.587625,30.000225 0.000375,23.412225 0.000375,15.285975 C0.000375,7.159725 6.587625,0.571725 14.713875,0.571725 C22.840125,0.571725 29.428125,7.159725 29.428125,15.285975 C29.428125,23.412225 22.840125,30.000225 14.713875,30.000225 Z" id="Fill-1" fill="#4A4A4A"></path>
            <path d="M14.3480166,16.6577609 L14.4425836,16.6577609 L10.6403436,12.9458232 C10.0546032,12.3599907 9.10485574,12.3599161 8.51902324,12.9456564 C7.93319074,13.5313968 7.93311605,14.4811443 8.51885643,15.0669768 L13.2873564,19.8362268 L14.3480166,20.8970538 L15.4087602,19.8363102 L22.2990102,12.9460602 C22.8847966,12.3602737 22.8847966,11.4105263 22.2990102,10.8247398 C21.7132237,10.2389534 20.7634763,10.2389534 20.1776898,10.8247398 L14.3480166,16.6577609 Z" id="Shape" fill="#FFFFFF"></path>
        </g>
    </g>
</svg>