<?xml version="1.0" encoding="UTF-8"?>
<svg width="486px" height="366px" viewBox="0 0 486 366" version="1.1" xmlns="http://www.w3.org/2000/svg" xmlns:xlink="http://www.w3.org/1999/xlink">
    <!-- Generator: Sketch 41.2 (35397) - http://www.bohemiancoding.com/sketch -->
    <title>overview_white</title>
    <desc>Created with Sketch.</desc>
    <defs></defs>
    <g id="Page-1" stroke="none" stroke-width="1" fill="none" fill-rule="evenodd">
        <g id="overview_white" fill="#FFFFFF">
            <g id="Layer_1">
                <path d="M405.3,195 C402.4,186.4 398.9,177.9 394.9,169.9 L345.3,192.3 C349.7,200.3 353.2,208.7 355.8,217.4 L405.3,195 Z M150.9,176.7 C156.4,169.5 162.6,163.1 169.5,157.3 L131.3,117.5 C124.7,123.4 118.4,129.9 112.7,136.9 L150.9,176.7 Z M185.6,146.1 C193.3,141.6 201.4,138.1 209.8,135.5 L188.9,83.5 C180.6,86.4 172.5,89.9 164.7,94.1 L185.6,146.1 Z M129.8,219.2 C132.2,210.4 135.6,201.9 139.9,193.9 L89.9,172.3 C85.9,180.4 82.5,188.9 79.8,197.6 L129.8,219.2 Z M320.7,93.8 C312.9,89.7 304.7,86.1 296.4,83.3 L275.7,135.4 C284.1,137.9 292.3,141.5 300,145.9 L320.7,93.8 Z M373.3,136.9 C367.6,130 361.4,123.5 354.7,117.5 L316.5,157.3 C323.4,163 329.6,169.5 335.1,176.7 L373.3,136.9 Z M256.1,75 C251.7,74.6 247.3,74.5 243,74.5 C238.7,74.5 234.3,74.7 229.9,75 L229.9,131.3 C234.3,130.8 238.7,130.5 243,130.5 C247.4,130.5 251.8,130.8 256.1,131.3 L256.1,75 Z M243,353.8 C216.8,353.8 195.6,332.6 195.6,306.4 C195.6,288.5 205.5,273 220.1,264.9 L243,157.5 L265.9,264.9 C280.5,273 290.4,288.5 290.4,306.4 C290.4,332.6 269.2,353.8 243,353.8 Z M32.8,365.1 C12.1,329.3 0.2,287.9 0.2,243.7 C0.2,109.8 109.1,0.9 243,0.9 C376.9,0.9 485.8,109.8 485.8,243.7 C485.8,287.9 473.9,329.3 453.2,365.1 L412.3,341.5 C429,312.7 438.5,279.3 438.5,243.8 C438.5,136 350.8,48.3 243,48.3 C135.2,48.3 47.5,135.9 47.5,243.7 C47.5,279.3 57.1,312.7 73.7,341.4 L32.8,365.1 Z" id="dashboard-5-icon"></path>
            </g>
        </g>
    </g>
</svg>