<?xml version="1.0" encoding="iso-8859-1"?>
<!-- Generator: Adobe Illustrator 18.0.0, SVG Export Plug-In . SVG Version: 6.00 Build 0)  -->
<!DOCTYPE svg PUBLIC "-//W3C//DTD SVG 1.1//EN" "http://www.w3.org/Graphics/SVG/1.1/DTD/svg11.dtd">
<svg version="1.1" id="Capa_1" xmlns="http://www.w3.org/2000/svg" xmlns:xlink="http://www.w3.org/1999/xlink" x="0px" y="0px"
	 viewBox="0 0 390 390" style="enable-background:new 0 0 390 390;" xml:space="preserve">
<g>
	<path d="M365.986,80.016h-75.823l-44.837-42.557c-2.787-2.646-6.483-4.12-10.326-4.12h-80c-3.843,0-7.539,1.475-10.326,4.12
		L99.837,80.016H24.017C10.75,80.016,0,90.764,0,104.03v228.617c0,13.267,10.75,24.014,24.017,24.014h341.97
		c13.257,0,24.014-10.747,24.014-24.014V104.03C390,90.764,379.243,80.016,365.986,80.016z M195,305.253
		c-48.001,0-86.914-38.913-86.914-86.914c0-48.002,38.913-86.914,86.914-86.914c48.001,0,86.914,38.912,86.914,86.914
		C281.914,266.34,243.001,305.253,195,305.253z"/>
	<circle cx="195" cy="218.339" r="55"/>
</g>
<g>
</g>
<g>
</g>
<g>
</g>
<g>
</g>
<g>
</g>
<g>
</g>
<g>
</g>
<g>
</g>
<g>
</g>
<g>
</g>
<g>
</g>
<g>
</g>
<g>
</g>
<g>
</g>
<g>
</g>
</svg>
