<?xml version="1.0" encoding="utf-8"?>
<!-- Generator: Adobe Illustrator 19.0.0, SVG Export Plug-In . SVG Version: 6.00 Build 0)  -->
<svg version="1.1" id="Layer_1" xmlns="http://www.w3.org/2000/svg" xmlns:xlink="http://www.w3.org/1999/xlink" x="0px" y="0px"
	 width="500px" height="500px" viewBox="0 0 500 500" style="enable-background:new 0 0 500 500;" xml:space="preserve">
<style type="text/css">
	.st0{fill:#FFFFFF;}
</style>
<path id="photo-camera-4-icon" class="st0" d="M341.7,273.5c0,32.2-26.2,58.4-58.4,58.4c-32.2,0-58.4-26.2-58.4-58.4
	c0-32.2,26.2-58.4,58.4-58.4C315.5,215.1,341.7,241.3,341.7,273.5z M475.7,131.8v292.6H24.3V131.8h124.1c12.3,0,23.6-6.9,29.2-17.9
	l19.6-38.3h168.4l21.7,39.2c5.8,10.5,16.8,16.9,28.8,16.9H475.7z M139.1,195.6c0-12.4-10.1-22.5-22.5-22.5s-22.5,10.1-22.5,22.5
	s10.1,22.5,22.5,22.5S139.1,208,139.1,195.6z M391.9,273.5c0-59.9-48.7-106.1-108.6-106.1s-108.6,46.2-108.6,106.1
	c0,59.9,48.7,108.6,108.6,108.6S391.9,333.4,391.9,273.5z M125.5,84.1H53.7v29.6h71.8V84.1z"/>
</svg>
