<?xml version="1.0" encoding="utf-8"?>
<!-- Generator: Adobe Illustrator 19.2.1, SVG Export Plug-In . SVG Version: 6.00 Build 0)  -->
<svg fill="#ffffff" version="1.1" id="Layer_1" xmlns="http://www.w3.org/2000/svg" xmlns:xlink="http://www.w3.org/1999/xlink" x="0px" y="0px"
	 viewBox="0 0 24 24" style="enable-background:new 0 0 24 24;" xml:space="preserve">
<path d="M22.5,8.8c0.7,2.2,0.6,4.3,0.1,6.2h-2.1c0.6-1.8,0.8-3.8,0-5.9c-1-3-3.6-5.3-6.7-5.9c-2.4-0.5-4.6,0-6.5,1.1L9.2,7h-7l2.2-7
	l1.8,2.7c2.2-1.4,4.9-2,7.7-1.5C18,1.9,21.3,4.9,22.5,8.8z M16.6,19.7c-1.8,1.1-4.1,1.6-6.5,1.1c-3.1-0.6-5.7-2.9-6.7-5.9
	c-0.7-2.1-0.6-4.2,0-5.9H1.4c-0.5,1.9-0.6,4,0.1,6.2c1.2,3.9,4.5,6.9,8.6,7.6c2.9,0.5,5.5-0.1,7.7-1.5l1.9,2.7l2.2-7h-7L16.6,19.7z"
	/>
</svg>
