<?xml version="1.0" encoding="utf-8"?>
<!-- Generator: Adobe Illustrator 19.0.0, SVG Export Plug-In . SVG Version: 6.00 Build 0)  -->
<svg version="1.1" id="Layer_1" xmlns="http://www.w3.org/2000/svg" xmlns:xlink="http://www.w3.org/1999/xlink" x="0px" y="0px"
	 viewBox="0 0 500 500" style="enable-background:new 0 0 500 500;" xml:space="preserve">
<style type="text/css">
	.st0{fill:#666666;}
</style>
<g id="XMLID_600_">
	<path id="XMLID_5_" class="st0" d="M250,487.7c-55.2,0-100.1-44.9-100.1-100.1c0-32.4,15.2-62,41-80.8v-234
		c0-33.4,27.2-60.6,60.6-60.6s60.6,27.2,60.6,60.6v236.3c23.9,18.9,38,47.7,38,78.5C350.1,442.8,305.2,487.7,250,487.7z M251.5,41.7
		c-17.2,0-31.2,14-31.2,31.2v250l-7,4.3c-21.3,13-34,35.6-34,60.4c0,39,31.7,70.7,70.7,70.7s70.7-31.7,70.7-70.7
		c0-23.7-11.8-45.6-31.5-58.8l-6.5-4.4V72.9C282.7,55.7,268.7,41.7,251.5,41.7z"/>
	<path id="XMLID_4_" class="st0" d="M250.2,170.5h-31.4c-8.1,0-14.7-6.6-14.7-14.7s6.6-14.7,14.7-14.7h31.4
		c8.1,0,14.7,6.6,14.7,14.7S258.4,170.5,250.2,170.5z"/>
	<path id="XMLID_3_" class="st0" d="M250.2,118.7h-31.4c-8.1,0-14.7-6.6-14.7-14.7s6.6-14.7,14.7-14.7h31.4
		c8.1,0,14.7,6.6,14.7,14.7S258.4,118.7,250.2,118.7z"/>
	<path id="XMLID_2_" class="st0" d="M250.2,222.4h-31.4c-8.1,0-14.7-6.6-14.7-14.7s6.6-14.7,14.7-14.7h31.4
		c8.1,0,14.7,6.6,14.7,14.7S258.4,222.4,250.2,222.4z"/>
	<path id="XMLID_601_" class="st0" d="M267.1,341.9v-66.2h-34.1v66.2c-18.5,6.9-31.8,24.8-31.8,45.7c0,27,21.9,48.8,48.8,48.8
		c27,0,48.8-21.9,48.8-48.8C298.8,366.7,285.6,348.8,267.1,341.9z"/>
</g>
</svg>
