<?xml version="1.0" encoding="utf-8"?>
<!-- Generator: Adobe Illustrator 19.0.0, SVG Export Plug-In . SVG Version: 6.00 Build 0)  -->
<svg version="1.1" id="Layer_1" xmlns="http://www.w3.org/2000/svg" xmlns:xlink="http://www.w3.org/1999/xlink" x="0px" y="0px"
	 width="500px" height="500px" viewBox="0 0 500 500" style="enable-background:new 0 0 500 500;" xml:space="preserve">
<style type="text/css">
	.st0{fill:#666666;}
</style>
<path id="wireless-icon" class="st0" d="M178.1,339.2c18.4-18.4,43.8-29.8,71.9-29.8s53.5,11.4,71.9,29.8L250,411.2L178.1,339.2z
	 M144.9,306.1c26.9-26.9,64.1-43.5,105.1-43.5c41,0,78.2,16.6,105.1,43.5l44.3-44.3c-38.2-38.2-91-61.9-149.4-61.9
	c-58.3,0-111.1,23.6-149.4,61.9L144.9,306.1z M67.4,228.6C114.2,181.9,178.7,153,250,153s135.8,28.9,182.6,75.6l45.4-45.4
	C419.6,124.9,339,88.8,250,88.8S80.4,124.9,22.1,183.2L67.4,228.6z"/>
</svg>
