<?xml version="1.0" encoding="utf-8"?>
<!-- Generator: Adobe Illustrator 19.0.0, SVG Export Plug-In . SVG Version: 6.00 Build 0)  -->
<svg version="1.1" id="Layer_1" xmlns="http://www.w3.org/2000/svg" xmlns:xlink="http://www.w3.org/1999/xlink" x="0px" y="0px"
	 width="500px" height="500px" viewBox="0 0 500 500" style="enable-background:new 0 0 500 500;" xml:space="preserve">
<g style="enable-background:new    ;">
	<g>
		<defs>
			<rect id="XMLID_1_" x="34.3" y="15.2" width="431.5" height="469.5"/>
		</defs>
		<clipPath id="XMLID_8_">
			<use xlink:href="#XMLID_1_"  style="overflow:visible;"/>
		</clipPath>
		<g style="clip-path:url(#XMLID_8_);">
			<defs>
				<path id="SVGID_1_" d="M121.7,476.5c7.5-6.6,17.9-18.2,28.4-34c42.2-64.1,42.2-137.5-27.4-207.1c-53.9-53.9-53.9-105-22-153.5
					c4.8-7.2,9.9-13.7,15-19.3c2.9-3.2,5.1-5.4,6.1-6.3c8.8-7.8,9.6-21.3,1.8-30.1c-7.8-8.8-21.3-9.6-30.1-1.8
					c-7.5,6.6-17.9,18.2-28.4,34c-42.2,64.1-42.2,137.5,27.4,207.1c53.9,53.9,53.9,105,22,153.5c-4.8,7.2-9.9,13.7-15,19.3
					c-2.9,3.2-5.1,5.4-6.1,6.3c-8.8,7.8-9.6,21.3-1.8,30.1C99.4,483.5,112.9,484.3,121.7,476.5z M259.1,476.5
					c7.5-6.6,17.9-18.2,28.4-34c42.2-64.1,42.2-137.5-27.4-207.1c-53.9-53.9-53.9-105-22-153.5c4.8-7.2,9.9-13.7,15-19.3
					c2.9-3.2,5.1-5.4,6.1-6.3c8.8-7.8,9.6-21.3,1.8-30.1c-7.8-8.8-21.3-9.6-30.1-1.8c-7.5,6.6-17.9,18.2-28.4,34
					c-42.2,64.1-42.2,137.5,27.4,207.1c53.9,53.9,53.9,105,22,153.5c-4.8,7.2-9.9,13.7-15,19.3c-2.9,3.2-5.1,5.4-6.1,6.3
					c-8.8,7.8-9.6,21.3-1.8,30.1C236.8,483.5,250.3,484.3,259.1,476.5z M396.5,476.5c7.5-6.6,17.9-18.2,28.4-34
					c42.2-64.1,42.2-137.5-27.4-207.1c-53.9-53.9-53.9-105-22-153.5c4.8-7.2,9.9-13.7,15-19.3c2.9-3.2,5.1-5.4,6.1-6.3
					c8.8-7.8,9.6-21.3,1.8-30.1c-7.8-8.8-21.3-9.6-30.1-1.8c-7.5,6.6-17.9,18.2-28.4,34c-42.2,64.1-42.2,137.5,27.4,207.1
					c53.9,53.9,53.9,105,22,153.5c-4.8,7.2-9.9,13.7-15,19.3c-2.9,3.2-5.1,5.4-6.1,6.3c-8.8,7.8-9.6,21.3-1.8,30.1
					C374.2,483.5,387.7,484.3,396.5,476.5z"/>
			</defs>
			<clipPath id="SVGID_2_">
				<use xlink:href="#SVGID_1_"  style="overflow:visible;"/>
			</clipPath>
			<g style="clip-path:url(#SVGID_2_);">
				<defs>
					<rect id="XMLID_5_" x="34.3" y="15.2" width="431.5" height="469.5"/>
				</defs>
				<clipPath id="XMLID_9_">
					<use xlink:href="#XMLID_5_"  style="overflow:visible;"/>
				</clipPath>
				<rect id="XMLID_6_" x="-27.3" y="-44.3" style="clip-path:url(#XMLID_9_);fill:#666666;" width="544.5" height="589.7"/>
			</g>
		</g>
	</g>
</g>
</svg>
