<?xml version="1.0" encoding="utf-8"?>
<!-- Generator: Adobe Illustrator 19.0.0, SVG Export Plug-In . SVG Version: 6.00 Build 0)  -->
<svg version="1.1" id="Layer_1" xmlns="http://www.w3.org/2000/svg" xmlns:xlink="http://www.w3.org/1999/xlink" x="0px" y="0px"
	 width="500px" height="500px" viewBox="0 0 500 500" style="enable-background:new 0 0 500 500;" xml:space="preserve">
<style type="text/css">
	.st0{fill:#FFFFFF;}
</style>
<path id="refresh-3-icon" class="st0" d="M380.6,123.6l-41.5,41.5c-22.5-22.5-53.7-36.5-88.1-36.5c-68.8,0-124.5,55.8-124.5,124.6
	c0,0,0,0,0,0h48.4l-77.3,77.3l-77.2-77.3h47.4c0,0,0,0,0,0c0-101.2,82-183.3,183.3-183.3C301.7,69.9,347.5,90.4,380.6,123.6z
	 M479.6,246.8l-77.2-77.3l-77.3,77.3h48.4c0,0,0,0,0,0c0,68.8-55.8,124.6-124.5,124.6c-34.4,0-65.5-13.9-88.1-36.5l-41.5,41.5
	c33.2,33.2,79,53.7,129.6,53.7c101.2,0,183.3-82.1,183.3-183.3c0,0,0,0,0,0L479.6,246.8L479.6,246.8z"/>
</svg>
