<?xml version="1.0" encoding="utf-8"?>
<!-- Generator: Adobe Illustrator 19.0.0, SVG Export Plug-In . SVG Version: 6.00 Build 0)  -->
<svg version="1.1" id="Layer_1" xmlns="http://www.w3.org/2000/svg" xmlns:xlink="http://www.w3.org/1999/xlink" x="0px" y="0px"
	 viewBox="0 0 500 500" style="enable-background:new 0 0 500 500;" xml:space="preserve">
<style type="text/css">
	.st0{fill:#666666;}
</style>
<path id="XMLID_2_" class="st0" d="M250,477.7c-84.1,0-150.1-69-150.1-157.1c0-78.5,43.3-132.3,81.5-179.8
	c21.6-26.9,42-52.2,52.9-79.5l15.6-39l15.6,39c10.9,27.2,31.3,52.6,52.9,79.5c38.2,47.5,81.5,101.3,81.5,179.8
	C400.1,408.7,334.1,477.7,250,477.7z M250,104.6c-12,19.6-26.9,38.1-42.3,57.3c-36.4,45.3-74.1,92-74.1,158.7
	c0,70.4,50,123.4,116.4,123.4c66.4,0,116.4-53.1,116.4-123.4c0-66.6-37.7-113.4-74.1-158.7C276.9,142.7,262,124.2,250,104.6z"/>
</svg>
