<?xml version="1.0" encoding="UTF-8"?>
<svg width="415px" height="415px" viewBox="0 0 415 415" version="1.1" xmlns="http://www.w3.org/2000/svg" xmlns:xlink="http://www.w3.org/1999/xlink">
    <!-- Generator: Sketch 41.2 (35397) - http://www.bohemiancoding.com/sketch -->
    <title>close</title>
    <desc>Created with Sketch.</desc>
    <defs></defs>
    <g id="Page-1" stroke="none" stroke-width="1" fill="none" fill-rule="evenodd">
        <g id="close" fill="#4A4A4A">
            <g id="XMLID_101_">
                <path d="M52,415 C38.9,415 25.9,410 15.9,400.1 C-4,380.2 -4,347.9 15.9,328 L327.9,16 C347.8,-3.9 380.1,-3.9 400,16 C419.9,35.9 419.9,68.2 400,88.1 L88,400.1 C78.1,410 65.1,415 52,415 Z" id="XMLID_3_"></path>
                <path d="M364,415 C350.9,415 337.9,410 327.9,400.1 L16,88.1 C-4,68.2 -4,35.8 15.9,15.9 C35.8,-4 68.1,-4 88,15.9 L400,327.9 C419.9,347.8 419.9,380.1 400,400 C390.1,410 377,415 364,415 Z" id="XMLID_2_"></path>
            </g>
        </g>
    </g>
</svg>