<?xml version="1.0" encoding="utf-8"?>
<!-- Generator: Adobe Illustrator 19.0.0, SVG Export Plug-In . SVG Version: 6.00 Build 0)  -->
<svg version="1.1" id="Layer_1" xmlns="http://www.w3.org/2000/svg" xmlns:xlink="http://www.w3.org/1999/xlink" x="0px" y="0px"
	 viewBox="0 0 500 500" style="enable-background:new 0 0 500 500;" xml:space="preserve">
<g id="XMLID_101_">
	<path id="XMLID_3_" style="fill:#FFFFFF;" d="M81.6,473.5c-14.1,0-28.2-5.4-39-16.1c-21.5-21.5-21.5-56.4,0-77.9L379.5,42.6
		c21.5-21.5,56.4-21.5,77.9,0c21.5,21.5,21.5,56.4,0,77.9L120.5,457.4C109.8,468.1,95.7,473.5,81.6,473.5z"/>
	<path id="XMLID_2_" style="fill:#FFFFFF;" d="M418.4,473.5c-14.1,0-28.2-5.4-39-16.1L42.6,120.5c-21.5-21.5-21.5-56.4,0-77.9
		c21.5-21.5,56.4-21.5,77.9,0l336.8,336.8c21.5,21.5,21.5,56.4,0,77.9C446.6,468.1,432.5,473.5,418.4,473.5z"/>
</g>
</svg>
