<?xml version="1.0" encoding="UTF-8"?>
<svg width="480px" height="480px" viewBox="0 0 480 480" version="1.1" xmlns="http://www.w3.org/2000/svg" xmlns:xlink="http://www.w3.org/1999/xlink">
    <!-- Generator: Sketch 45.1 (43504) - http://www.bohemiancoding.com/sketch -->
    <title>error</title>
    <desc>Created with Sketch.</desc>
    <defs></defs>
    <g id="Page-1" stroke="none" stroke-width="1" fill="none" fill-rule="evenodd">
        <g id="error" fill-rule="nonzero">
            <circle id="circle-red" fill="#D0021B" cx="240" cy="240" r="239.5"></circle>
            <path d="M240.620131,204.264792 L141.17767,104.82233 C131.414562,95.0592232 115.585438,95.0592232 105.82233,104.82233 C96.0592232,114.585438 96.0592232,130.414562 105.82233,140.17767 L205.264792,239.620131 L105.82233,339.062592 C96.0592232,348.825699 96.0592232,364.654824 105.82233,374.417931 C115.585438,384.181038 131.414562,384.181038 141.17767,374.417931 L240.620131,274.97547 L340.062592,374.417931 C349.825699,384.181038 365.654824,384.181038 375.417931,374.417931 C385.181038,364.654824 385.181038,348.825699 375.417931,339.062592 L275.97547,239.620131 L375.417931,140.17767 C385.181038,130.414562 385.181038,114.585438 375.417931,104.82233 C365.654824,95.0592232 349.825699,95.0592232 340.062592,104.82233 L240.620131,204.264792 Z" id="cross-white" fill="#FFFFFF"></path>
        </g>
    </g>
</svg>