<?xml version="1.0" encoding="utf-8"?>
<!-- Generator: Adobe Illustrator 19.0.0, SVG Export Plug-In . SVG Version: 6.00 Build 0)  -->
<svg version="1.1" id="Layer_1" xmlns="http://www.w3.org/2000/svg" xmlns:xlink="http://www.w3.org/1999/xlink" x="0px" y="0px"
	 width="500px" height="500px" viewBox="0 0 500 500" style="enable-background:new 0 0 500 500;" xml:space="preserve">
<g style="enable-background:new    ;">
	<g>
		<defs>
			<rect id="XMLID_1_" x="15.6" y="10.3" width="468.9" height="479.3"/>
		</defs>
		<clipPath id="XMLID_7_">
			<use xlink:href="#XMLID_1_"  style="overflow:visible;"/>
		</clipPath>
		<g style="clip-path:url(#XMLID_7_);">
			<defs>
				<path id="SVGID_1_" d="M321.3,386.7c-19.5,55.8-64.1,72.5-92.9,57.7c-26.1-13.4-38.1-28.8-33.4-47.9
					c3.3-13.5,8.8-20.8,17.7-26.6c1.8-1.1,3.7-2.2,6.1-3.6c0.9-0.5,5.6-2.9,6.9-3.6c1.5-0.8,2.9-1.6,4.2-2.4
					c22.9-14,35.9-31.3,32.8-58.3l-1.5-13l-13-0.9c-3-0.2-5.9-0.7-8.7-1.6l-9.1-2.8l-6.6,6.8c-27.9,28.7-65.6,44.7-110,29.2
					c-55.8-19.5-72.5-64.1-57.7-92.9c13.4-26.1,28.8-38.1,47.9-33.4c13.5,3.3,20.8,8.8,26.6,17.7c1.1,1.8,2.2,3.7,3.6,6.1
					c0.5,0.9,2.9,5.6,3.6,6.9c0.8,1.5,1.6,2.9,2.4,4.2c14,22.9,31.3,35.9,58.3,32.8l12.9-1.5l0.9-13c0.2-3,0.7-5.9,1.6-8.7l2.8-9.1
					l-6.8-6.6c-28.7-27.9-44.7-65.6-29.2-110c19.5-55.8,64.1-72.5,92.9-57.7c26.1,13.4,38.1,28.8,33.4,47.9
					c-3.3,13.5-8.8,20.8-17.7,26.6c-1.8,1.1-3.7,2.2-6.1,3.6c-0.9,0.5-5.6,2.9-6.9,3.6c-1.6,0.8-2.9,1.6-4.2,2.4
					c-22.9,14-35.9,31.2-32.8,58.3l1.5,12.9l13,0.9c3,0.2,5.9,0.7,8.7,1.6l9.1,2.8l6.7-6.8c27.9-28.7,65.6-44.7,110-29.2
					c55.8,19.5,72.5,64.1,57.7,92.9c-13.4,26.1-28.8,38.1-47.9,33.4c-13.5-3.3-20.8-8.8-26.6-17.7c-1.1-1.8-2.2-3.7-3.6-6.1
					c-0.5-0.9-2.9-5.6-3.6-6.9c-0.8-1.6-1.6-2.9-2.4-4.2c-14-22.9-31.2-35.9-58.3-32.8l-12.9,1.5l-0.9,13c-0.2,3-0.7,5.9-1.6,8.7
					l-2.8,9.1l6.8,6.7C320.8,304.6,336.8,342.3,321.3,386.7l29.5,10.3c20.3-58.3-0.4-107.3-36.9-142.7l-10.9,11.2l14.9,4.6
					c1.5-5,2.5-10.3,2.9-15.6l-15.6-1.1l1.8,15.5c12.1-1.4,19.8,4.4,28.1,18.1c0.5,0.8,1,1.6,1.5,2.7c0.6,1.1,3,5.7,3.5,6.8
					c1.7,3.2,3.2,5.8,4.9,8.5c10,15.3,23.9,25.7,45.3,31c37,9.1,64-12,83.2-49.5c23.2-45.3-1.2-110.8-75.3-136.6
					c-58.3-20.3-107.3,0.4-142.7,36.9l11.2,10.9l4.6-14.9c-5-1.5-10.3-2.5-15.6-2.9l-1.1,15.6l15.5-1.8
					c-1.4-12.1,4.4-19.8,18.1-28.1c0.8-0.5,1.6-1,2.7-1.6c1.1-0.6,5.7-3,6.8-3.5c3.2-1.7,5.8-3.2,8.5-4.9c15.3-10,25.7-23.9,31-45.3
					c9.1-37-12-64-49.5-83.2c-45.3-23.2-110.8,1.2-136.6,75.3c-20.3,58.3,0.4,107.3,36.9,142.7l10.9-11.2l-15-4.6
					c-1.5,5.1-2.5,10.3-2.9,15.6l15.6,1.1l-1.8-15.5c-12.1,1.4-19.8-4.4-28.1-18.1c-0.5-0.7-0.9-1.6-1.5-2.7c-0.6-1.1-3-5.7-3.5-6.8
					c-1.7-3.2-3.2-5.8-4.9-8.5c-10-15.3-23.9-25.7-45.3-31c-37-9.1-64.1,12-83.2,49.5c-23.2,45.3,1.2,110.8,75.3,136.6
					c58.3,20.3,107.3-0.4,142.7-36.9l-11.2-10.9l-4.6,15c5.1,1.5,10.3,2.5,15.6,2.9l1.1-15.6l-15.5,1.8c1.4,12.1-4.4,19.8-18.1,28.1
					c-0.7,0.4-1.6,0.9-2.7,1.5c-1.1,0.6-5.7,3-6.8,3.5c-3.2,1.7-5.8,3.2-8.5,4.9c-15.3,10-25.7,23.9-31,45.3
					c-9.1,37,12,64,49.5,83.2c45.3,23.2,110.8-1.2,136.6-75.3L321.3,386.7z M220,280.7"/>
			</defs>
			<clipPath id="SVGID_2_">
				<use xlink:href="#SVGID_1_"  style="overflow:visible;"/>
			</clipPath>
			<g style="clip-path:url(#SVGID_2_);">
				<defs>
					<rect id="XMLID_4_" x="15.6" y="10.3" width="468.9" height="479.3"/>
				</defs>
				<clipPath id="XMLID_8_">
					<use xlink:href="#XMLID_4_"  style="overflow:visible;"/>
				</clipPath>
				<rect id="XMLID_5_" x="-32.2" y="-33.7" style="clip-path:url(#XMLID_8_);fill:#666666;" width="566.5" height="566.5"/>
			</g>
		</g>
	</g>
</g>
</svg>
