<?xml version="1.0" encoding="UTF-8"?>
<svg width="262px" height="462px" viewBox="0 0 262 462" version="1.1" xmlns="http://www.w3.org/2000/svg" xmlns:xlink="http://www.w3.org/1999/xlink">
    <!-- Generator: Sketch 41.2 (35397) - http://www.bohemiancoding.com/sketch -->
    <title>info</title>
    <desc>Created with Sketch.</desc>
    <defs></defs>
    <g id="Page-1" stroke="none" stroke-width="1" fill="none" fill-rule="evenodd">
        <g id="info" fill="#4A4A4A">
            <path d="M107.6,183.3 L31.6,183.3 L31.6,136.8 L164.5,136.8 L164.5,414.4 L261.1,414.4 L261.1,461.3 L0.9,461.3 L0.9,414.4 L107.5,414.4 L107.5,183.3 L107.6,183.3 Z M127.3,0.7 C133.5,0.7 139.4,1.8 144.8,4.1 C150.2,6.4 154.9,9.5 158.9,13.6 C162.9,17.7 166,22.4 168.3,27.7 C170.6,33 171.7,38.7 171.7,45 C171.7,51 170.6,56.7 168.3,62.1 C166,67.5 162.9,72.2 158.9,76.3 C154.9,80.4 150.2,83.6 144.8,85.8 C139.4,88.1 133.6,89.2 127.3,89.2 C121,89.2 115.2,88.1 109.8,85.8 C104.4,83.5 99.7,80.4 95.7,76.3 C91.7,72.2 88.6,67.5 86.3,62.1 C84,56.7 82.9,51 82.9,45 C82.9,38.8 84,33 86.3,27.7 C88.6,22.4 91.7,17.7 95.7,13.6 C99.7,9.5 104.4,6.3 109.8,4.1 C115.2,1.9 121,0.7 127.3,0.7 Z" id="Shape"></path>
        </g>
    </g>
</svg>