<?xml version="1.0" encoding="utf-8"?>
<!-- Generator: Adobe Illustrator 19.0.0, SVG Export Plug-In . SVG Version: 6.00 Build 0)  -->
<svg version="1.1" id="Layer_1" xmlns="http://www.w3.org/2000/svg" xmlns:xlink="http://www.w3.org/1999/xlink" x="0px" y="0px"
	 viewBox="0 0 500 500" style="enable-background:new 0 0 500 500;" xml:space="preserve">
<style type="text/css">
	.st0{fill:#666666;}
</style>
<g id="XMLID_610_">
	<path id="XMLID_10_" class="st0" d="M249.6,356.8c-58.9,0-106.8-47.9-106.8-106.8s47.9-106.8,106.8-106.8S356.5,191.1,356.5,250
		S308.5,356.8,249.6,356.8z M249.6,169.5c-44.4,0-80.5,36.1-80.5,80.5s36.1,80.5,80.5,80.5s80.5-36.1,80.5-80.5
		S294,169.5,249.6,169.5z"/>
	<path id="XMLID_9_" class="st0" d="M250,484.8c-7.3,0-13.2-5.9-13.2-13.2v-71.5c0-7.3,5.9-13.2,13.2-13.2s13.2,5.9,13.2,13.2v71.5
		C263.2,478.9,257.3,484.8,250,484.8z"/>
	<path id="XMLID_8_" class="st0" d="M250,113.1c-7.3,0-13.2-5.9-13.2-13.2V28.4c0-7.3,5.9-13.2,13.2-13.2s13.2,5.9,13.2,13.2v71.5
		C263.2,107.2,257.3,113.1,250,113.1z"/>
	<path id="XMLID_7_" class="st0" d="M471.6,263.2h-71.5c-7.3,0-13.2-5.9-13.2-13.2c0-7.3,5.9-13.2,13.2-13.2h71.5
		c7.3,0,13.2,5.9,13.2,13.2C484.8,257.3,478.9,263.2,471.6,263.2z"/>
	<path id="XMLID_6_" class="st0" d="M99.9,263.2H28.4c-7.3,0-13.2-5.9-13.2-13.2c0-7.3,5.9-13.2,13.2-13.2h71.5
		c7.3,0,13.2,5.9,13.2,13.2C113.1,257.3,107.2,263.2,99.9,263.2z"/>
	<path id="XMLID_5_" class="st0" d="M406.7,419.9c-3.4,0-6.7-1.3-9.3-3.9l-50.6-50.6c-5.1-5.1-5.1-13.5,0-18.6
		c5.1-5.1,13.5-5.1,18.6,0l50.6,50.6c5.1,5.1,5.1,13.5,0,18.6C413.5,418.6,410.1,419.9,406.7,419.9z"/>
	<path id="XMLID_4_" class="st0" d="M143.9,157c-3.4,0-6.7-1.3-9.3-3.9L84,102.6c-5.1-5.1-5.1-13.5,0-18.6c5.1-5.1,13.5-5.1,18.6,0
		l50.6,50.6c5.1,5.1,5.1,13.5,0,18.6C150.6,155.7,147.2,157,143.9,157z"/>
	<path id="XMLID_3_" class="st0" d="M356.1,157c-3.4,0-6.7-1.3-9.3-3.9c-5.1-5.1-5.1-13.5,0-18.6L397.4,84c5.1-5.1,13.5-5.1,18.6,0
		c5.1,5.1,5.1,13.5,0,18.6l-50.6,50.6C362.9,155.7,359.5,157,356.1,157z"/>
	<path id="XMLID_2_" class="st0" d="M93.3,419.9c-3.4,0-6.7-1.3-9.3-3.9c-5.1-5.1-5.1-13.5,0-18.6l50.6-50.6
		c5.1-5.1,13.5-5.1,18.6,0c5.1,5.1,5.1,13.5,0,18.6L102.6,416C100,418.6,96.7,419.9,93.3,419.9z"/>
</g>
</svg>
