<?xml version="1.0" encoding="utf-8"?>
<!-- Generator: Adobe Illustrator 19.0.0, SVG Export Plug-In . SVG Version: 6.00 Build 0)  -->
<svg version="1.1" id="Layer_1" xmlns="http://www.w3.org/2000/svg" xmlns:xlink="http://www.w3.org/1999/xlink" x="0px" y="0px"
	 viewBox="0 0 500 500" style="enable-background:new 0 0 500 500;" xml:space="preserve">
<path id="dashboard-5-icon" style="fill:#666666;" d="M412.3,262c-2.9-8.6-6.4-17.1-10.4-25.1l-49.6,22.4c4.4,8,7.9,16.4,10.5,25.1
	L412.3,262z M157.9,243.7c5.5-7.2,11.7-13.6,18.6-19.4l-38.2-39.8c-6.6,5.9-12.9,12.4-18.6,19.4L157.9,243.7z M192.6,213.1
	c7.7-4.5,15.8-8,24.2-10.6l-20.9-52c-8.3,2.9-16.4,6.4-24.2,10.6L192.6,213.1z M136.8,286.2c2.4-8.8,5.8-17.3,10.1-25.3l-50-21.6
	c-4,8.1-7.4,16.6-10.1,25.3L136.8,286.2z M327.7,160.8c-7.8-4.1-16-7.7-24.3-10.5l-20.7,52.1c8.4,2.5,16.6,6.1,24.3,10.5
	L327.7,160.8z M380.3,203.9c-5.7-6.9-11.9-13.4-18.6-19.4l-38.2,39.8c6.9,5.7,13.1,12.2,18.6,19.4L380.3,203.9z M263.1,142
	c-4.4-0.4-8.8-0.5-13.1-0.5c-4.3,0-8.7,0.2-13.1,0.5v56.3c4.4-0.5,8.8-0.8,13.1-0.8c4.4,0,8.8,0.3,13.1,0.8V142z M250,420.8
	c-26.2,0-47.4-21.2-47.4-47.4c0-17.9,9.9-33.4,24.5-41.5L250,224.5l22.9,107.4c14.6,8.1,24.5,23.6,24.5,41.5
	C297.4,399.6,276.2,420.8,250,420.8z M39.8,432.1C19.1,396.3,7.2,354.9,7.2,310.7C7.2,176.8,116.1,67.9,250,67.9
	s242.8,108.9,242.8,242.8c0,44.2-11.9,85.6-32.6,121.4l-40.9-23.6c16.7-28.8,26.2-62.2,26.2-97.7c0-107.8-87.7-195.5-195.5-195.5
	S54.5,202.9,54.5,310.7c0,35.6,9.6,69,26.2,97.7L39.8,432.1z"/>
</svg>
