<?xml version="1.0" encoding="UTF-8"?>
<svg width="24px" height="24px" viewBox="0 0 24 24" version="1.1" xmlns="http://www.w3.org/2000/svg" xmlns:xlink="http://www.w3.org/1999/xlink">
    <!-- Generator: Sketch 41.2 (35397) - http://www.bohemiancoding.com/sketch -->
    <title>plus</title>
    <desc>Created with Sketch.</desc>
    <defs></defs>
    <g id="Page-1" stroke="none" stroke-width="1" fill="none" fill-rule="evenodd">
        <g id="plus" fill="#4A4A4A">
            <path d="M22,10 L14,10 L14,2 C14,0.9 13.1,0 12,0 L12,0 C10.9,0 10,0.9 10,2 L10,10 L2,10 C0.9,10 0,10.9 0,12 L0,12 C0,13.1 0.9,14 2,14 L10,14 L10,22 C10,23.1 10.9,24 12,24 L12,24 C13.1,24 14,23.1 14,22 L14,14 L22,14 C23.1,14 24,13.1 24,12 L24,12 C24,10.9 23.1,10 22,10 Z" id="Shape"></path>
        </g>
    </g>
</svg>