<?xml version="1.0" encoding="utf-8"?>
<!-- Generator: Adobe Illustrator 19.2.1, SVG Export Plug-In . SVG Version: 6.00 Build 0)  -->
<svg version="1.1" id="Layer_1" xmlns="http://www.w3.org/2000/svg" xmlns:xlink="http://www.w3.org/1999/xlink" x="0px" y="0px"
	 viewBox="0 0 24 24" style="enable-background:new 0 0 24 24;" xml:space="preserve">
<style type="text/css">
	.st0{fill:#CCCCCC;}
</style>
<path class="st0" d="M0,7.2C3.1,4,7.3,2,12,2c4.7,0,8.9,2,12,5.2l-2,2.2C19.4,6.7,15.9,5,12,5S4.6,6.7,2,9.4C2,9.4,0,7.2,0,7.2z
	 M5.7,13.3c1.6-1.7,3.8-2.7,6.3-2.7s4.7,1,6.3,2.7l2.1-2.2c-2.1-2.3-5.1-3.7-8.4-3.7s-6.2,1.4-8.4,3.7C3.6,11.1,5.7,13.3,5.7,13.3z
	 M9.4,17.1C10,16.4,11,16,12,16c1,0,2,0.4,2.6,1.1l2.1-2.2c-1.2-1.3-2.9-2-4.7-2s-3.5,0.8-4.7,2C7.3,15,9.4,17.1,9.4,17.1z M12,18.2
	c-1.1,0-1.9,0.9-1.9,1.9S10.9,22,12,22s1.9-0.9,1.9-1.9S13.1,18.2,12,18.2z"/>
</svg>
