<?xml version="1.0" encoding="UTF-8"?>
<svg width="24px" height="20px" viewBox="0 0 24 20" version="1.1" xmlns="http://www.w3.org/2000/svg" xmlns:xlink="http://www.w3.org/1999/xlink">
    <!-- Generator: Sketch 41.2 (35397) - http://www.bohemiancoding.com/sketch -->
    <title>remote</title>
    <desc>Created with Sketch.</desc>
    <defs></defs>
    <g id="Page-1" stroke="none" stroke-width="1" fill="none" fill-rule="evenodd">
        <g id="remote" fill="#4A4A4A">
            <path d="M0,5.2 C3.1,2 7.3,0 12,0 C16.7,0 20.9,2 24,5.2 L22,7.4 C19.4,4.7 15.9,3 12,3 C8.1,3 4.6,4.7 2,7.4 L0,5.2 Z M5.7,11.3 C7.3,9.6 9.5,8.6 12,8.6 C14.5,8.6 16.7,9.6 18.3,11.3 L20.4,9.1 C18.3,6.8 15.3,5.4 12,5.4 C8.7,5.4 5.8,6.8 3.6,9.1 C3.6,9.1 5.7,11.3 5.7,11.3 Z M9.4,15.1 C10,14.4 11,14 12,14 C13,14 14,14.4 14.6,15.1 L16.7,12.9 C15.5,11.6 13.8,10.9 12,10.9 C10.2,10.9 8.5,11.7 7.3,12.9 C7.3,13 9.4,15.1 9.4,15.1 Z M12,16.2 C10.9,16.2 10.1,17.1 10.1,18.1 C10.1,19.1 10.9,20 12,20 C13.1,20 13.9,19.1 13.9,18.1 C13.9,17.1 13.1,16.2 12,16.2 Z" id="Shape"></path>
        </g>
    </g>
</svg>