<?xml version="1.0" encoding="utf-8"?>
<!-- Generator: Adobe Illustrator 19.0.0, SVG Export Plug-In . SVG Version: 6.00 Build 0)  -->
<svg version="1.1" id="Layer_1" xmlns="http://www.w3.org/2000/svg" xmlns:xlink="http://www.w3.org/1999/xlink" x="0px" y="0px"
	 viewBox="0 0 500 500" style="enable-background:new 0 0 500 500;" xml:space="preserve">
<path id="trash-can-15-icon" style="fill:#666666;" d="M426.3,52.8C401.4,27.9,331.9,10,250,10C168.1,10,98.6,27.9,73.7,52.8
	c-12.4,12.4-9.6,21.8-7.4,34.8c10.4,59.7,51.6,285.7,65.5,363c42.2,52.5,193,52.5,235.2,0c14-75,56.9-308.2,67-365
	C435.7,75.7,438.8,65.4,426.3,52.8z M177.9,271.9l-10.4-6.8l38.7-0.2l16.5,35.3l-10.7-6.8c-15.3,24.2-21.7,37.3-16.8,52.5
	C156.4,307.8,160.7,299.7,177.9,271.9z M191.1,244.3l16.5-30c4.1-8,26.5-1.6,35.7,19l-16.9,30.6L191.1,244.3z M247.7,353.8H211
	c-9,0.3-14.2-22.4-0.7-40.5h37.3V353.8z M248.9,250.4l11.1-6.1c-13.8-25.1-22.1-37.1-37.7-40.1c51.9-15.4,54.9-8.7,73,20.8l11-5.8
	l-16.7,35L248.9,250.4z M313.7,250.6l19.3,31.2c5,7.5-11.6,23.9-34,21.9l-19.7-31.7L313.7,250.6z M280.9,353l-0.1,12.3l-21.8-34.2
	l22.3-31.1l-0.1,12.7c28.7,0.2,43.1-1.2,53.5-13.3C322.8,352.3,314.8,353,280.9,353z M250.9,112.9c-78.2,0-141.5-14.9-141.5-33.3
	s63.4-33.3,141.5-33.3s141.5,14.9,141.5,33.3C392.5,98,329.1,112.9,250.9,112.9z"/>
</svg>
