<?xml version="1.0" encoding="utf-8"?>
<!-- Generator: Adobe Illustrator 19.0.0, SVG Export Plug-In . SVG Version: 6.00 Build 0)  -->
<svg version="1.1" id="Layer_1" xmlns="http://www.w3.org/2000/svg" xmlns:xlink="http://www.w3.org/1999/xlink" x="0px" y="0px"
	 width="500px" height="500px" viewBox="0 0 500 500" style="enable-background:new 0 0 500 500;" xml:space="preserve">
<style type="text/css">
	.st0{fill:#FFFFFF;}
</style>
<path id="XMLID_280_" class="st0" d="M445.1,250c0-27.2,20.6-49.5,47.1-52.3c-6.4-29.6-18-57.2-33.9-81.8
	c-20.7,16.7-51,15.4-70.2-3.8c-19.2-19.2-20.5-49.6-3.8-70.2C359.7,26,332.1,14.3,302.5,8c-2.8,26.4-25.2,47.1-52.3,47.1
	c-27.2,0-49.5-20.6-52.3-47.1c-29.6,6.4-57.2,18-81.8,33.9c16.7,20.7,15.4,51-3.8,70.2s-49.6,20.5-70.2,3.8
	c-15.9,24.6-27.6,52.2-33.9,81.8c26.4,2.8,47.1,25.2,47.1,52.3s-20.6,49.5-47.1,52.3c6.4,29.6,18,57.2,33.9,81.8
	c20.7-16.7,51-15.4,70.2,3.8c19.2,19.2,20.5,49.6,3.8,70.2c24.6,15.9,52.2,27.6,81.8,33.9c2.8-26.4,25.2-47.1,52.3-47.1
	c27.2,0,49.5,20.6,52.3,47.1c29.6-6.4,57.2-18,81.8-33.9c-16.7-20.7-15.4-51,3.8-70.2c19.2-19.2,49.6-20.5,70.2-3.8
	c15.9-24.6,27.6-52.2,33.9-81.8C465.7,299.5,445.1,277.2,445.1,250z M250,373.9c-68.4,0-123.9-55.5-123.9-123.9
	S181.6,126.1,250,126.1S373.9,181.6,373.9,250S318.4,373.9,250,373.9z"/>
</svg>
