<?xml version="1.0" encoding="utf-8"?>
<!-- Generator: Adobe Illustrator 19.0.0, SVG Export Plug-In . SVG Version: 6.00 Build 0)  -->
<svg version="1.1" id="Layer_1" xmlns="http://www.w3.org/2000/svg" xmlns:xlink="http://www.w3.org/1999/xlink" x="0px" y="0px"
	 width="500px" height="500px" viewBox="0 0 500 500" style="enable-background:new 0 0 500 500;" xml:space="preserve">
<style type="text/css">
	.st0{fill:#666666;}
</style>
<path id="power-off-icon" class="st0" d="M273.7,26.9h-46v256.5h46V26.9z M364.8,109c23.6,16.5,43.7,38.1,58.5,63.9
	c35.8,61.9,35.8,138.2,0,200.2C387.6,435,321.5,473.1,250,473.1c-71.5,0-137.6-38.2-173.4-100.1c-35.8-61.9-35.8-138.2,0-200.2
	c14.9-25.8,35-47.4,58.5-63.9l24.4,34.9c-18.6,13-34.4,30-46.1,50.3c-28.2,48.8-28.2,108.8,0,157.6c28.2,48.8,80.2,78.8,136.5,78.8
	s108.3-30,136.5-78.8c28.2-48.8,28.2-108.8,0-157.6c-11.7-20.3-27.5-37.3-46.1-50.3L364.8,109z"/>
</svg>
