<?xml version="1.0" encoding="utf-8"?>
<!-- Generator: Adobe Illustrator 19.0.0, SVG Export Plug-In . SVG Version: 6.00 Build 0)  -->
<svg version="1.1" id="Layer_1" xmlns="http://www.w3.org/2000/svg" xmlns:xlink="http://www.w3.org/1999/xlink" x="0px" y="0px"
	 viewBox="0 0 500 500" style="enable-background:new 0 0 500 500;" xml:space="preserve">
<g id="XMLID_93_">
	<g id="XMLID_5_">
		<path id="XMLID_1_" style="fill:#FCE90A;" d="M477.8,391.2l-187-323.9c-22.4-38.9-59.2-38.9-81.6,0l-187,323.9
			c-22.4,38.9-4.1,70.7,40.8,70.7h374C481.9,461.9,500.3,430.1,477.8,391.2z"/>
		<path id="XMLID_2_" style="fill:#666666;" d="M437,467.3H63c-23.7,0-41.6-8.3-50.4-23.5c-8.8-15.1-7-34.8,4.8-55.4l187-323.9
			c11.9-20.6,28-31.9,45.5-31.9c0,0,0,0,0,0c17.5,0,33.7,11.3,45.5,31.9l187,323.9c11.9,20.6,13.6,40.2,4.9,55.4
			C478.7,459,460.8,467.3,437,467.3z M250,43.6c-13.4,0-26.3,9.4-36.1,26.4l-187,323.9c-9.8,17-11.6,32.8-4.8,44.5s21.3,18,40.9,18
			h374c19.7,0,34.2-6.4,40.9-18c6.7-11.6,5-27.4-4.8-44.5L286.1,70C276.3,53,263.4,43.6,250,43.6z"/>
	</g>
	<g id="XMLID_110_">
		<path id="XMLID_132_" style="fill:#666666;" d="M239.5,326.5l-19.2-151.7c0-16.3,13.4-29.7,29.7-29.7h0
			c16.3,0,29.7,13.4,29.7,29.7l-19.2,151.7H239.5z"/>
		<circle id="XMLID_123_" style="fill:#666666;" cx="249.4" cy="378.1" r="26.8"/>
	</g>
</g>
</svg>
