<svg xmlns="http://www.w3.org/2000/svg" viewBox="0 0 28.97 32.56"><defs><style>.cls-1{fill:#1c1c1c;}</style></defs><title>logo regenval</title><g id="Laag_2" data-name="Laag 2"><g id="kast_bijenmonitor" data-name="kast bijenmonitor"><g id="_Groep_" data-name="&lt;Groep&gt;"><path id="_Samengesteld_pad_" data-name="&lt;Samengesteld pad&gt;" class="cls-1" d="M13.7,32.56a2.94,2.94,0,0,1-2.9-3,5.35,5.35,0,0,1,1.55-3.43,6.14,6.14,0,0,0,1-1.48l.36-.91.36.91a6.36,6.36,0,0,0,1,1.48,5.36,5.36,0,0,1,1.55,3.43A2.94,2.94,0,0,1,13.7,32.56Zm0-7a11.45,11.45,0,0,1-.74,1,4.68,4.68,0,0,0-1.38,2.94,2.12,2.12,0,1,0,4.24,0,4.68,4.68,0,0,0-1.38-2.94A11.45,11.45,0,0,1,13.7,25.6Z"/><path id="_Samengesteld_pad_2" data-name="&lt;Samengesteld pad&gt;" class="cls-1" d="M8,28.75a2.94,2.94,0,0,1-2.9-3,5.35,5.35,0,0,1,1.55-3.43,6.18,6.18,0,0,0,1-1.48L8,19.89l.36.91a6.21,6.21,0,0,0,1,1.48,5.36,5.36,0,0,1,1.55,3.43A2.94,2.94,0,0,1,8,28.75Zm0-7a11.45,11.45,0,0,1-.74,1,4.68,4.68,0,0,0-1.38,2.94,2.12,2.12,0,1,0,4.24,0,4.68,4.68,0,0,0-1.38-2.94A11.45,11.45,0,0,1,8,21.78Z"/></g><path id="_Pad_" data-name="&lt;Pad&gt;" class="cls-1" d="M21.22,19.5A7.74,7.74,0,0,0,21.22,4L20.6,4A7.74,7.74,0,0,0,6.06,7.74q0,.38,0,.73c-.18,0-.38,0-.57,0a5.52,5.52,0,0,0,0,11h15.7Z"/><path id="_Samengesteld_pad_3" data-name="&lt;Samengesteld pad&gt;" class="cls-1" d="M23.42,28.82a3,3,0,0,1-3-3.14A5.63,5.63,0,0,1,22,22.09,6.68,6.68,0,0,0,23.1,20.5l.31-.78.31.78a6.72,6.72,0,0,0,1.06,1.59,5.63,5.63,0,0,1,1.63,3.6A3,3,0,0,1,23.42,28.82Zm0-7.46a11.38,11.38,0,0,1-.85,1.15,5,5,0,0,0-1.48,3.17,2.33,2.33,0,1,0,4.66,0,5,5,0,0,0-1.48-3.17A11.38,11.38,0,0,1,23.42,21.36Z"/></g></g></svg>