<svg xmlns="http://www.w3.org/2000/svg" viewBox="0 0 22 22"><defs><style>.cls-1{fill:#1c1c1c;}</style></defs><title>instellingen logo</title><g id="Laag_2" data-name="Laag 2"><g id="kastenlijst"><path id="_Samengesteld_pad_" data-name="&lt;Samengesteld pad&gt;" class="cls-1" d="M19.86,11A2.39,2.39,0,0,1,22,8.62,11.2,11.2,0,0,0,20.46,4.9,2.39,2.39,0,0,1,17.1,1.54,11.11,11.11,0,0,0,13.38,0,2.4,2.4,0,0,1,11,2.14,2.39,2.39,0,0,1,8.62,0,11.2,11.2,0,0,0,4.9,1.54,2.39,2.39,0,0,1,1.54,4.9,11.11,11.11,0,0,0,0,8.62,2.4,2.4,0,0,1,2.14,11,2.39,2.39,0,0,1,0,13.38,11.2,11.2,0,0,0,1.54,17.1,2.39,2.39,0,0,1,4.9,20.46,11.11,11.11,0,0,0,8.62,22a2.39,2.39,0,0,1,4.75,0,11.2,11.2,0,0,0,3.72-1.54,2.39,2.39,0,0,1,3.36-3.36A11.11,11.11,0,0,0,22,13.38,2.39,2.39,0,0,1,19.86,11ZM11,16.63A5.63,5.63,0,1,1,16.62,11,5.63,5.63,0,0,1,11,16.63Z"/></g></g></svg>