<?xml version="1.0" encoding="UTF-8"?>
<svg width="31px" height="23px" viewBox="0 0 31 23" version="1.1" xmlns="http://www.w3.org/2000/svg" xmlns:xlink="http://www.w3.org/1999/xlink">
    <!-- Generator: Sketch 41.2 (35397) - http://www.bohemiancoding.com/sketch -->
    <title>icn_cloud</title>
    <desc>Created with Sketch.</desc>
    <defs></defs>
    <g id="Page-1" stroke="none" stroke-width="1" fill="none" fill-rule="evenodd">
        <g id="icn_cloud" fill="#000000">
            <path d="M12.6226364,1.23228172 C8.81547947,2.21156418 6.14000223,5.60767566 6.0616457,9.51958482 C2.81946992,9.9981427 0.439467784,12.7253536 0.439467784,15.97 C0.439467784,19.3559455 3.03127393,22.1784072 6.40495149,22.4663768 L21.7756913,22.4699049 L22.22,22.5 C27.0524916,22.5 30.97,18.5824916 30.97,13.75 C30.97,8.91750844 27.0524916,5 22.22,5 C20.1530246,1.82992896 16.3059576,0.284852479 12.6226364,1.23228172 Z M6.49,20.47 C4.23624137,20.2739878 2.43946778,18.3173119 2.43946778,15.97 C2.43946778,13.6226881 4.23624137,11.6660122 6.57504851,11.4663768 L7.06,11.47 L8.06,11.47 L8.06,9.74 C8.04271904,6.64470007 10.1285071,3.93892857 13.1208613,3.16923086 C16.1132155,2.39953314 19.2457118,3.76304993 20.7214314,6.47761621 L21.0054149,7 L22.22,7 C25.9479221,7 28.97,10.0220779 28.97,13.75 C28.97,17.3428195 26.1629974,20.2800284 22.6224163,20.4882028 L6.49,20.47 Z" id="cloud"></path>
        </g>
    </g>
</svg>