<?xml version="1.0" encoding="UTF-8"?>
<svg width="15px" height="23px" viewBox="0 0 15 23" version="1.1" xmlns="http://www.w3.org/2000/svg" xmlns:xlink="http://www.w3.org/1999/xlink">
    <!-- Generator: Sketch 41.2 (35397) - http://www.bohemiancoding.com/sketch -->
    <title>icn_arrow_left</title>
    <desc>Created with Sketch.</desc>
    <defs></defs>
    <g id="Page-1" stroke="none" stroke-width="1" fill="none" fill-rule="evenodd">
        <g id="icn_arrow_left" transform="translate(8.000000, 11.000000) scale(-1, 1) translate(-8.000000, -11.000000) translate(0.000000, -1.000000)" fill="#1C1C1C">
            <g id="Laag_2">
                <g id="instellingen">
                    <path d="M2.7,1 C3.22535351,0.941332043 3.75041208,1.11270533 4.14,1.47 L14.51,10.68 C15.2749143,11.3731174 15.3331173,12.5550856 14.64,13.32 C13.9468826,14.0849143 12.7649144,14.1431173 12,13.45 L1.68,4.24 C1.13066006,3.75336478 0.918819787,2.98920742 1.13919529,2.28919111 C1.3595708,1.5891748 1.97095842,1.08418178 2.7,1 L2.7,1 Z" id="Shape"></path>
                    <path d="M14.61,10.85 C14.9389743,11.2166652 15.1081269,11.699393 15.0799699,12.1912006 C15.051813,12.6830081 14.8286721,13.1432764 14.46,13.47 L4.09,22.67 C3.32508562,23.3520717 2.15207167,23.2849144 1.47,22.52 C0.787928334,21.7550856 0.855085621,20.5820717 1.62,19.9 L12,10.69 C12.3938704,10.3408404 12.9166526,10.1738405 13.44,10.23 C13.8940122,10.2824336 14.3116793,10.5037615 14.61,10.85 Z" id="Shape"></path>
                </g>
            </g>
        </g>
    </g>
</svg>