<svg xmlns="http://www.w3.org/2000/svg" viewBox="0 0 25.7 28.23"><defs><style>.cls-1{fill:#1c1c1c;}</style></defs><title>logo lucht</title><g id="Laag_2" data-name="Laag 2"><g id="kast_bijenmonitor" data-name="kast bijenmonitor"><g id="_Groep_" data-name="&lt;Groep&gt;"><path id="_Samengesteld_pad_" data-name="&lt;Samengesteld pad&gt;" class="cls-1" d="M19.23,28.23a6.54,6.54,0,0,1-6.47-6.76c0-3.35,1.84-5.64,3.46-7.65a13.68,13.68,0,0,0,2.2-3.3l.81-2,.81,2a14.17,14.17,0,0,0,2.2,3.3c1.62,2,3.46,4.3,3.46,7.65A6.56,6.56,0,0,1,19.23,28.23Zm0-15.52a25.51,25.51,0,0,1-1.65,2.2c-1.51,1.88-3.08,3.82-3.08,6.56a4.74,4.74,0,1,0,9.45,0c0-2.74-1.57-4.68-3.08-6.56A25.51,25.51,0,0,1,19.23,12.71Z"/><path id="_Samengesteld_pad_2" data-name="&lt;Samengesteld pad&gt;" class="cls-1" d="M6.47,19.73A6.55,6.55,0,0,1,0,13C0,9.62,1.84,7.33,3.46,5.32A13.77,13.77,0,0,0,5.66,2l.81-2,.81,2a13.83,13.83,0,0,0,2.2,3.29c1.62,2,3.46,4.3,3.46,7.65A6.56,6.56,0,0,1,6.47,19.73Zm0-15.52a25.51,25.51,0,0,1-1.65,2.2C3.31,8.29,1.75,10.23,1.75,13a4.77,4.77,0,0,0,4.73,5,4.77,4.77,0,0,0,4.73-5c0-2.74-1.57-4.68-3.08-6.56A25.51,25.51,0,0,1,6.47,4.21Z"/></g></g></g></svg>