<svg xmlns="http://www.w3.org/2000/svg" viewBox="0 0 13 30.88"><defs><style>.cls-1{fill:#1c1c1c;}</style></defs><title>logo temp</title><g id="Laag_2" data-name="Laag 2"><g id="kast_bijenmonitor" data-name="kast bijenmonitor"><g id="_Groep_" data-name="&lt;Groep&gt;"><path id="_Samengesteld_pad_" data-name="&lt;Samengesteld pad&gt;" class="cls-1" d="M6.5,30.88A6.5,6.5,0,0,1,2.66,19.13V3.94a3.94,3.94,0,0,1,7.87,0V19.28a6.5,6.5,0,0,1-4,11.6Zm.1-29a2,2,0,0,0-2,2V20.18l-.45.28a4.59,4.59,0,1,0,4.93.1l-.42-.29V3.94A2,2,0,0,0,6.6,1.92Z"/><path id="_Pad_" data-name="&lt;Pad&gt;" class="cls-1" d="M6.51,10.28h-2a1,1,0,0,1,0-1.91h2a1,1,0,0,1,0,1.91Z"/><path id="_Pad_2" data-name="&lt;Pad&gt;" class="cls-1" d="M6.51,6.92h-2A1,1,0,0,1,4.47,5h2a1,1,0,1,1,0,1.91Z"/><path id="_Pad_3" data-name="&lt;Pad&gt;" class="cls-1" d="M6.51,13.65h-2a1,1,0,1,1,0-1.91h2a1,1,0,1,1,0,1.91Z"/><path id="_Pad_4" data-name="&lt;Pad&gt;" class="cls-1" d="M7.61,21.41v-4.3H5.4v4.3a3.17,3.17,0,1,0,2.21,0Z"/></g></g></g></svg>