<?xml version="1.0" encoding="UTF-8"?>
<svg width="496px" height="444px" viewBox="0 0 496 444" version="1.1" xmlns="http://www.w3.org/2000/svg" xmlns:xlink="http://www.w3.org/1999/xlink">
    <!-- Generator: Sketch 41.2 (35397) - http://www.bohemiancoding.com/sketch -->
    <title>icn_alert</title>
    <desc>Created with Sketch.</desc>
    <defs></defs>
    <g id="Page-1" stroke="none" stroke-width="1" fill="none" fill-rule="evenodd">
        <g id="icn_alert" fill="#000000">
            <g id="line" fill-opacity="0.8">
                <path d="M475.8,363.2 L288.8,39.3 C266.4,0.4 229.6,0.4 207.2,39.3 L20.2,363.2 C-2.2,402.1 16.1,433.9 61,433.9 L435,433.9 C479.9,433.9 498.3,402.1 475.8,363.2 Z M435,443.9 L61,443.9 C8.41840695,443.9 -14.7105178,403.786383 11.5397025,358.200075 L198.534067,34.3098486 C224.780532,-11.2699495 271.219468,-11.2699495 297.460297,34.3000752 L484.458348,358.196698 C510.804273,403.750046 487.613859,443.9 435,443.9 Z" id="tri"></path>
            </g>
            <g id="warning" transform="translate(10.000000, 10.000000)" fill-opacity="0.6">
                <g id="XMLID_93_">
                    <path d="M465.8,353.2 L278.8,29.3 C256.4,-9.6 219.6,-9.6 197.2,29.3 L10.2,353.2 C-12.2,392.1 6.1,423.9 51,423.9 L425,423.9 C469.9,423.9 488.3,392.1 465.8,353.2 Z M227.5,288.5 L208.3,136.8 C208.3,120.5 221.7,107.1 238,107.1 C254.3,107.1 267.7,120.5 267.7,136.8 L248.5,288.5 L227.5,288.5 Z M237.4,366.9 C252.201231,366.9 264.2,354.901231 264.2,340.1 C264.2,325.298769 252.201231,313.3 237.4,313.3 C222.598769,313.3 210.6,325.298769 210.6,340.1 C210.6,354.901231 222.598769,366.9 237.4,366.9 Z" id="Combined-Shape"></path>
                </g>
            </g>
        </g>
    </g>
</svg>