<svg xmlns="http://www.w3.org/2000/svg" viewBox="0 0 29.58 22.45"><defs><style>.cls-1{fill:none;stroke:#1c1c1c;stroke-miterlimit:10;stroke-width:2.5px;}</style></defs><title>logo gewicht</title><g id="Laag_2" data-name="Laag 2"><g id="kast_bijenmonitor" data-name="kast bijenmonitor"><path class="cls-1" d="M28,17.39l-3-6.17A2.68,2.68,0,0,0,22.66,9H17.84a5.48,5.48,0,0,0,.79-2.87c0-2.68-1.81-4.85-4-4.85s-4,2.17-4,4.85A5.48,5.48,0,0,0,11.33,9H7.18a2.23,2.23,0,0,0-1.7.86,2.19,2.19,0,0,0-.6.77L1.54,17.48c-.78,1.6.11,3.68,1.58,3.68H7.81a1.06,1.06,0,0,0,.26,0H25.9a1.09,1.09,0,0,0,.5-.12h.06C27.93,21.07,28.83,19,28,17.39Z"/><line class="cls-1" x1="9.13" y1="8.96" x2="20.86" y2="8.96"/></g></g></svg>