<?xml version="1.0" encoding="UTF-8"?>
<svg width="200px" height="50px" viewBox="0 0 200 50" version="1.1" xmlns="http://www.w3.org/2000/svg" xmlns:xlink="http://www.w3.org/1999/xlink">
    <!-- Generator: Sketch 43.2 (39069) - http://www.bohemiancoding.com/sketch -->
    <title>logo</title>
    <desc>Created with Sketch.</desc>
    <defs></defs>
    <g id="Page-1" stroke="none" stroke-width="1" fill="none" fill-rule="evenodd">
        <g id="logo" fill="#000000">
            <g id="icn_bee" transform="translate(24.000000, 11.000000)" fill-rule="nonzero">
                <path d="M5.47217152,20.4178118 L6.43535193,21.3689575 L1.19143459,25.7959215 L0.228254172,24.8447758 L5.47217152,20.4178118 Z M5.70706748,21.164799 L5.17451697,21.1455943 L5.62162978,21.5871206 L5.64266277,21.0928645 L0.956538627,25.0489343 L1.48908913,25.068139 L1.04197632,24.6266128 L1.02094334,25.1208688 L5.70706748,21.164799 Z" id="Shape"></path>
                <path d="M1.21414409,13.6672741 L2.2557452,12.7883777 L14.7039373,25.0870887 L13.6623362,25.9659851 L1.21414409,13.6672741 Z M2.02792436,13.449295 L2.00675956,13.9435462 L2.49044198,13.535418 L1.95789652,13.516093 L13.8901571,25.3050678 L13.9113219,24.8108167 L13.4276395,25.2189448 L13.9601849,25.2382698 L2.02792436,13.449295 Z" id="Shape"></path>
                <path d="M0.482726213,7.22668423 L1.52426001,6.34772077 L21.4851663,26.0661516 L20.4436325,26.945115 L0.482726213,7.22668423 Z M1.29648986,7.00865247 L1.27536278,7.50290503 L1.75901378,7.09474586 L1.22646688,7.07545528 L20.6714026,26.2841833 L20.6925297,25.7899308 L20.2088787,26.19809 L20.7414256,26.2173805 L1.29648986,7.00865247 Z" id="Shape"></path>
                <path d="M6.79289226,7.5436748 L7.83435609,6.66464161 L21.5409387,20.2027398 L20.4994749,21.081773 L6.79289226,7.5436748 Z M7.60663862,7.32558832 L7.58555074,7.81984232 L8.0691691,7.41165091 L7.5366207,7.39239613 L20.7271924,20.4208263 L20.7482802,19.9265723 L20.2646619,20.3347637 L20.7972103,20.3540185 L7.60663862,7.32558832 Z" id="Shape"></path>
                <path d="M26.6756211,12.8757139 C29.7040867,10.3205379 29.89045,6.0088824 27.0921129,3.24390616 C24.2921316,0.477305312 19.5645396,0.306953841 16.5342976,2.86362862 C13.505832,5.41880463 13.3194687,9.73046013 16.1178058,12.4954364 C18.9177871,15.2620372 23.6453791,15.4323887 26.6756211,12.8757139 Z M27.1869774,13.3893107 C23.8504587,16.2043971 18.6474043,16.0169131 15.564073,12.9703402 C12.4790975,9.92214281 12.6846463,5.16661708 16.0229413,2.35003188 C19.35946,-0.465054556 24.5625144,-0.277570531 27.6458457,2.76900229 C30.7308212,5.81719972 30.5252724,10.5727255 27.1869774,13.3893107 Z M26.7400044,12.9476664 C23.670627,15.5373605 18.8842499,15.3648908 16.047775,12.5622314 C13.2096558,9.75794737 13.3987604,5.38286907 16.4699143,2.79167616 C19.5392917,0.20198201 24.3256688,0.374451712 27.1621438,3.17711114 C30.0002629,5.98139517 29.8111583,10.3564735 26.7400044,12.9476664 Z M26.2286481,12.4340696 C28.9899725,10.1042859 29.1598917,6.17307785 26.608411,3.652015 C24.055286,1.12932755 19.7443713,0.973990408 16.9812706,3.30527289 C14.2199462,5.63505662 14.050027,9.56626469 16.6015078,12.0873275 C19.1546327,14.610015 23.4655474,14.7653521 26.2286481,12.4340696 Z" id="Oval"></path>
                <path d="M4.05723252,3.1049801 C4.24539867,2.55201776 3.90663529,1.96387075 3.2985569,1.79136837 C2.68917567,1.6184964 2.04233147,1.92909522 1.85375347,2.48326784 C1.66558732,3.03623018 2.0043507,3.6243772 2.61242909,3.79687957 C3.22181033,3.96975154 3.86865453,3.65915272 4.05723252,3.1049801 Z M2.38954766,4.46266642 C1.38181482,4.1767883 0.817681702,3.19736363 1.13154749,2.2750088 C1.44500143,1.35386425 2.51500835,0.840073004 3.52143833,1.12558152 C4.52917117,1.41145964 5.09330429,2.39088431 4.77943851,3.31323914 C4.46598456,4.23438369 3.39597765,4.74817494 2.38954766,4.46266642 Z M2.58495936,3.88841165 C1.92458098,3.70107259 1.55454549,3.05863222 1.76048838,2.45342954 C1.96601942,1.84943714 2.66695111,1.51286682 3.32602664,1.69983629 C3.98640501,1.88717535 4.3564405,2.52961572 4.15049762,3.1348184 C3.94496657,3.7388108 3.24403489,4.07538112 2.58495936,3.88841165 Z M3.42829163,2.92655936 C3.50853488,2.69074917 3.36386913,2.43958646 3.1031452,2.36562314 C2.84111843,2.29129022 2.56334946,2.42466811 2.48269436,2.66168858 C2.40245111,2.89749877 2.54711686,3.14866149 2.80784079,3.22262481 C3.06986757,3.29695772 3.34763654,3.16357983 3.42829163,2.92655936 Z" id="Oval"></path>
                <path d="M26.4637749,25.8279392 C26.9301992,25.4344079 26.9588535,24.771467 26.5280139,24.3457638 C26.0955301,23.9184359 25.3641189,23.8920806 24.8959182,24.2871107 C24.4294939,24.6806421 24.4008395,25.3435829 24.8316791,25.7692862 C25.2641629,26.1966141 25.9955742,26.2229694 26.4637749,25.8279392 Z M26.9751312,26.341536 C26.2006538,26.9949778 24.9937801,26.9514899 24.2779463,26.2441901 C23.5604683,25.5352656 23.6083082,24.4284545 24.3845619,23.773514 C25.1590393,23.1200722 26.365913,23.16356 27.0817467,23.8708599 C27.7992247,24.5797844 27.7513849,25.6865954 26.9751312,26.341536 Z M26.5281582,25.8998917 C26.0208221,26.3279412 25.2306257,26.2994677 24.7616483,25.8360812 C24.2910266,25.3710702 24.3224223,24.6447065 24.8315349,24.2151583 C25.338871,23.7871088 26.1290674,23.8155823 26.5980448,24.2789687 C27.0686665,24.7439798 27.0372707,25.4703435 26.5281582,25.8998917 Z M26.0168019,25.386295 C26.216085,25.2181559 26.2282953,24.9356625 26.044312,24.7538726 C25.8586845,24.5704581 25.5439506,24.5591172 25.3428912,24.728755 C25.1436081,24.8968941 25.1313978,25.1793875 25.3153811,25.3611774 C25.5010085,25.5445919 25.8157424,25.5559328 26.0168019,25.386295 Z" id="Oval"></path>
            </g>
            <path d="M84.2104167,30.5768183 C84.2104167,33.6422276 83.7184896,34.965927 82.5832732,36.0457871 C81.4858974,37.0559788 80.1236378,37.4739892 77.8910457,37.4739892 L73.0852965,37.4739892 L73.0852965,12.6720414 L77.9288862,12.6720414 C80.1236378,12.6720414 81.4480569,13.0552176 82.5075921,14.1002435 C83.6428085,15.2149377 83.9833734,16.503803 83.9833734,19.0815335 C83.9833734,20.8232433 83.7563301,22.355948 82.3940705,23.609979 C81.8643029,24.0976578 81.2588542,24.4459998 80.691246,24.5853365 C81.4102163,24.7246733 82.0156651,25.0730153 82.5454327,25.560694 C84.0212139,26.9540619 84.2104167,28.8002743 84.2104167,30.5768183 Z M81.9778245,30.5768183 C81.9778245,26.9540619 80.5398838,25.5258598 77.9667268,25.5258598 L75.3178886,25.5258598 L75.3178886,35.6277768 L77.9667268,35.6277768 C80.5398838,35.6277768 81.9778245,34.5479167 81.9778245,30.5768183 Z M81.7507812,19.1163677 C81.7507812,15.4936113 80.3885216,14.5182538 77.9667268,14.5182538 L75.3178886,14.5182538 L75.3178886,23.7144816 L77.9667268,23.7144816 C80.3885216,23.7144816 81.7507812,22.4256164 81.7507812,19.1163677 Z M98.2114183,37.4739892 L98.2114183,35.6277768 L91.0595553,35.6277768 L91.0595553,25.9787044 L97.2275641,25.9787044 L97.2275641,24.132492 L91.0595553,24.132492 L91.0595553,14.5182538 L98.2114183,14.5182538 L98.2114183,12.6720414 L88.8269631,12.6720414 L88.8269631,37.4739892 L98.2114183,37.4739892 Z M111.985377,37.4739892 L111.985377,35.6277768 L104.833514,35.6277768 L104.833514,25.9787044 L111.001522,25.9787044 L111.001522,24.132492 L104.833514,24.132492 L104.833514,14.5182538 L111.985377,14.5182538 L111.985377,12.6720414 L102.600921,12.6720414 L102.600921,37.4739892 L111.985377,37.4739892 Z M127.5,19.5692123 C127.5,24.7943417 125.494451,26.5012173 121.672556,26.5012173 L118.607472,26.5012173 L118.607472,37.4739892 L116.37488,37.4739892 L116.37488,12.6720414 L121.672556,12.6720414 C124.889002,12.6720414 127.5,13.7519015 127.5,19.5692123 Z M125.267408,19.6040465 C125.267408,16.3644662 124.434916,14.5182538 121.748237,14.5182538 L118.607472,14.5182538 L118.607472,24.6550049 L121.748237,24.6550049 C124.434916,24.6550049 125.267408,22.8436267 125.267408,19.6040465 Z" id="BEEP"></path>
        </g>
    </g>
</svg>