<svg xmlns="http://www.w3.org/2000/svg" viewBox="0 0 26.33 26.33"><defs><style>.cls-1{fill:#1c1c1c;}</style></defs><title>logo lichtintens</title><g id="Laag_2" data-name="Laag 2"><g id="kast_bijenmonitor" data-name="kast bijenmonitor"><g id="_Groep_" data-name="&lt;Groep&gt;"><path id="_Samengesteld_pad_" data-name="&lt;Samengesteld pad&gt;" class="cls-1" d="M13.14,19.16a6,6,0,1,1,6-6A6,6,0,0,1,13.14,19.16Zm0-10.5a4.51,4.51,0,1,0,4.51,4.51A4.52,4.52,0,0,0,13.14,8.65Z"/><path id="_Pad_" data-name="&lt;Pad&gt;" class="cls-1" d="M13.17,26.33a.74.74,0,0,1-.74-.74v-4a.74.74,0,1,1,1.48,0v4A.74.74,0,0,1,13.17,26.33Z"/><path id="_Pad_2" data-name="&lt;Pad&gt;" class="cls-1" d="M13.17,5.49a.74.74,0,0,1-.74-.74v-4a.74.74,0,0,1,1.48,0v4A.74.74,0,0,1,13.17,5.49Z"/><path id="_Pad_3" data-name="&lt;Pad&gt;" class="cls-1" d="M25.59,13.91h-4a.74.74,0,1,1,0-1.48h4a.74.74,0,1,1,0,1.48Z"/><path id="_Pad_4" data-name="&lt;Pad&gt;" class="cls-1" d="M4.75,13.91h-4a.74.74,0,1,1,0-1.48h4a.74.74,0,1,1,0,1.48Z"/><path id="_Pad_5" data-name="&lt;Pad&gt;" class="cls-1" d="M22,22.69a.73.73,0,0,1-.52-.22l-2.84-2.84a.74.74,0,0,1,1-1l2.84,2.84a.74.74,0,0,1,0,1A.72.72,0,0,1,22,22.69Z"/><path id="_Pad_6" data-name="&lt;Pad&gt;" class="cls-1" d="M7.22,8a.73.73,0,0,1-.52-.22L3.86,4.9a.74.74,0,1,1,1-1L7.74,6.7a.74.74,0,0,1,0,1A.76.76,0,0,1,7.22,8Z"/><path id="_Pad_7" data-name="&lt;Pad&gt;" class="cls-1" d="M19.12,8a.73.73,0,0,1-.52-.22.74.74,0,0,1,0-1l2.84-2.83a.74.74,0,1,1,1,1L19.64,7.74A.74.74,0,0,1,19.12,8Z"/><path id="_Pad_8" data-name="&lt;Pad&gt;" class="cls-1" d="M4.38,22.69a.73.73,0,0,1-.52-.22.74.74,0,0,1,0-1L6.7,18.59a.74.74,0,0,1,1,1L4.9,22.48A.73.73,0,0,1,4.38,22.69Z"/></g></g></g></svg>