<?xml version="1.0" encoding="UTF-8"?>
<svg width="400px" height="100px" viewBox="0 0 400 100" version="1.1" xmlns="http://www.w3.org/2000/svg" xmlns:xlink="http://www.w3.org/1999/xlink">
    <!-- Generator: Sketch 44.1 (41455) - http://www.bohemiancoding.com/sketch -->
    <title>beep-icon-logo</title>
    <desc>Created with Sketch.</desc>
    <defs></defs>
    <g id="Page-1" stroke="none" stroke-width="1" fill="none" fill-rule="evenodd">
        <g id="beep-icon-logo">
            <rect id="Rectangle" fill="#F8BA31" x="31" y="14" width="73" height="73" rx="15"></rect>
            <g id="icn_bee" transform="translate(45.000000, 29.000000)" fill-rule="nonzero" fill="#000000">
                <path d="M8.57306872,32.144107 L10.0820514,33.6415118 L1.86658085,40.6109562 L0.357598204,39.1135515 L8.57306872,32.144107 Z M8.94107239,33.3201016 L8.10674326,33.2898674 L8.80721999,33.9849696 L8.84017167,33.206854 L1.49857718,39.4349617 L2.33290631,39.4651959 L1.63242958,38.7700937 L1.5994779,39.5482093 L8.94107239,33.3201016 Z" id="Shape"></path>
                <path d="M1.90215908,21.5166211 L3.53400082,20.1329597 L23.0361685,39.4950287 L21.4043267,40.8786902 L1.90215908,21.5166211 Z M3.1770815,21.1734529 L3.14392331,21.9515609 L3.90169243,21.3090379 L3.06737122,21.2786142 L21.7612461,39.8381969 L21.7944043,39.0600889 L21.0366351,39.702612 L21.8709564,39.7330357 L3.1770815,21.1734529 Z" id="Shape"></path>
                <path d="M0.756271068,11.3770914 L2.38800735,9.99332433 L33.6600938,41.036384 L32.0283576,42.4201511 L0.756271068,11.3770914 Z M2.03116744,11.0338403 L1.99806835,11.8119505 L2.75578826,11.1693786 L1.92146478,11.1390091 L32.3851975,41.3796351 L32.4182965,40.6015249 L31.6605766,41.2440968 L32.4949001,41.2744663 L2.03116744,11.0338403 Z" id="Shape"></path>
                <path d="M10.6421979,11.876135 L12.2738245,10.4922582 L33.7474706,31.8055155 L32.115844,33.1893924 L10.6421979,11.876135 Z M11.9170672,11.5327978 L11.8840295,12.3109102 L12.6416983,11.6682876 L11.8073724,11.6379745 L32.4726014,32.1488528 L32.505639,31.3707403 L31.7479703,32.013363 L32.5822961,32.0436761 L11.9170672,11.5327978 Z" id="Shape"></path>
                <path d="M41.7918064,20.2704545 C46.5364025,16.2477976 46.8283716,9.45988535 42.4443102,5.10693642 C38.0576728,0.751429839 30.651112,0.483242632 25.903733,4.50825904 C21.1591369,8.53091593 20.8671677,15.3188282 25.2512291,19.6717772 C29.6378665,24.0272837 37.0444273,24.2954709 41.7918064,20.2704545 Z M42.5929312,21.0790186 C37.3657187,25.5108568 29.2142667,25.2156976 24.3837144,20.4194264 C19.5505861,15.6205975 19.8726125,8.13389279 25.1026081,3.699695 C30.3298206,-0.732143266 38.4812726,-0.436983989 43.3118249,4.35928722 C48.1449532,9.15811606 47.8229268,16.6448208 42.5929312,21.0790186 Z M41.8926736,20.3837305 C37.0839823,24.4607299 29.5853248,24.1892079 25.1415141,19.7769337 C20.6951274,15.3621018 20.9913914,8.47434196 25.8028657,4.39498306 C30.611557,0.3179837 38.1102145,0.589505673 42.5540252,5.00177988 C47.0004119,9.41661173 46.704148,16.3043716 41.8926736,20.3837305 Z M41.0915488,19.5751665 C45.4176236,15.9073485 45.6838303,9.71838102 41.6865105,5.74942908 C37.6866147,1.7779195 30.9328484,1.5333696 26.6039906,5.20354711 C22.2779157,8.87136509 22.011709,15.0603325 26.0090288,19.0292845 C30.0089246,23.0007941 36.7626909,23.245344 41.0915488,19.5751665 Z" id="Oval"></path>
                <path d="M6.35633095,4.88822277 C6.65112459,4.01768479 6.12039529,3.09175498 5.16773915,2.82018157 C4.21304188,2.5480263 3.19965264,3.03700729 2.90421378,3.90945063 C2.60942014,4.77998861 3.14014944,5.70591842 4.09280558,5.97749183 C5.04750285,6.2496471 6.06089209,5.76066611 6.35633095,4.88822277 Z M3.74362467,7.02565134 C2.16484323,6.57558857 1.28103467,5.03366373 1.77275773,3.5815849 C2.26383558,2.13141142 3.94017974,1.32254116 5.51692006,1.77202206 C7.0957015,2.22208483 7.97951006,3.76400967 7.48778699,5.2160885 C6.99670915,6.66626198 5.32036499,7.47513224 3.74362467,7.02565134 Z M4.04976966,6.12159233 C3.01517688,5.82666127 2.4354546,4.81525652 2.75809846,3.86247569 C3.0800971,2.91160021 4.1782234,2.38173187 5.21077506,2.67608107 C6.24536785,2.97101213 6.82509012,3.98241688 6.50244627,4.93519771 C6.18044763,5.88607319 5.08232132,6.41594153 4.04976966,6.12159233 Z M5.37099022,4.60733198 C5.49670465,4.236092 5.27006164,3.84068228 4.86159415,3.72424058 C4.45108554,3.60721701 4.01591415,3.81719608 3.8895545,4.19034142 C3.76384007,4.5615814 3.99048309,4.95699112 4.39895057,5.07343282 C4.80945919,5.19045639 5.24463057,4.98047732 5.37099022,4.60733198 Z" id="Oval"></path>
                <path d="M41.4599139,40.6613623 C42.1906453,40.0418192 42.2355372,38.9981402 41.5605552,38.3279483 C40.8829972,37.6551988 39.7371196,37.6137072 39.0036052,38.2356098 C38.2728738,38.8551529 38.2279819,39.8988319 38.902964,40.5690238 C39.5805219,41.2417733 40.7263996,41.2832649 41.4599139,40.6613623 Z M42.2610388,41.4699263 C41.047691,42.4986508 39.1569222,42.4301872 38.0354493,41.316673 C36.9114004,40.2006012 36.9863495,38.4581298 38.2024803,37.4270458 C39.4158282,36.3983213 41.306597,36.466785 42.4280699,37.5802991 C43.5521188,38.6963709 43.4771697,40.4388423 42.2610388,41.4699263 Z M41.5607812,40.7746383 C40.7659546,41.4485238 39.5279803,41.4036975 38.793249,40.6741804 C38.0559417,39.9421056 38.1051283,38.798579 38.9027379,38.1223339 C39.6975646,37.4484483 40.9355389,37.4932746 41.6702702,38.2227918 C42.4075775,38.9548666 42.3583908,40.0983932 41.5607812,40.7746383 Z M40.7596563,39.9660742 C41.0718665,39.70137 41.0909959,39.2566359 40.8027555,38.970441 C40.5119391,38.6816884 40.018856,38.6638342 39.7038628,38.9308979 C39.3916526,39.1956021 39.3725232,39.6403363 39.6607637,39.9265312 C39.9515801,40.2152837 40.4446632,40.2331379 40.7596563,39.9660742 Z" id="Oval"></path>
            </g>
            <path d="M159.251489,64.4679677 C159.251489,72.2523668 158.002273,75.6138119 155.119468,78.3560434 C152.332757,80.9213568 148.873391,81.9828657 143.203874,81.9828657 L131,81.9828657 L131,19 L143.299968,19 C148.873391,19 152.236663,19.9730499 154.927281,22.6268223 C157.810086,25.4575129 158.674928,28.7304989 158.674928,35.2764709 C158.674928,39.699425 158.098367,43.5916245 154.639001,46.7761515 C153.293692,48.0145786 151.756196,48.8991694 150.314793,49.2530057 C152.14057,49.6068421 153.678066,50.4914329 155.023375,51.72986 C158.771021,55.2682233 159.251489,59.9565546 159.251489,64.4679677 Z M153.581972,64.4679677 C153.581972,55.2682233 149.930419,51.6414009 143.396061,51.6414009 L136.669516,51.6414009 L136.669516,77.2945344 L143.396061,77.2945344 C149.930419,77.2945344 153.581972,74.5523029 153.581972,64.4679677 Z M153.005411,35.36493 C153.005411,26.1651856 149.546045,23.6883313 143.396061,23.6883313 L136.669516,23.6883313 L136.669516,47.0415287 L143.396061,47.0415287 C149.546045,47.0415287 153.005411,43.7685427 153.005411,35.36493 Z M194.806084,81.9828657 L194.806084,77.2945344 L176.644412,77.2945344 L176.644412,52.791369 L192.307653,52.791369 L192.307653,48.1030377 L176.644412,48.1030377 L176.644412,23.6883313 L194.806084,23.6883313 L194.806084,19 L170.974896,19 L170.974896,81.9828657 L194.806084,81.9828657 Z M229.784118,81.9828657 L229.784118,77.2945344 L211.622446,77.2945344 L211.622446,52.791369 L227.285687,52.791369 L227.285687,48.1030377 L211.622446,48.1030377 L211.622446,23.6883313 L229.784118,23.6883313 L229.784118,19 L205.95293,19 L205.95293,81.9828657 L229.784118,81.9828657 Z M269.182453,36.5148981 C269.182453,49.7837602 264.089497,54.1182552 254.384054,54.1182552 L246.60048,54.1182552 L246.60048,81.9828657 L240.930964,81.9828657 L240.930964,19 L254.384054,19 C262.552001,19 269.182453,21.7422315 269.182453,36.5148981 Z M263.512936,36.6033571 C263.512936,28.3766626 261.398879,23.6883313 254.576241,23.6883313 L246.60048,23.6883313 L246.60048,49.4299239 L254.576241,49.4299239 C261.398879,49.4299239 263.512936,44.8300517 263.512936,36.6033571 Z" id="BEEP" fill="#000000"></path>
        </g>
    </g>
</svg>