<svg xmlns="http://www.w3.org/2000/svg" xmlns:xlink="http://www.w3.org/1999/xlink" width="592.36" height="540.68" viewBox="0 0 592.36 540.68"><defs><style>.a,.g,.h{fill:none;}.b{fill:#fffaf0;}.c{opacity:0.2;}.d{opacity:0.9;isolation:isolate;}.e{clip-path:url(#a);}.f{clip-path:url(#b);}.g{stroke:#e84e1b;}.g,.h{stroke-miterlimit:10;}.h{stroke:#f29100;}.i{clip-path:url(#c);}.j{fill:#f8b133;}.k{clip-path:url(#f);}.l{fill:#f29100;}.m{clip-path:url(#i);}.n{clip-path:url(#l);}.o{clip-path:url(#o);}.p{clip-path:url(#q);}.q{clip-path:url(#s);}.r{clip-path:url(#v);}.s{clip-path:url(#y);}.t{clip-path:url(#ab);}.u{clip-path:url(#ae);}.v{clip-path:url(#ah);}.w{clip-path:url(#ak);}.x{clip-path:url(#an);}.y{clip-path:url(#aq);}.z{clip-path:url(#at);}.aa{clip-path:url(#aw);}.ab{clip-path:url(#az);}.ac{clip-path:url(#bc);}.ad{clip-path:url(#bf);}.ae{clip-path:url(#bh);}.af{clip-path:url(#bk);}.ag{clip-path:url(#bn);}.ah{clip-path:url(#bp);}.ai{clip-path:url(#bs);}.aj{clip-path:url(#bv);}.ak{clip-path:url(#bw);}.al{clip-path:url(#bx);}.am{clip-path:url(#by);}.an{clip-path:url(#bz);}.ao{clip-path:url(#ca);}.ap{clip-path:url(#cc);}.aq{clip-path:url(#cd);}.ar{clip-path:url(#ce);}.as{clip-path:url(#ch);}.at{clip-path:url(#ck);}.au{clip-path:url(#cn);}.av{clip-path:url(#cq);}.aw{clip-path:url(#ct);}.ax{clip-path:url(#cw);}.ay{clip-path:url(#cz);}.az{clip-path:url(#dc);}.ba{clip-path:url(#df);}.bb{clip-path:url(#di);}.bc{clip-path:url(#dl);}.bd{clip-path:url(#do);}.be{clip-path:url(#dr);}.bf{clip-path:url(#du);}.bg{clip-path:url(#dx);}.bh{clip-path:url(#ea);}.bi{clip-path:url(#ed);}.bj{clip-path:url(#ef);}.bk{clip-path:url(#eh);}.bl{clip-path:url(#ek);}.bm{clip-path:url(#en);}.bn{clip-path:url(#eq);}.bo{clip-path:url(#et);}.bp{clip-path:url(#ew);}.bq{clip-path:url(#ez);}.br{clip-path:url(#fb);}.bs{clip-path:url(#fd);}.bt{clip-path:url(#ff);}.bu{clip-path:url(#fi);}.bv{clip-path:url(#fj);}.bw{clip-path:url(#fk);}.bx{clip-path:url(#fl);}.by{clip-path:url(#fm);}.bz{clip-path:url(#fn);}.ca{clip-path:url(#fo);}</style><clipPath id="a"><rect class="a" x="304.33" y="-56.29" width="407" height="709"/></clipPath><clipPath id="b"><rect class="a" x="308.33" y="-51.29" width="398" height="700"/></clipPath><clipPath id="c"><polygon class="a" points="591.16 -1.5 591.16 -17.75 577.16 -25.88 563.16 -17.75 563.16 -1.5 577.16 6.63 591.16 -1.5"/></clipPath><clipPath id="f"><polygon class="a" points="619.39 -1.5 619.39 -17.75 605.39 -25.88 591.39 -17.75 591.39 -1.5 605.39 6.63 619.39 -1.5"/></clipPath><clipPath id="i"><polygon class="a" points="492.76 23.23 492.76 6.98 478.77 -1.14 464.77 6.98 464.77 23.23 478.77 31.36 492.76 23.23"/></clipPath><clipPath id="l"><polygon class="a" points="605.36 23.19 605.36 6.94 591.36 -1.18 577.36 6.94 577.36 23.19 591.36 31.32 605.36 23.19"/></clipPath><clipPath id="o"><polygon class="a" points="633.59 23.07 633.59 6.82 619.59 -1.31 605.59 6.82 605.59 23.07 619.59 31.19 633.59 23.07"/></clipPath><clipPath id="q"><polygon class="a" points="690.22 72.11 690.22 55.86 676.22 47.74 662.23 55.86 662.23 72.11 676.22 80.24 690.22 72.11"/></clipPath><clipPath id="s"><polygon class="a" points="422.27 47.92 422.27 31.67 408.27 23.55 394.27 31.67 394.27 47.92 408.27 56.05 422.27 47.92"/></clipPath><clipPath id="v"><polygon class="a" points="450.5 47.92 450.5 31.67 436.5 23.55 422.5 31.67 422.5 47.92 436.5 56.05 450.5 47.92"/></clipPath><clipPath id="y"><polygon class="a" points="478.4 47.92 478.4 31.67 464.4 23.55 450.4 31.67 450.4 47.92 464.4 56.05 478.4 47.92"/></clipPath><clipPath id="ab"><polygon class="a" points="535.15 146.23 535.15 129.98 521.15 121.85 507.16 129.98 507.16 146.23 521.15 154.35 535.15 146.23"/></clipPath><clipPath id="ae"><polygon class="a" points="408.4 121.66 408.4 105.41 394.4 97.29 380.41 105.41 380.41 121.66 394.4 129.79 408.4 121.66"/></clipPath><clipPath id="ah"><polygon class="a" points="605.69 220.22 605.69 203.97 591.69 195.84 577.7 203.97 577.7 220.22 591.69 228.34 605.69 220.22"/></clipPath><clipPath id="ak"><polygon class="a" points="591.66 244.91 591.66 228.66 577.66 220.53 563.66 228.66 563.66 244.91 577.66 253.03 591.66 244.91"/></clipPath><clipPath id="an"><polygon class="a" points="619.89 244.78 619.89 228.53 605.89 220.41 591.9 228.53 591.9 244.78 605.89 252.91 619.89 244.78"/></clipPath><clipPath id="aq"><polygon class="a" points="381.17 318.77 381.17 302.52 367.18 294.4 353.18 302.52 353.18 318.77 367.18 326.9 381.17 318.77"/></clipPath><clipPath id="at"><polygon class="a" points="578.13 318.81 578.13 302.56 564.13 294.44 550.13 302.56 550.13 318.81 564.13 326.94 578.13 318.81"/></clipPath><clipPath id="aw"><polygon class="a" points="606.02 269.6 606.02 253.35 592.03 245.22 578.03 253.35 578.03 269.6 592.03 277.72 606.02 269.6"/></clipPath><clipPath id="az"><polygon class="a" points="409.4 367.9 409.4 351.65 395.41 343.53 381.41 351.65 381.41 367.9 395.41 376.03 409.4 367.9"/></clipPath><clipPath id="bc"><polygon class="a" points="620.56 392.59 620.56 376.34 606.56 368.22 592.56 376.34 592.56 392.59 606.56 400.72 620.56 392.59"/></clipPath><clipPath id="bf"><polygon class="a" points="677.19 392.42 677.19 376.17 663.19 368.05 649.2 376.17 649.2 392.42 663.19 400.55 677.19 392.42"/></clipPath><clipPath id="bh"><polygon class="a" points="395.04 343.38 395.04 327.13 381.04 319 367.04 327.13 367.04 343.38 381.04 351.5 395.04 343.38"/></clipPath><clipPath id="bk"><polygon class="a" points="466.2 466.66 466.2 450.42 452.2 442.29 438.21 450.42 438.21 466.66 452.2 474.79 466.2 466.66"/></clipPath><clipPath id="bn"><polygon class="a" points="662.82 417.28 662.82 401.03 648.83 392.91 634.83 401.03 634.83 417.28 648.83 425.41 662.82 417.28"/></clipPath><clipPath id="bp"><polygon class="a" points="549.89 564.88 549.89 548.63 535.9 540.51 521.9 548.63 521.9 564.88 535.9 573.01 549.89 564.88"/></clipPath><clipPath id="bs"><polygon class="a" points="606.36 565.05 606.36 548.8 592.36 540.68 578.37 548.8 578.37 565.05 592.36 573.18 606.36 565.05"/></clipPath><clipPath id="bv"><polygon class="a" points="381.17 614.22 381.17 597.97 367.18 589.85 353.18 597.97 353.18 614.22 367.18 622.35 381.17 614.22"/></clipPath><clipPath id="bw"><polygon class="a" points="691.22 613.97 691.22 597.72 677.22 589.6 663.23 597.72 663.23 613.97 677.22 622.1 691.22 613.97"/></clipPath><clipPath id="bx"><polygon class="a" points="648.79 638.83 648.79 622.58 634.79 614.46 620.8 622.58 620.8 638.83 634.79 646.96 648.79 638.83"/></clipPath><clipPath id="by"><polygon class="a" points="620.22 589.62 620.22 573.37 606.23 565.24 592.23 573.37 592.23 589.62 606.23 597.74 620.22 589.62"/></clipPath><clipPath id="bz"><polygon class="a" points="676.85 589.45 676.85 573.2 662.86 565.07 648.86 573.2 648.86 589.45 662.86 597.57 676.85 589.45"/></clipPath><clipPath id="ca"><polygon class="a" points="704.59 589.45 704.59 573.2 690.59 565.07 676.59 573.2 676.59 589.45 690.59 597.57 704.59 589.45"/></clipPath><clipPath id="cc"><rect class="a" x="-75.77" y="-55.54" width="421" height="709"/></clipPath><clipPath id="cd"><rect class="a" x="-70.77" y="-50.54" width="411" height="699"/></clipPath><clipPath id="ce"><polygon class="a" points="197.15 -0.45 197.15 -16.69 183.15 -24.82 169.15 -16.69 169.15 -0.45 183.15 7.67 197.15 -0.45"/></clipPath><clipPath id="ch"><polygon class="a" points="225.38 -0.45 225.38 -16.69 211.38 -24.82 197.39 -16.69 197.39 -0.45 211.38 7.67 225.38 -0.45"/></clipPath><clipPath id="ck"><polygon class="a" points="98.75 24.27 98.75 8.03 84.75 -0.09 70.76 8.03 70.76 24.27 84.75 32.39 98.75 24.27"/></clipPath><clipPath id="cn"><polygon class="a" points="183.11 24.23 183.11 7.99 169.12 -0.14 155.12 7.99 155.12 24.23 169.12 32.35 183.11 24.23"/></clipPath><clipPath id="cq"><polygon class="a" points="211.34 24.23 211.34 7.99 197.35 -0.14 183.35 7.99 183.35 24.23 197.35 32.35 211.34 24.23"/></clipPath><clipPath id="ct"><polygon class="a" points="239.58 24.1 239.58 7.86 225.58 -0.26 211.58 7.86 211.58 24.1 225.58 32.22 239.58 24.1"/></clipPath><clipPath id="cw"><polygon class="a" points="296.21 73.12 296.21 56.88 282.21 48.76 268.21 56.88 268.21 73.12 282.21 81.25 296.21 73.12"/></clipPath><clipPath id="cz"><polygon class="a" points="28.26 48.95 28.26 32.71 14.26 24.59 0.26 32.71 0.26 48.95 14.26 57.07 28.26 48.95"/></clipPath><clipPath id="dc"><polygon class="a" points="56.49 48.95 56.49 32.71 42.49 24.59 28.49 32.71 28.49 48.95 42.49 57.07 56.49 48.95"/></clipPath><clipPath id="df"><polygon class="a" points="84.39 48.95 84.39 32.71 70.39 24.59 56.39 32.71 56.39 48.95 70.39 57.07 84.39 48.95"/></clipPath><clipPath id="di"><polygon class="a" points="196.98 48.91 196.98 32.67 182.98 24.54 168.99 32.67 168.99 48.91 182.98 57.03 196.98 48.91"/></clipPath><clipPath id="dl"><polygon class="a" points="225.21 48.78 225.21 32.54 211.21 24.42 197.22 32.54 197.22 48.78 211.21 56.9 225.21 48.78"/></clipPath><clipPath id="do"><polygon class="a" points="14.39 122.65 14.39 106.41 0.39 98.29 -13.6 106.41 -13.6 122.65 0.39 130.77 14.39 122.65"/></clipPath><clipPath id="dr"><polygon class="a" points="183.45 221.16 183.45 204.92 169.45 196.79 155.45 204.92 155.45 221.16 169.45 229.28 183.45 221.16"/></clipPath><clipPath id="du"><polygon class="a" points="141.18 245.67 141.18 229.43 127.19 221.31 113.19 229.43 113.19 245.67 127.19 253.79 141.18 245.67"/></clipPath><clipPath id="dx"><polygon class="a" points="169.41 245.84 169.41 229.6 155.42 221.47 141.42 229.6 141.42 245.84 155.42 253.96 169.41 245.84"/></clipPath><clipPath id="ea"><polygon class="a" points="197.65 245.84 197.65 229.6 183.65 221.47 169.65 229.6 169.65 245.84 183.65 253.96 197.65 245.84"/></clipPath><clipPath id="ed"><polygon class="a" points="-12.84 319.67 -12.84 303.42 -26.84 295.3 -40.83 303.42 -40.83 319.67 -26.84 327.79 -12.84 319.67"/></clipPath><clipPath id="ef"><polygon class="a" points="155.55 270.35 155.55 254.11 141.55 245.98 127.56 254.11 127.56 270.35 141.55 278.47 155.55 270.35"/></clipPath><clipPath id="eh"><polygon class="a" points="183.78 270.52 183.78 254.27 169.78 246.15 155.79 254.27 155.79 270.52 169.78 278.64 183.78 270.52"/></clipPath><clipPath id="ek"><polygon class="a" points="15.39 368.77 15.39 352.53 1.4 344.41 -12.6 352.53 -12.6 368.77 1.4 376.89 15.39 368.77"/></clipPath><clipPath id="en"><polygon class="a" points="226.55 393.45 226.55 377.21 212.55 369.09 198.55 377.21 198.55 393.45 212.55 401.57 226.55 393.45"/></clipPath><clipPath id="eq"><polygon class="a" points="283.18 393.28 283.18 377.04 269.18 368.92 255.19 377.04 255.19 393.28 269.18 401.4 283.18 393.28"/></clipPath><clipPath id="et"><polygon class="a" points="1.03 344.26 1.03 328.02 -12.97 319.9 -26.97 328.02 -26.97 344.26 -12.97 352.38 1.03 344.26"/></clipPath><clipPath id="ew"><polygon class="a" points="268.81 418.13 268.81 401.89 254.82 393.77 240.82 401.89 240.82 418.13 254.82 426.25 268.81 418.13"/></clipPath><clipPath id="ez"><polygon class="a" points="-26.87 492.08 -26.87 475.84 -40.87 467.72 -54.87 475.84 -54.87 492.08 -40.87 500.21 -26.87 492.08"/></clipPath><clipPath id="fb"><polygon class="a" points="155.88 565.66 155.88 549.42 141.89 541.3 127.89 549.42 127.89 565.66 141.89 573.78 155.88 565.66"/></clipPath><clipPath id="fd"><polygon class="a" points="184.12 565.83 184.12 549.59 170.12 541.46 156.12 549.59 156.12 565.83 170.12 573.95 184.12 565.83"/></clipPath><clipPath id="ff"><polygon class="a" points="212.35 565.83 212.35 549.59 198.35 541.46 184.35 549.59 184.35 565.83 198.35 573.95 212.35 565.83"/></clipPath><clipPath id="fi"><polygon class="a" points="-12.84 614.98 -12.84 598.73 -26.84 590.61 -40.83 598.73 -40.83 614.98 -26.84 623.1 -12.84 614.98"/></clipPath><clipPath id="fj"><polygon class="a" points="155.88 614.85 155.88 598.61 141.89 590.49 127.89 598.61 127.89 614.85 141.89 622.97 155.88 614.85"/></clipPath><clipPath id="fk"><polygon class="a" points="184.12 615.02 184.12 598.78 170.12 590.65 156.12 598.78 156.12 615.02 170.12 623.14 184.12 615.02"/></clipPath><clipPath id="fl"><polygon class="a" points="297.21 614.72 297.21 598.48 283.21 590.36 269.22 598.48 269.22 614.72 283.21 622.85 297.21 614.72"/></clipPath><clipPath id="fm"><polygon class="a" points="254.78 639.57 254.78 623.33 240.78 615.21 226.79 623.33 226.79 639.57 240.78 647.69 254.78 639.57"/></clipPath><clipPath id="fn"><polygon class="a" points="226.21 590.38 226.21 574.14 212.22 566.02 198.22 574.14 198.22 590.38 212.22 598.5 226.21 590.38"/></clipPath><clipPath id="fo"><polygon class="a" points="282.84 590.21 282.84 573.97 268.85 565.85 254.85 573.97 254.85 590.21 268.85 598.33 282.84 590.21"/></clipPath></defs><title>bg-main-square-wax</title><rect class="b" x="-53.6" y="-27.67" width="706" height="680"/><g class="c"><g class="d"><g class="e"><g class="f"><polygon class="g" points="450.67 -1.46 450.67 -17.71 436.67 -25.83 422.67 -17.71 422.67 -1.46 436.67 6.67 450.67 -1.46"/><polygon class="h" points="478.9 -1.46 478.9 -17.71 464.9 -25.83 450.9 -17.71 450.9 -1.46 464.9 6.67 478.9 -1.46"/><polygon class="h" points="506.79 -1.46 506.79 -17.71 492.8 -25.83 478.8 -17.71 478.8 -1.46 492.8 6.67 506.79 -1.46"/><polygon class="h" points="534.82 -1.58 534.82 -17.83 520.82 -25.96 506.83 -17.83 506.83 -1.58 520.82 6.54 534.82 -1.58"/><polygon class="h" points="562.92 -1.67 562.92 -17.92 548.93 -26.04 534.93 -17.92 534.93 -1.67 548.93 6.46 562.92 -1.67"/></g><g class="i"><g class="f"><rect class="j" x="558.16" y="-30.88" width="38" height="42.51"/></g></g><g class="f"><polygon class="h" points="591.16 -1.5 591.16 -17.75 577.16 -25.88 563.16 -17.75 563.16 -1.5 577.16 6.63 591.16 -1.5"/></g><g class="k"><g class="f"><rect class="l" x="586.39" y="-30.88" width="38" height="42.51"/></g></g><g class="f"><polygon class="g" points="619.39 -1.5 619.39 -17.75 605.39 -25.88 591.39 -17.75 591.39 -1.5 605.39 6.63 619.39 -1.5"/><polygon class="h" points="464.87 23.23 464.87 6.98 450.87 -1.14 436.87 6.98 436.87 23.23 450.87 31.36 464.87 23.23"/></g><g class="m"><g class="f"><rect class="j" x="459.77" y="-6.14" width="37.99" height="42.5"/></g></g><g class="f"><polygon class="h" points="492.76 23.23 492.76 6.98 478.77 -1.14 464.77 6.98 464.77 23.23 478.77 31.36 492.76 23.23"/><polygon class="h" points="520.78 23.11 520.78 6.86 506.79 -1.27 492.79 6.86 492.79 23.11 506.79 31.23 520.78 23.11"/><polygon class="h" points="548.89 23.02 548.89 6.77 534.89 -1.35 520.9 6.77 520.9 23.02 534.89 31.15 548.89 23.02"/><polygon class="h" points="577.12 23.19 577.12 6.94 563.13 -1.18 549.13 6.94 549.13 23.19 563.13 31.32 577.12 23.19"/></g><g class="n"><g class="f"><rect class="j" x="572.36" y="-6.18" width="38" height="42.5"/></g></g><g class="f"><polygon class="h" points="605.36 23.19 605.36 6.94 591.36 -1.18 577.36 6.94 577.36 23.19 591.36 31.32 605.36 23.19"/></g><g class="f"><polygon class="g" points="351.77 72.62 351.77 56.37 337.77 48.24 323.78 56.37 323.78 72.62 337.77 80.74 351.77 72.62"/><polygon class="g" points="380.17 72.36 380.17 56.11 366.17 47.99 352.18 56.11 352.18 72.36 366.17 80.49 380.17 72.36"/><polygon class="g" points="408.4 72.28 408.4 56.03 394.4 47.9 380.41 56.03 380.41 72.28 394.4 80.41 408.4 72.28"/><polygon class="g" points="436.63 72.45 436.63 56.2 422.64 48.07 408.64 56.2 408.64 72.45 422.64 80.57 436.63 72.45"/><polygon class="h" points="464.87 72.45 464.87 56.2 450.87 48.07 436.87 56.2 436.87 72.45 450.87 80.57 464.87 72.45"/><polygon class="h" points="492.76 72.45 492.76 56.2 478.77 48.07 464.77 56.2 464.77 72.45 478.77 80.57 492.76 72.45"/><polygon class="h" points="520.78 72.32 520.78 56.07 506.79 47.95 492.79 56.07 492.79 72.32 506.79 80.45 520.78 72.32"/><polygon class="h" points="548.89 72.24 548.89 55.99 534.89 47.86 520.9 55.99 520.9 72.24 534.89 80.36 548.89 72.24"/><polygon class="h" points="577.12 72.41 577.12 56.16 563.13 48.03 549.13 56.16 549.13 72.41 563.13 80.53 577.12 72.41"/><polygon class="h" points="605.36 72.41 605.36 56.16 591.36 48.03 577.36 56.16 577.36 72.41 591.36 80.53 605.36 72.41"/></g><g class="f"><polygon class="g" points="337.74 97.31 337.74 81.06 323.74 72.93 309.75 81.06 309.75 97.31 323.74 105.43 337.74 97.31"/><polygon class="g" points="366.14 97.05 366.14 80.8 352.14 72.68 338.14 80.8 338.14 97.05 352.14 105.18 366.14 97.05"/><polygon class="g" points="394.37 96.97 394.37 80.72 380.37 72.6 366.38 80.72 366.38 96.97 380.37 105.1 394.37 96.97"/><polygon class="g" points="422.6 97.14 422.6 80.89 408.6 72.76 394.61 80.89 394.61 97.14 408.6 105.26 422.6 97.14"/><polygon class="g" points="450.83 97.14 450.83 80.89 436.84 72.76 422.84 80.89 422.84 97.14 436.84 105.26 450.83 97.14"/><polygon class="h" points="478.73 97.14 478.73 80.89 464.73 72.76 450.74 80.89 450.74 97.14 464.73 105.26 478.73 97.14"/><polygon class="h" points="506.75 97.01 506.75 80.76 492.76 72.64 478.76 80.76 478.76 97.01 492.76 105.14 506.75 97.01"/><polygon class="h" points="534.86 96.93 534.86 80.68 520.86 72.55 506.87 80.68 506.87 96.93 520.86 105.05 534.86 96.93"/><polygon class="g" points="563.09 97.1 563.09 80.85 549.1 72.72 535.1 80.85 535.1 97.1 549.1 105.22 563.09 97.1"/><polygon class="g" points="591.32 97.1 591.32 80.85 577.33 72.72 563.33 80.85 563.33 97.1 577.33 105.22 591.32 97.1"/><polygon class="g" points="619.55 96.97 619.55 80.72 605.56 72.6 591.56 80.72 591.56 96.97 605.56 105.1 619.55 96.97"/><polygon class="g" points="337.4 48.09 337.4 31.84 323.41 23.72 309.41 31.84 309.41 48.09 323.41 56.22 337.4 48.09"/></g><g class="q"><g class="f"><rect class="l" x="389.27" y="18.55" width="38" height="42.5"/></g></g><g class="f"><polygon class="g" points="422.27 47.92 422.27 31.67 408.27 23.55 394.27 31.67 394.27 47.92 408.27 56.05 422.27 47.92"/></g><g class="r"><g class="f"><rect class="j" x="417.5" y="18.55" width="38" height="42.5"/></g></g><g class="f"><polygon class="g" points="450.5 47.92 450.5 31.67 436.5 23.55 422.5 31.67 422.5 47.92 436.5 56.05 450.5 47.92"/></g><g class="s"><g class="f"><rect class="j" x="445.4" y="18.55" width="38" height="42.5"/></g></g><g class="f"><polygon class="h" points="478.4 47.92 478.4 31.67 464.4 23.55 450.4 31.67 450.4 47.92 464.4 56.05 478.4 47.92"/><polygon class="h" points="506.42 47.8 506.42 31.55 492.42 23.42 478.43 31.55 478.43 47.8 492.42 55.92 506.42 47.8"/><polygon class="h" points="534.52 47.71 534.52 31.46 520.53 23.34 506.53 31.46 506.53 47.71 520.53 55.84 534.52 47.71"/><polygon class="h" points="562.76 47.88 562.76 31.63 548.76 23.51 534.76 31.63 534.76 47.88 548.76 56.01 562.76 47.88"/><polygon class="h" points="590.99 47.88 590.99 31.63 576.99 23.51 563 31.63 563 47.88 576.99 56.01 590.99 47.88"/><polygon class="h" points="619.22 47.76 619.22 31.51 605.22 23.38 591.23 31.51 591.23 47.76 605.22 55.88 619.22 47.76"/><polygon class="g" points="366.14 146.52 366.14 130.27 352.14 122.15 338.14 130.27 338.14 146.52 352.14 154.65 366.14 146.52"/><polygon class="g" points="394.54 146.27 394.54 130.02 380.54 121.89 366.54 130.02 366.54 146.27 380.54 154.39 394.54 146.27"/><polygon class="g" points="422.77 146.19 422.77 129.94 408.77 121.81 394.77 129.94 394.77 146.19 408.77 154.31 422.77 146.19"/><polygon class="g" points="451 146.35 451 130.1 437 121.98 423.01 130.1 423.01 146.35 437 154.48 451 146.35"/><polygon class="h" points="479.23 146.35 479.23 130.1 465.24 121.98 451.24 130.1 451.24 146.35 465.24 154.48 479.23 146.35"/><polygon class="h" points="507.13 146.35 507.13 130.1 493.13 121.98 479.14 130.1 479.14 146.35 493.13 154.48 507.13 146.35"/></g><g class="t"><g class="f"><rect class="j" x="502.16" y="116.85" width="37.99" height="42.5"/></g></g><g class="f"><polygon class="h" points="535.15 146.23 535.15 129.98 521.15 121.85 507.16 129.98 507.16 146.23 521.15 154.35 535.15 146.23"/><polygon class="g" points="563.26 146.14 563.26 129.89 549.26 121.77 535.26 129.89 535.26 146.14 549.26 154.27 563.26 146.14"/><polygon class="g" points="591.49 146.31 591.49 130.06 577.49 121.94 563.5 130.06 563.5 146.31 577.49 154.44 591.49 146.31"/><polygon class="g" points="619.72 146.31 619.72 130.06 605.73 121.94 591.73 130.06 591.73 146.31 605.73 154.44 619.72 146.31"/><polygon class="g" points="352.1 171.21 352.1 154.96 338.11 146.84 324.11 154.96 324.11 171.21 338.11 179.34 352.1 171.21"/><polygon class="g" points="380.5 170.96 380.5 154.71 366.51 146.58 352.51 154.71 352.51 170.96 366.51 179.08 380.5 170.96"/><polygon class="g" points="408.74 170.88 408.74 154.63 394.74 146.5 380.74 154.63 380.74 170.88 394.74 179 408.74 170.88"/><polygon class="g" points="436.97 171.04 436.97 154.79 422.97 146.67 408.97 154.79 408.97 171.04 422.97 179.17 436.97 171.04"/><polygon class="h" points="465.2 171.04 465.2 154.79 451.2 146.67 437.21 154.79 437.21 171.04 451.2 179.17 465.2 171.04"/><polygon class="h" points="493.1 171.04 493.1 154.79 479.1 146.67 465.1 154.79 465.1 171.04 479.1 179.17 493.1 171.04"/><polygon class="h" points="521.12 170.92 521.12 154.67 507.12 146.54 493.13 154.67 493.13 170.92 507.12 179.04 521.12 170.92"/><polygon class="h" points="549.23 170.83 549.23 154.58 535.23 146.46 521.23 154.58 521.23 170.83 535.23 178.96 549.23 170.83"/><polygon class="h" points="577.46 171 577.46 154.75 563.46 146.63 549.47 154.75 549.47 171 563.46 179.13 577.46 171"/><polygon class="h" points="605.69 171 605.69 154.75 591.69 146.63 577.7 154.75 577.7 171 591.69 179.13 605.69 171"/><polygon class="g" points="351.77 122 351.77 105.75 337.77 97.62 323.78 105.75 323.78 122 337.77 130.12 351.77 122"/><polygon class="g" points="380.17 121.75 380.17 105.5 366.17 97.37 352.18 105.5 352.18 121.75 366.17 129.87 380.17 121.75"/></g><g class="u"><g class="f"><rect class="l" x="375.41" y="92.29" width="37.99" height="42.5"/></g></g><g class="f"><polygon class="g" points="408.4 121.66 408.4 105.41 394.4 97.29 380.41 105.41 380.41 121.66 394.4 129.79 408.4 121.66"/><polygon class="g" points="436.63 121.83 436.63 105.58 422.64 97.45 408.64 105.58 408.64 121.83 422.64 129.95 436.63 121.83"/><polygon class="h" points="464.87 121.83 464.87 105.58 450.87 97.45 436.87 105.58 436.87 121.83 450.87 129.95 464.87 121.83"/><polygon class="h" points="492.76 121.83 492.76 105.58 478.77 97.45 464.77 105.58 464.77 121.83 478.77 129.95 492.76 121.83"/><polygon class="h" points="520.78 121.7 520.78 105.45 506.79 97.33 492.79 105.45 492.79 121.7 506.79 129.83 520.78 121.7"/><polygon class="h" points="548.89 121.62 548.89 105.37 534.89 97.24 520.9 105.37 520.9 121.62 534.89 129.74 548.89 121.62"/><polygon class="g" points="577.12 121.79 577.12 105.54 563.13 97.41 549.13 105.54 549.13 121.79 563.13 129.91 577.12 121.79"/><polygon class="g" points="605.36 121.79 605.36 105.54 591.36 97.41 577.36 105.54 577.36 121.79 591.36 129.91 605.36 121.79"/><polygon class="h" points="352.1 220.43 352.1 204.18 338.11 196.05 324.11 204.18 324.11 220.43 338.11 228.55 352.1 220.43"/><polygon class="h" points="380.5 220.17 380.5 203.92 366.51 195.8 352.51 203.92 352.51 220.17 366.51 228.3 380.5 220.17"/><polygon class="h" points="408.74 220.09 408.74 203.84 394.74 195.72 380.74 203.84 380.74 220.09 394.74 228.22 408.74 220.09"/><polygon class="h" points="436.97 220.26 436.97 204.01 422.97 195.88 408.97 204.01 408.97 220.26 422.97 228.38 436.97 220.26"/><polygon class="h" points="465.2 220.26 465.2 204.01 451.2 195.88 437.21 204.01 437.21 220.26 451.2 228.38 465.2 220.26"/><polygon class="h" points="493.1 220.26 493.1 204.01 479.1 195.88 465.1 204.01 465.1 220.26 479.1 228.38 493.1 220.26"/><polygon class="g" points="521.12 220.13 521.12 203.88 507.12 195.76 493.13 203.88 493.13 220.13 507.12 228.26 521.12 220.13"/><polygon class="g" points="549.23 220.05 549.23 203.8 535.23 195.67 521.23 203.8 521.23 220.05 535.23 228.17 549.23 220.05"/><polygon class="g" points="577.46 220.22 577.46 203.97 563.46 195.84 549.47 203.97 549.47 220.22 563.46 228.34 577.46 220.22"/></g><g class="v"><g class="f"><rect class="j" x="572.7" y="190.84" width="37.99" height="42.5"/></g></g><g class="f"><polygon class="g" points="605.69 220.22 605.69 203.97 591.69 195.84 577.7 203.97 577.7 220.22 591.69 228.34 605.69 220.22"/><polygon class="h" points="338.07 245.12 338.07 228.87 324.07 220.74 310.08 228.87 310.08 245.12 324.07 253.24 338.07 245.12"/><polygon class="h" points="366.47 244.87 366.47 228.61 352.47 220.49 338.48 228.61 338.48 244.87 352.47 252.99 366.47 244.87"/><polygon class="h" points="394.7 244.78 394.7 228.53 380.71 220.41 366.71 228.53 366.71 244.78 380.71 252.91 394.7 244.78"/><polygon class="h" points="422.93 244.95 422.93 228.7 408.94 220.57 394.94 228.7 394.94 244.95 408.94 253.08 422.93 244.95"/><polygon class="h" points="451.17 244.95 451.17 228.7 437.17 220.57 423.17 228.7 423.17 244.95 437.17 253.08 451.17 244.95"/><polygon class="h" points="479.06 244.95 479.06 228.7 465.07 220.57 451.07 228.7 451.07 244.95 465.07 253.08 479.06 244.95"/><polygon class="h" points="507.09 244.82 507.09 228.57 493.09 220.45 479.09 228.57 479.09 244.82 493.09 252.95 507.09 244.82"/><polygon class="g" points="535.19 244.74 535.19 228.49 521.2 220.36 507.2 228.49 507.2 244.74 521.2 252.86 535.19 244.74"/><polygon class="g" points="563.43 244.91 563.43 228.66 549.43 220.53 535.43 228.66 535.43 244.91 549.43 253.03 563.43 244.91"/></g><g class="w"><g class="f"><rect class="l" x="558.66" y="215.53" width="38" height="42.5"/></g></g><g class="f"><polygon class="g" points="591.66 244.91 591.66 228.66 577.66 220.53 563.66 228.66 563.66 244.91 577.66 253.03 591.66 244.91"/></g><g class="x"><g class="f"><rect class="j" x="586.9" y="215.41" width="37.99" height="42.5"/></g></g><g class="f"><polygon class="g" points="619.89 244.78 619.89 228.53 605.89 220.41 591.9 228.53 591.9 244.78 605.89 252.91 619.89 244.78"/><polygon class="g" points="337.74 195.9 337.74 179.65 323.74 171.53 309.75 179.65 309.75 195.9 323.74 204.03 337.74 195.9"/><polygon class="g" points="366.14 195.65 366.14 179.4 352.14 171.28 338.14 179.4 338.14 195.65 352.14 203.78 366.14 195.65"/><polygon class="g" points="394.37 195.57 394.37 179.32 380.37 171.19 366.38 179.32 366.38 195.57 380.37 203.69 394.37 195.57"/><polygon class="g" points="422.6 195.73 422.6 179.48 408.6 171.36 394.61 179.48 394.61 195.73 408.6 203.86 422.6 195.73"/><polygon class="g" points="450.83 195.73 450.83 179.48 436.84 171.36 422.84 179.48 422.84 195.73 436.84 203.86 450.83 195.73"/><polygon class="h" points="478.73 195.73 478.73 179.48 464.73 171.36 450.74 179.48 450.74 195.73 464.73 203.86 478.73 195.73"/><polygon class="h" points="506.75 195.61 506.75 179.36 492.76 171.23 478.76 179.36 478.76 195.61 492.76 203.73 506.75 195.61"/><polygon class="h" points="534.86 195.52 534.86 179.27 520.86 171.15 506.87 179.27 506.87 195.52 520.86 203.65 534.86 195.52"/><polygon class="h" points="563.09 195.69 563.09 179.44 549.1 171.32 535.1 179.44 535.1 195.69 549.1 203.82 563.09 195.69"/><polygon class="h" points="591.32 195.69 591.32 179.44 577.33 171.32 563.33 179.44 563.33 195.69 577.33 203.82 591.32 195.69"/><polygon class="h" points="619.55 195.57 619.55 179.32 605.56 171.19 591.56 179.32 591.56 195.57 605.56 203.69 619.55 195.57"/><polygon class="h" points="366.81 294.33 366.81 278.08 352.81 269.96 338.81 278.08 338.81 294.33 352.81 302.46 366.81 294.33"/><polygon class="h" points="395.2 294.08 395.2 277.83 381.21 269.7 367.21 277.83 367.21 294.08 381.21 302.21 395.2 294.08"/><polygon class="h" points="423.44 294 423.44 277.75 409.44 269.62 395.44 277.75 395.44 294 409.44 302.12 423.44 294"/><polygon class="h" points="451.67 294.16 451.67 277.91 437.67 269.79 423.67 277.91 423.67 294.16 437.67 302.29 451.67 294.16"/><polygon class="h" points="479.9 294.16 479.9 277.91 465.9 269.79 451.91 277.91 451.91 294.16 465.9 302.29 479.9 294.16"/><polygon class="h" points="507.8 294.16 507.8 277.91 493.8 269.79 479.8 277.91 479.8 294.16 493.8 302.29 507.8 294.16"/><polygon class="h" points="535.82 294.04 535.82 277.79 521.82 269.66 507.83 277.79 507.83 294.04 521.82 302.16 535.82 294.04"/><polygon class="h" points="563.93 293.95 563.93 277.7 549.93 269.58 535.93 277.7 535.93 293.95 549.93 302.08 563.93 293.95"/><polygon class="h" points="592.16 294.12 592.16 277.87 578.16 269.75 564.16 277.87 564.16 294.12 578.16 302.25 592.16 294.12"/><polygon class="h" points="620.39 294.12 620.39 277.87 606.39 269.75 592.4 277.87 592.4 294.12 606.39 302.25 620.39 294.12"/><polygon class="h" points="352.77 319.02 352.77 302.77 338.78 294.65 324.78 302.77 324.78 319.02 338.78 327.15 352.77 319.02"/></g><g class="y"><g class="f"><rect class="j" x="348.18" y="289.4" width="37.99" height="42.5"/></g></g><g class="f"><polygon class="h" points="381.17 318.77 381.17 302.52 367.18 294.4 353.18 302.52 353.18 318.77 367.18 326.9 381.17 318.77"/><polygon class="h" points="409.4 318.69 409.4 302.44 395.41 294.31 381.41 302.44 381.41 318.69 395.41 326.81 409.4 318.69"/><polygon class="h" points="437.63 318.86 437.63 302.61 423.64 294.48 409.64 302.61 409.64 318.86 423.64 326.98 437.63 318.86"/><polygon class="h" points="465.87 318.86 465.87 302.61 451.87 294.48 437.87 302.61 437.87 318.86 451.87 326.98 465.87 318.86"/><polygon class="h" points="493.76 318.86 493.76 302.61 479.77 294.48 465.77 302.61 465.77 318.86 479.77 326.98 493.76 318.86"/><polygon class="h" points="521.79 318.73 521.79 302.48 507.79 294.35 493.79 302.48 493.79 318.73 507.79 326.85 521.79 318.73"/><polygon class="h" points="549.89 318.65 549.89 302.4 535.9 294.27 521.9 302.4 521.9 318.65 535.9 326.77 549.89 318.65"/></g><g class="z"><g class="f"><rect class="l" x="545.13" y="289.44" width="38" height="42.5"/></g></g><g class="f"><polygon class="h" points="578.13 318.81 578.13 302.56 564.13 294.44 550.13 302.56 550.13 318.81 564.13 326.94 578.13 318.81"/><polygon class="h" points="606.36 318.81 606.36 302.56 592.36 294.44 578.37 302.56 578.37 318.81 592.36 326.94 606.36 318.81"/><polygon class="h" points="352.44 269.81 352.44 253.56 338.44 245.43 324.44 253.56 324.44 269.81 338.44 277.93 352.44 269.81"/><polygon class="h" points="380.84 269.56 380.84 253.31 366.84 245.18 352.84 253.31 352.84 269.56 366.84 277.68 380.84 269.56"/><polygon class="h" points="409.07 269.47 409.07 253.22 395.07 245.1 381.08 253.22 381.08 269.47 395.07 277.6 409.07 269.47"/><polygon class="h" points="437.3 269.64 437.3 253.39 423.3 245.27 409.31 253.39 409.31 269.64 423.3 277.77 437.3 269.64"/><polygon class="h" points="465.53 269.64 465.53 253.39 451.54 245.27 437.54 253.39 437.54 269.64 451.54 277.77 465.53 269.64"/><polygon class="h" points="493.43 269.64 493.43 253.39 479.43 245.27 465.44 253.39 465.44 269.64 479.43 277.77 493.43 269.64"/><polygon class="g" points="521.45 269.52 521.45 253.26 507.46 245.14 493.46 253.26 493.46 269.52 507.46 277.64 521.45 269.52"/><polygon class="g" points="549.56 269.43 549.56 253.18 535.56 245.05 521.57 253.18 521.57 269.43 535.56 277.56 549.56 269.43"/><polygon class="g" points="577.79 269.6 577.79 253.35 563.79 245.22 549.8 253.35 549.8 269.6 563.79 277.72 577.79 269.6"/></g><g class="aa"><g class="f"><rect class="l" x="573.03" y="240.22" width="37.99" height="42.5"/></g></g><g class="f"><polygon class="g" points="606.02 269.6 606.02 253.35 592.03 245.22 578.03 253.35 578.03 269.6 592.03 277.72 606.02 269.6"/><polygon class="h" points="352.77 368.24 352.77 351.99 338.78 343.86 324.78 351.99 324.78 368.24 338.78 376.36 352.77 368.24"/><polygon class="h" points="381.17 367.98 381.17 351.73 367.18 343.61 353.18 351.73 353.18 367.98 367.18 376.11 381.17 367.98"/></g><g class="ab"><g class="f"><rect class="j" x="376.41" y="338.53" width="37.99" height="42.5"/></g></g><g class="f"><polygon class="h" points="409.4 367.9 409.4 351.65 395.41 343.53 381.41 351.65 381.41 367.9 395.41 376.03 409.4 367.9"/><polygon class="h" points="437.63 368.07 437.63 351.82 423.64 343.69 409.64 351.82 409.64 368.07 423.64 376.19 437.63 368.07"/><polygon class="h" points="465.87 368.07 465.87 351.82 451.87 343.69 437.87 351.82 437.87 368.07 451.87 376.19 465.87 368.07"/><polygon class="h" points="493.76 368.07 493.76 351.82 479.77 343.69 465.77 351.82 465.77 368.07 479.77 376.19 493.76 368.07"/><polygon class="h" points="521.79 367.94 521.79 351.69 507.79 343.57 493.79 351.69 493.79 367.94 507.79 376.07 521.79 367.94"/><polygon class="h" points="549.89 367.86 549.89 351.61 535.9 343.48 521.9 351.61 521.9 367.86 535.9 375.98 549.89 367.86"/><polygon class="h" points="578.13 368.03 578.13 351.78 564.13 343.65 550.13 351.78 550.13 368.03 564.13 376.15 578.13 368.03"/><polygon class="h" points="606.36 368.03 606.36 351.78 592.36 343.65 578.37 351.78 578.37 368.03 592.36 376.15 606.36 368.03"/><polygon class="h" points="338.74 392.93 338.74 376.68 324.74 368.55 310.75 376.68 310.75 392.93 324.74 401.05 338.74 392.93"/><polygon class="h" points="367.14 392.68 367.14 376.43 353.14 368.3 339.15 376.43 339.15 392.68 353.14 400.8 367.14 392.68"/><polygon class="h" points="395.37 392.59 395.37 376.34 381.37 368.22 367.38 376.34 367.38 392.59 381.37 400.72 395.37 392.59"/><polygon class="h" points="423.6 392.76 423.6 376.51 409.61 368.38 395.61 376.51 395.61 392.76 409.61 400.88 423.6 392.76"/><polygon class="h" points="451.83 392.76 451.83 376.51 437.84 368.38 423.84 376.51 423.84 392.76 437.84 400.88 451.83 392.76"/><polygon class="h" points="479.73 392.76 479.73 376.51 465.74 368.38 451.74 376.51 451.74 392.76 465.74 400.88 479.73 392.76"/><polygon class="h" points="507.75 392.63 507.75 376.38 493.76 368.26 479.76 376.38 479.76 392.63 493.76 400.76 507.75 392.63"/><polygon class="h" points="535.86 392.55 535.86 376.3 521.87 368.17 507.87 376.3 507.87 392.55 521.87 400.67 535.86 392.55"/><polygon class="h" points="564.09 392.72 564.09 376.47 550.1 368.34 536.1 376.47 536.1 392.72 550.1 400.84 564.09 392.72"/><polygon class="h" points="592.33 392.72 592.33 376.47 578.33 368.34 564.33 376.47 564.33 392.72 578.33 400.84 592.33 392.72"/></g><g class="ac"><g class="f"><rect class="j" x="587.56" y="363.22" width="38" height="42.5"/></g></g><g class="f"><polygon class="h" points="620.56 392.59 620.56 376.34 606.56 368.22 592.56 376.34 592.56 392.59 606.56 400.72 620.56 392.59"/></g><g class="f"><polygon class="h" points="338.41 343.71 338.41 327.46 324.41 319.34 310.41 327.46 310.41 343.71 324.41 351.84 338.41 343.71"/><polygon class="h" points="366.81 343.46 366.81 327.21 352.81 319.09 338.81 327.21 338.81 343.46 352.81 351.59 366.81 343.46"/></g><g class="ae"><g class="f"><rect class="j" x="362.04" y="314" width="38" height="42.5"/></g></g><g class="f"><polygon class="h" points="395.04 343.38 395.04 327.13 381.04 319 367.04 327.13 367.04 343.38 381.04 351.5 395.04 343.38"/><polygon class="h" points="423.27 343.55 423.27 327.3 409.27 319.17 395.27 327.3 395.27 343.55 409.27 351.67 423.27 343.55"/><polygon class="h" points="451.5 343.55 451.5 327.3 437.5 319.17 423.51 327.3 423.51 343.55 437.5 351.67 451.5 343.55"/><polygon class="h" points="479.4 343.55 479.4 327.3 465.4 319.17 451.4 327.3 451.4 343.55 465.4 351.67 479.4 343.55"/><polygon class="h" points="507.42 343.42 507.42 327.17 493.42 319.04 479.43 327.17 479.43 343.42 493.42 351.54 507.42 343.42"/><polygon class="h" points="535.53 343.34 535.53 327.09 521.53 318.96 507.53 327.09 507.53 343.34 521.53 351.46 535.53 343.34"/><polygon class="h" points="563.76 343.5 563.76 327.25 549.76 319.13 535.77 327.25 535.77 343.5 549.76 351.63 563.76 343.5"/><polygon class="h" points="591.99 343.5 591.99 327.25 578 319.13 564 327.25 564 343.5 578 351.63 591.99 343.5"/><polygon class="h" points="620.22 343.38 620.22 327.13 606.23 319 592.23 327.13 592.23 343.38 606.23 351.5 620.22 343.38"/><polygon class="h" points="367.14 442.14 367.14 425.89 353.14 417.77 339.15 425.89 339.15 442.14 353.14 450.27 367.14 442.14"/><polygon class="h" points="395.54 441.89 395.54 425.64 381.54 417.52 367.55 425.64 367.55 441.89 381.54 450.02 395.54 441.89"/><polygon class="g" points="423.77 441.81 423.77 425.56 409.77 417.43 395.78 425.56 395.78 441.81 409.77 449.93 423.77 441.81"/><polygon class="g" points="452 441.97 452 425.72 438 417.6 424.01 425.72 424.01 441.97 438 450.1 452 441.97"/><polygon class="g" points="480.23 441.97 480.23 425.72 466.24 417.6 452.24 425.72 452.24 441.97 466.24 450.1 480.23 441.97"/><polygon class="g" points="508.13 441.97 508.13 425.72 494.13 417.6 480.14 425.72 480.14 441.97 494.13 450.1 508.13 441.97"/><polygon class="g" points="536.15 441.85 536.15 425.6 522.16 417.47 508.16 425.6 508.16 441.85 522.16 449.97 536.15 441.85"/><polygon class="h" points="564.26 441.76 564.26 425.51 550.26 417.39 536.27 425.51 536.27 441.76 550.26 449.89 564.26 441.76"/><polygon class="h" points="592.49 441.93 592.49 425.68 578.5 417.56 564.5 425.68 564.5 441.93 578.5 450.06 592.49 441.93"/><polygon class="h" points="620.73 441.93 620.73 425.68 606.73 417.56 592.73 425.68 592.73 441.93 606.73 450.06 620.73 441.93"/><polygon class="h" points="353.11 466.83 353.11 450.58 339.11 442.46 325.11 450.58 325.11 466.83 339.11 474.96 353.11 466.83"/><polygon class="h" points="381.5 466.58 381.5 450.33 367.51 442.21 353.51 450.33 353.51 466.58 367.51 474.71 381.5 466.58"/><polygon class="h" points="409.74 466.5 409.74 450.25 395.74 442.12 381.74 450.25 381.74 466.5 395.74 474.62 409.74 466.5"/><polygon class="g" points="437.97 466.66 437.97 450.42 423.97 442.29 409.98 450.42 409.98 466.66 423.97 474.79 437.97 466.66"/></g><g class="af"><g class="f"><rect class="l" x="433.21" y="437.29" width="37.99" height="42.5"/></g></g><g class="f"><polygon class="g" points="466.2 466.66 466.2 450.42 452.2 442.29 438.21 450.42 438.21 466.66 452.2 474.79 466.2 466.66"/><polygon class="g" points="494.1 466.66 494.1 450.42 480.1 442.29 466.11 450.42 466.11 466.66 480.1 474.79 494.1 466.66"/><polygon class="g" points="522.12 466.54 522.12 450.29 508.13 442.16 494.13 450.29 494.13 466.54 508.13 474.66 522.12 466.54"/><polygon class="h" points="550.23 466.46 550.23 450.21 536.23 442.08 522.24 450.21 522.24 466.46 536.23 474.58 550.23 466.46"/><polygon class="h" points="578.46 466.62 578.46 450.37 564.46 442.25 550.47 450.37 550.47 466.62 564.46 474.75 578.46 466.62"/><polygon class="h" points="606.69 466.62 606.69 450.37 592.7 442.25 578.7 450.37 578.7 466.62 592.7 474.75 606.69 466.62"/><polygon class="h" points="352.77 417.62 352.77 401.37 338.78 393.24 324.78 401.37 324.78 417.62 338.78 425.74 352.77 417.62"/><polygon class="h" points="381.17 417.37 381.17 401.12 367.18 392.99 353.18 401.12 353.18 417.37 367.18 425.49 381.17 417.37"/><polygon class="h" points="409.4 417.28 409.4 401.03 395.41 392.91 381.41 401.03 381.41 417.28 395.41 425.41 409.4 417.28"/><polygon class="h" points="437.63 417.45 437.63 401.2 423.64 393.08 409.64 401.2 409.64 417.45 423.64 425.58 437.63 417.45"/><polygon class="h" points="465.87 417.45 465.87 401.2 451.87 393.08 437.87 401.2 437.87 417.45 451.87 425.58 465.87 417.45"/><polygon class="h" points="493.76 417.45 493.76 401.2 479.77 393.08 465.77 401.2 465.77 417.45 479.77 425.58 493.76 417.45"/><polygon class="h" points="521.79 417.33 521.79 401.08 507.79 392.95 493.79 401.08 493.79 417.33 507.79 425.45 521.79 417.33"/><polygon class="h" points="549.89 417.24 549.89 400.99 535.9 392.87 521.9 400.99 521.9 417.24 535.9 425.37 549.89 417.24"/><polygon class="h" points="578.13 417.41 578.13 401.16 564.13 393.03 550.13 401.16 550.13 417.41 564.13 425.53 578.13 417.41"/><polygon class="h" points="606.36 417.41 606.36 401.16 592.36 393.03 578.37 401.16 578.37 417.41 592.36 425.53 606.36 417.41"/></g><g class="f"><polygon class="h" points="353.11 516.05 353.11 499.8 339.11 491.67 325.11 499.8 325.11 516.05 339.11 524.17 353.11 516.05"/><polygon class="h" points="381.5 515.8 381.5 499.55 367.51 491.42 353.51 499.55 353.51 515.8 367.51 523.92 381.5 515.8"/><polygon class="h" points="409.74 515.71 409.74 499.46 395.74 491.34 381.74 499.46 381.74 515.71 395.74 523.84 409.74 515.71"/><polygon class="g" points="437.97 515.88 437.97 499.63 423.97 491.5 409.98 499.63 409.98 515.88 423.97 524 437.97 515.88"/><polygon class="g" points="466.2 515.88 466.2 499.63 452.2 491.5 438.21 499.63 438.21 515.88 452.2 524 466.2 515.88"/><polygon class="g" points="494.1 515.88 494.1 499.63 480.1 491.5 466.11 499.63 466.11 515.88 480.1 524 494.1 515.88"/><polygon class="g" points="522.12 515.75 522.12 499.5 508.13 491.38 494.13 499.5 494.13 515.75 508.13 523.88 522.12 515.75"/><polygon class="h" points="550.23 515.67 550.23 499.42 536.23 491.29 522.24 499.42 522.24 515.67 536.23 523.8 550.23 515.67"/><polygon class="h" points="578.46 515.84 578.46 499.59 564.46 491.46 550.47 499.59 550.47 515.84 564.46 523.96 578.46 515.84"/><polygon class="h" points="606.69 515.84 606.69 499.59 592.7 491.46 578.7 499.59 578.7 515.84 592.7 523.96 606.69 515.84"/><polygon class="h" points="339.07 540.74 339.07 524.49 325.08 516.36 311.08 524.49 311.08 540.74 325.08 548.86 339.07 540.74"/><polygon class="h" points="367.47 540.49 367.47 524.24 353.48 516.11 339.48 524.24 339.48 540.49 353.48 548.61 367.47 540.49"/><polygon class="h" points="395.7 540.4 395.7 524.15 381.71 516.03 367.71 524.15 367.71 540.4 381.71 548.53 395.7 540.4"/><polygon class="g" points="423.94 540.57 423.94 524.32 409.94 516.2 395.94 524.32 395.94 540.57 409.94 548.7 423.94 540.57"/><polygon class="g" points="452.17 540.57 452.17 524.32 438.17 516.2 424.18 524.32 424.18 540.57 438.17 548.7 452.17 540.57"/><polygon class="g" points="480.07 540.57 480.07 524.32 466.07 516.2 452.07 524.32 452.07 540.57 466.07 548.7 480.07 540.57"/><polygon class="g" points="508.09 540.45 508.09 524.2 494.09 516.07 480.1 524.2 480.1 540.45 494.09 548.57 508.09 540.45"/><polygon class="g" points="536.2 540.36 536.2 524.11 522.2 515.98 508.2 524.11 508.2 540.36 522.2 548.49 536.2 540.36"/><polygon class="h" points="564.43 540.53 564.43 524.28 550.43 516.15 536.43 524.28 536.43 540.53 550.43 548.65 564.43 540.53"/><polygon class="h" points="592.66 540.53 592.66 524.28 578.66 516.15 564.67 524.28 564.67 540.53 578.66 548.65 592.66 540.53"/><polygon class="h" points="338.74 491.52 338.74 475.27 324.74 467.15 310.75 475.27 310.75 491.52 324.74 499.65 338.74 491.52"/><polygon class="h" points="367.14 491.27 367.14 475.02 353.14 466.9 339.15 475.02 339.15 491.27 353.14 499.4 367.14 491.27"/><polygon class="h" points="395.37 491.19 395.37 474.94 381.37 466.81 367.38 474.94 367.38 491.19 381.37 499.31 395.37 491.19"/><polygon class="g" points="423.6 491.36 423.6 475.11 409.61 466.98 395.61 475.11 395.61 491.36 409.61 499.48 423.6 491.36"/><polygon class="g" points="451.83 491.36 451.83 475.11 437.84 466.98 423.84 475.11 423.84 491.36 437.84 499.48 451.83 491.36"/><polygon class="g" points="479.73 491.36 479.73 475.11 465.74 466.98 451.74 475.11 451.74 491.36 465.74 499.48 479.73 491.36"/><polygon class="g" points="507.75 491.23 507.75 474.98 493.76 466.86 479.76 474.98 479.76 491.23 493.76 499.36 507.75 491.23"/><polygon class="g" points="535.86 491.15 535.86 474.9 521.87 466.77 507.87 474.9 507.87 491.15 521.87 499.27 535.86 491.15"/><polygon class="h" points="564.09 491.32 564.09 475.06 550.1 466.94 536.1 475.06 536.1 491.32 550.1 499.44 564.09 491.32"/><polygon class="h" points="592.33 491.32 592.33 475.06 578.33 466.94 564.33 475.06 564.33 491.32 578.33 499.44 592.33 491.32"/><polygon class="h" points="620.56 491.19 620.56 474.94 606.56 466.81 592.56 474.94 592.56 491.19 606.56 499.31 620.56 491.19"/><polygon class="h" points="352.77 565.26 352.77 549.01 338.78 540.89 324.78 549.01 324.78 565.26 338.78 573.39 352.77 565.26"/><polygon class="h" points="381.17 565.01 381.17 548.76 367.18 540.63 353.18 548.76 353.18 565.01 367.18 573.13 381.17 565.01"/><polygon class="h" points="409.4 564.93 409.4 548.68 395.41 540.55 381.41 548.68 381.41 564.93 395.41 573.05 409.4 564.93"/><polygon class="g" points="437.63 565.09 437.63 548.84 423.64 540.72 409.64 548.84 409.64 565.09 423.64 573.22 437.63 565.09"/><polygon class="g" points="465.87 565.09 465.87 548.84 451.87 540.72 437.87 548.84 437.87 565.09 451.87 573.22 465.87 565.09"/><polygon class="g" points="493.76 565.09 493.76 548.84 479.77 540.72 465.77 548.84 465.77 565.09 479.77 573.22 493.76 565.09"/><polygon class="g" points="521.79 564.97 521.79 548.72 507.79 540.59 493.79 548.72 493.79 564.97 507.79 573.09 521.79 564.97"/></g><g class="ah"><g class="f"><rect class="j" x="516.9" y="535.51" width="37.99" height="42.5"/></g></g><g class="f"><polygon class="h" points="549.89 564.88 549.89 548.63 535.9 540.51 521.9 548.63 521.9 564.88 535.9 573.01 549.89 564.88"/><polygon class="h" points="578.13 565.05 578.13 548.8 564.13 540.68 550.13 548.8 550.13 565.05 564.13 573.18 578.13 565.05"/></g><g class="ai"><g class="f"><rect class="j" x="573.37" y="535.68" width="37.99" height="42.5"/></g></g><g class="f"><polygon class="h" points="606.36 565.05 606.36 548.8 592.36 540.68 578.37 548.8 578.37 565.05 592.36 573.18 606.36 565.05"/></g><g class="f"><polygon class="h" points="352.01 23.52 352.01 7.27 338.02 -0.85 324.02 7.27 324.02 23.52 338.02 31.65 352.01 23.52"/><polygon class="h" points="380.04 23.4 380.04 7.15 366.04 -0.98 352.04 7.15 352.04 23.4 366.04 31.52 380.04 23.4"/><polygon class="h" points="408.14 23.31 408.14 7.06 394.14 -1.06 380.15 7.06 380.15 23.31 394.14 31.44 408.14 23.31"/><polygon class="h" points="436.37 23.48 436.37 7.23 422.38 -0.89 408.38 7.23 408.38 23.48 422.38 31.61 436.37 23.48"/><polygon class="h" points="337.98 48.21 337.98 31.96 323.98 23.84 309.99 31.96 309.99 48.21 323.98 56.34 337.98 48.21"/><polygon class="h" points="366 48.09 366 31.84 352.01 23.71 338.01 31.84 338.01 48.09 352.01 56.21 366 48.09"/><polygon class="h" points="394.11 48 394.11 31.75 380.11 23.63 366.12 31.75 366.12 48 380.11 56.13 394.11 48"/><polygon class="h" points="365.67 -1.13 365.67 -17.38 351.67 -25.5 337.68 -17.38 337.68 -1.13 351.67 7 365.67 -1.13"/><polygon class="h" points="393.77 -1.21 393.77 -17.46 379.78 -25.59 365.78 -17.46 365.78 -1.21 379.78 6.91 393.77 -1.21"/><polygon class="h" points="422.01 -1.04 422.01 -17.29 408.01 -25.42 394.01 -17.29 394.01 -1.04 408.01 7.08 422.01 -1.04"/></g></g></g><g class="d"><g class="ap"><g class="aq"><polygon class="g" points="56.65 -0.41 56.65 -16.65 42.66 -24.77 28.66 -16.65 28.66 -0.41 42.66 7.71 56.65 -0.41"/><polygon class="h" points="84.89 -0.41 84.89 -16.65 70.89 -24.77 56.89 -16.65 56.89 -0.41 70.89 7.71 84.89 -0.41"/><polygon class="h" points="112.78 -0.41 112.78 -16.65 98.79 -24.77 84.79 -16.65 84.79 -0.41 98.79 7.71 112.78 -0.41"/><polygon class="h" points="140.81 -0.54 140.81 -16.78 126.81 -24.9 112.81 -16.78 112.81 -0.54 126.81 7.59 140.81 -0.54"/><polygon class="h" points="168.91 -0.62 168.91 -16.86 154.92 -24.98 140.92 -16.86 140.92 -0.62 154.92 7.5 168.91 -0.62"/></g><g class="ar"><g class="aq"><rect class="j" x="164.15" y="-29.82" width="38" height="42.49"/></g></g><g class="aq"><polygon class="h" points="197.15 -0.45 197.15 -16.69 183.15 -24.82 169.15 -16.69 169.15 -0.45 183.15 7.67 197.15 -0.45"/></g><g class="as"><g class="aq"><rect class="l" x="192.39" y="-29.82" width="37.99" height="42.49"/></g></g><g class="aq"><polygon class="g" points="225.38 -0.45 225.38 -16.69 211.38 -24.82 197.39 -16.69 197.39 -0.45 211.38 7.67 225.38 -0.45"/><polygon class="h" points="253.61 -0.58 253.61 -16.82 239.61 -24.94 225.62 -16.82 225.62 -0.58 239.61 7.54 253.61 -0.58"/><polygon class="h" points="281.84 -0.58 281.84 -16.82 267.84 -24.94 253.85 -16.82 253.85 -0.58 267.84 7.54 281.84 -0.58"/><polygon class="h" points="310.24 -0.75 310.24 -16.99 296.24 -25.11 282.25 -16.99 282.25 -0.75 296.24 7.38 310.24 -0.75"/><polygon class="h" points="337.97 -0.75 337.97 -16.99 323.97 -25.11 309.98 -16.99 309.98 -0.75 323.97 7.38 337.97 -0.75"/><polygon class="h" points="70.85 24.27 70.85 8.03 56.86 -0.09 42.86 8.03 42.86 24.27 56.86 32.39 70.85 24.27"/></g><g class="at"><g class="aq"><rect class="j" x="65.76" y="-5.09" width="37.99" height="42.48"/></g></g><g class="aq"><polygon class="h" points="98.75 24.27 98.75 8.03 84.75 -0.09 70.76 8.03 70.76 24.27 84.75 32.39 98.75 24.27"/><polygon class="h" points="126.78 24.14 126.78 7.9 112.78 -0.22 98.78 7.9 98.78 24.14 112.78 32.26 126.78 24.14"/><polygon class="h" points="154.88 24.06 154.88 7.82 140.89 -0.3 126.89 7.82 126.89 24.06 140.89 32.18 154.88 24.06"/></g><g class="au"><g class="aq"><rect class="j" x="150.12" y="-5.14" width="37.99" height="42.49"/></g></g><g class="aq"><polygon class="h" points="183.11 24.23 183.11 7.99 169.12 -0.14 155.12 7.99 155.12 24.23 169.12 32.35 183.11 24.23"/></g><g class="av"><g class="aq"><rect class="j" x="178.35" y="-5.14" width="37.99" height="42.49"/></g></g><g class="aq"><polygon class="h" points="211.34 24.23 211.34 7.99 197.35 -0.14 183.35 7.99 183.35 24.23 197.35 32.35 211.34 24.23"/></g><g class="aw"><g class="aq"><rect class="j" x="206.58" y="-5.26" width="38" height="42.48"/></g></g><g class="aq"><polygon class="h" points="239.58 24.1 239.58 7.86 225.58 -0.26 211.58 7.86 211.58 24.1 225.58 32.22 239.58 24.1"/><polygon class="h" points="267.81 24.1 267.81 7.86 253.81 -0.26 239.82 7.86 239.82 24.1 253.81 32.22 267.81 24.1"/><polygon class="h" points="296.21 23.93 296.21 7.69 282.21 -0.43 268.21 7.69 268.21 23.93 282.21 32.06 296.21 23.93"/><polygon class="h" points="323.94 23.93 323.94 7.69 309.94 -0.43 295.95 7.69 295.95 23.93 309.94 32.06 323.94 23.93"/><polygon class="g" points="14.39 73.29 14.39 57.05 0.39 48.93 -13.6 57.05 -13.6 73.29 0.39 81.41 14.39 73.29"/><polygon class="g" points="42.62 73.46 42.62 57.22 28.63 49.1 14.63 57.22 14.63 73.46 28.63 81.58 42.62 73.46"/><polygon class="h" points="70.85 73.46 70.85 57.22 56.86 49.1 42.86 57.22 42.86 73.46 56.86 81.58 70.85 73.46"/><polygon class="h" points="98.75 73.46 98.75 57.22 84.75 49.1 70.76 57.22 70.76 73.46 84.75 81.58 98.75 73.46"/><polygon class="h" points="126.78 73.34 126.78 57.09 112.78 48.97 98.78 57.09 98.78 73.34 112.78 81.46 126.78 73.34"/><polygon class="h" points="154.88 73.25 154.88 57.01 140.89 48.89 126.89 57.01 126.89 73.25 140.89 81.37 154.88 73.25"/><polygon class="h" points="183.11 73.42 183.11 57.18 169.12 49.06 155.12 57.18 155.12 73.42 169.12 81.54 183.11 73.42"/><polygon class="h" points="211.34 73.42 211.34 57.18 197.35 49.06 183.35 57.18 183.35 73.42 197.35 81.54 211.34 73.42"/><polygon class="h" points="239.58 73.29 239.58 57.05 225.58 48.93 211.58 57.05 211.58 73.29 225.58 81.41 239.58 73.29"/><polygon class="h" points="267.81 73.29 267.81 57.05 253.81 48.93 239.82 57.05 239.82 73.29 253.81 81.41 267.81 73.29"/></g><g class="ax"><g class="aq"><rect class="j" x="263.21" y="43.76" width="38" height="42.49"/></g></g><g class="aq"><polygon class="h" points="296.21 73.12 296.21 56.88 282.21 48.76 268.21 56.88 268.21 73.12 282.21 81.25 296.21 73.12"/><polygon class="h" points="323.94 73.12 323.94 56.88 309.94 48.76 295.95 56.88 295.95 73.12 309.94 81.25 323.94 73.12"/><polygon class="g" points="0.36 97.97 0.36 81.73 -13.64 73.61 -27.63 81.73 -27.63 97.97 -13.64 106.09 0.36 97.97"/><polygon class="g" points="28.59 98.14 28.59 81.9 14.59 73.78 0.6 81.9 0.6 98.14 14.59 106.26 28.59 98.14"/><polygon class="g" points="56.82 98.14 56.82 81.9 42.82 73.78 28.83 81.9 28.83 98.14 42.82 106.26 56.82 98.14"/><polygon class="h" points="84.72 98.14 84.72 81.9 70.72 73.78 56.73 81.9 56.73 98.14 70.72 106.26 84.72 98.14"/><polygon class="h" points="112.74 98.01 112.74 81.77 98.75 73.65 84.75 81.77 84.75 98.01 98.75 106.14 112.74 98.01"/><polygon class="h" points="140.85 97.93 140.85 81.69 126.85 73.57 112.86 81.69 112.86 97.93 126.85 106.05 140.85 97.93"/><polygon class="g" points="169.08 98.1 169.08 81.86 155.08 73.73 141.09 81.86 141.09 98.1 155.08 106.22 169.08 98.1"/><polygon class="g" points="197.31 98.1 197.31 81.86 183.32 73.73 169.32 81.86 169.32 98.1 183.32 106.22 197.31 98.1"/><polygon class="g" points="225.54 97.97 225.54 81.73 211.55 73.61 197.55 81.73 197.55 97.97 211.55 106.09 225.54 97.97"/><polygon class="g" points="253.78 97.97 253.78 81.73 239.78 73.61 225.78 81.73 225.78 97.97 239.78 106.09 253.78 97.97"/><polygon class="g" points="282.18 97.8 282.18 81.56 268.18 73.44 254.18 81.56 254.18 97.8 268.18 105.92 282.18 97.8"/><polygon class="g" points="309.91 97.8 309.91 81.56 295.91 73.44 281.91 81.56 281.91 97.8 295.91 105.92 309.91 97.8"/></g><g class="ay"><g class="aq"><rect class="l" x="-4.74" y="19.59" width="38" height="42.48"/></g></g><g class="aq"><polygon class="g" points="28.26 48.95 28.26 32.71 14.26 24.59 0.26 32.71 0.26 48.95 14.26 57.07 28.26 48.95"/></g><g class="az"><g class="aq"><rect class="j" x="23.49" y="19.59" width="38" height="42.48"/></g></g><g class="aq"><polygon class="g" points="56.49 48.95 56.49 32.71 42.49 24.59 28.49 32.71 28.49 48.95 42.49 57.07 56.49 48.95"/></g><g class="ba"><g class="aq"><rect class="j" x="51.39" y="19.59" width="38" height="42.48"/></g></g><g class="aq"><polygon class="h" points="84.39 48.95 84.39 32.71 70.39 24.59 56.39 32.71 56.39 48.95 70.39 57.07 84.39 48.95"/><polygon class="h" points="112.41 48.82 112.41 32.58 98.41 24.46 84.41 32.58 84.41 48.82 98.41 56.95 112.41 48.82"/><polygon class="h" points="140.52 48.74 140.52 32.5 126.52 24.38 112.52 32.5 112.52 48.74 126.52 56.86 140.52 48.74"/><polygon class="h" points="168.75 48.91 168.75 32.67 154.75 24.54 140.75 32.67 140.75 48.91 154.75 57.03 168.75 48.91"/></g><g class="bb"><g class="aq"><rect class="j" x="163.99" y="19.54" width="37.99" height="42.49"/></g></g><g class="aq"><polygon class="h" points="196.98 48.91 196.98 32.67 182.98 24.54 168.99 32.67 168.99 48.91 182.98 57.03 196.98 48.91"/></g><g class="bc"><g class="aq"><rect class="j" x="192.22" y="19.42" width="37.99" height="42.48"/></g></g><g class="aq"><polygon class="h" points="225.21 48.78 225.21 32.54 211.21 24.42 197.22 32.54 197.22 48.78 211.21 56.9 225.21 48.78"/><polygon class="h" points="253.44 48.78 253.44 32.54 239.45 24.42 225.45 32.54 225.45 48.78 239.45 56.9 253.44 48.78"/><polygon class="h" points="281.84 48.61 281.84 32.37 267.84 24.25 253.85 32.37 253.85 48.61 267.84 56.73 281.84 48.61"/><polygon class="h" points="309.57 48.61 309.57 32.37 295.58 24.25 281.58 32.37 281.58 48.61 295.58 56.73 309.57 48.61"/><polygon class="g" points="0.53 147.25 0.53 131 -13.47 122.88 -27.47 131 -27.47 147.25 -13.47 155.37 0.53 147.25"/><polygon class="g" points="28.76 147.16 28.76 130.92 14.76 122.8 0.76 130.92 0.76 147.16 14.76 155.28 28.76 147.16"/><polygon class="g" points="56.99 147.33 56.99 131.09 42.99 122.97 29 131.09 29 147.33 42.99 155.45 56.99 147.33"/><polygon class="h" points="85.22 147.33 85.22 131.09 71.22 122.97 57.23 131.09 57.23 147.33 71.22 155.45 85.22 147.33"/><polygon class="h" points="113.12 147.33 113.12 131.09 99.12 122.97 85.12 131.09 85.12 147.33 99.12 155.45 113.12 147.33"/><polygon class="h" points="141.14 147.2 141.14 130.96 127.15 122.84 113.15 130.96 113.15 147.2 127.15 155.33 141.14 147.2"/><polygon class="g" points="169.25 147.12 169.25 130.88 155.25 122.76 141.25 130.88 141.25 147.12 155.25 155.24 169.25 147.12"/><polygon class="g" points="197.48 147.29 197.48 131.05 183.48 122.92 169.49 131.05 169.49 147.29 183.48 155.41 197.48 147.29"/><polygon class="g" points="225.71 147.29 225.71 131.05 211.71 122.92 197.72 131.05 197.72 147.29 211.71 155.41 225.71 147.29"/><polygon class="g" points="253.94 147.16 253.94 130.92 239.95 122.8 225.95 130.92 225.95 147.16 239.95 155.28 253.94 147.16"/><polygon class="g" points="282.18 147.16 282.18 130.92 268.18 122.8 254.18 130.92 254.18 147.16 268.18 155.28 282.18 147.16"/><polygon class="g" points="310.57 146.99 310.57 130.75 296.58 122.63 282.58 130.75 282.58 146.99 296.58 155.12 310.57 146.99"/><polygon class="h" points="338.3 146.99 338.3 130.75 324.31 122.63 310.31 130.75 310.31 146.99 324.31 155.12 338.3 146.99"/><polygon class="g" points="14.73 171.84 14.73 155.6 0.73 147.48 -13.27 155.6 -13.27 171.84 0.73 179.96 14.73 171.84"/><polygon class="g" points="42.96 172.01 42.96 155.77 28.96 147.65 14.96 155.77 14.96 172.01 28.96 180.13 42.96 172.01"/><polygon class="h" points="71.19 172.01 71.19 155.77 57.19 147.65 43.19 155.77 43.19 172.01 57.19 180.13 71.19 172.01"/><polygon class="h" points="99.09 172.01 99.09 155.77 85.09 147.65 71.09 155.77 71.09 172.01 85.09 180.13 99.09 172.01"/><polygon class="h" points="127.11 171.88 127.11 155.64 113.11 147.52 99.12 155.64 99.12 171.88 113.11 180.01 127.11 171.88"/><polygon class="h" points="155.22 171.8 155.22 155.56 141.22 147.44 127.22 155.56 127.22 171.8 141.22 179.92 155.22 171.8"/><polygon class="h" points="183.45 171.97 183.45 155.73 169.45 147.6 155.45 155.73 155.45 171.97 169.45 180.09 183.45 171.97"/><polygon class="h" points="211.68 171.97 211.68 155.73 197.68 147.6 183.69 155.73 183.69 171.97 197.68 180.09 211.68 171.97"/><polygon class="h" points="239.91 171.84 239.91 155.6 225.91 147.48 211.92 155.6 211.92 171.84 225.91 179.96 239.91 171.84"/><polygon class="h" points="268.14 171.84 268.14 155.6 254.15 147.48 240.15 155.6 240.15 171.84 254.15 179.96 268.14 171.84"/><polygon class="h" points="296.54 171.67 296.54 155.43 282.54 147.31 268.55 155.43 268.55 171.67 282.54 179.79 296.54 171.67"/><polygon class="h" points="324.27 171.67 324.27 155.43 310.28 147.31 296.28 155.43 296.28 171.67 310.28 179.79 324.27 171.67"/></g><g class="bd"><g class="aq"><rect class="l" x="-18.6" y="93.29" width="37.99" height="42.48"/></g></g><g class="aq"><polygon class="g" points="14.39 122.65 14.39 106.41 0.39 98.29 -13.6 106.41 -13.6 122.65 0.39 130.77 14.39 122.65"/><polygon class="g" points="42.62 122.82 42.62 106.58 28.63 98.45 14.63 106.58 14.63 122.82 28.63 130.94 42.62 122.82"/><polygon class="h" points="70.85 122.82 70.85 106.58 56.86 98.45 42.86 106.58 42.86 122.82 56.86 130.94 70.85 122.82"/><polygon class="h" points="98.75 122.82 98.75 106.58 84.75 98.45 70.76 106.58 70.76 122.82 84.75 130.94 98.75 122.82"/><polygon class="h" points="126.78 122.69 126.78 106.45 112.78 98.33 98.78 106.45 98.78 122.69 112.78 130.81 126.78 122.69"/><polygon class="h" points="154.88 122.61 154.88 106.37 140.89 98.24 126.89 106.37 126.89 122.61 140.89 130.73 154.88 122.61"/><polygon class="g" points="183.11 122.78 183.11 106.54 169.12 98.41 155.12 106.54 155.12 122.78 169.12 130.9 183.11 122.78"/><polygon class="g" points="211.34 122.78 211.34 106.54 197.35 98.41 183.35 106.54 183.35 122.78 197.35 130.9 211.34 122.78"/><polygon class="g" points="239.58 122.65 239.58 106.41 225.58 98.29 211.58 106.41 211.58 122.65 225.58 130.77 239.58 122.65"/><polygon class="g" points="267.81 122.65 267.81 106.41 253.81 98.29 239.82 106.41 239.82 122.65 253.81 130.77 267.81 122.65"/><polygon class="g" points="296.21 122.48 296.21 106.24 282.21 98.12 268.21 106.24 268.21 122.48 282.21 130.6 296.21 122.48"/><polygon class="g" points="323.94 122.48 323.94 106.24 309.94 98.12 295.95 106.24 295.95 122.48 309.94 130.6 323.94 122.48"/><polygon class="h" points="14.73 221.03 14.73 204.79 0.73 196.67 -13.27 204.79 -13.27 221.03 0.73 229.15 14.73 221.03"/><polygon class="h" points="42.96 221.2 42.96 204.96 28.96 196.84 14.96 204.96 14.96 221.2 28.96 229.32 42.96 221.2"/><polygon class="h" points="71.19 221.2 71.19 204.96 57.19 196.84 43.19 204.96 43.19 221.2 57.19 229.32 71.19 221.2"/><polygon class="h" points="99.09 221.2 99.09 204.96 85.09 196.84 71.09 204.96 71.09 221.2 85.09 229.32 99.09 221.2"/><polygon class="g" points="127.11 221.07 127.11 204.83 113.11 196.71 99.12 204.83 99.12 221.07 113.11 229.19 127.11 221.07"/><polygon class="g" points="155.22 220.99 155.22 204.75 141.22 196.63 127.22 204.75 127.22 220.99 141.22 229.11 155.22 220.99"/></g><g class="be"><g class="aq"><rect class="j" x="150.45" y="191.79" width="38" height="42.49"/></g></g><g class="aq"><polygon class="g" points="183.45 221.16 183.45 204.92 169.45 196.79 155.45 204.92 155.45 221.16 169.45 229.28 183.45 221.16"/><polygon class="g" points="211.68 221.16 211.68 204.92 197.68 196.79 183.69 204.92 183.69 221.16 197.68 229.28 211.68 221.16"/><polygon class="h" points="239.91 221.03 239.91 204.79 225.91 196.67 211.92 204.79 211.92 221.03 225.91 229.15 239.91 221.03"/><polygon class="h" points="268.14 221.03 268.14 204.79 254.15 196.67 240.15 204.79 240.15 221.03 254.15 229.15 268.14 221.03"/><polygon class="h" points="296.54 220.86 296.54 204.62 282.54 196.5 268.55 204.62 268.55 220.86 282.54 228.98 296.54 220.86"/><polygon class="h" points="324.27 220.86 324.27 204.62 310.28 196.5 296.28 204.62 296.28 220.86 310.28 228.98 324.27 220.86"/><polygon class="h" points="0.69 245.71 0.69 229.47 -13.3 221.35 -27.3 229.47 -27.3 245.71 -13.3 253.83 0.69 245.71"/><polygon class="h" points="28.92 245.88 28.92 229.64 14.93 221.52 0.93 229.64 0.93 245.88 14.93 254 28.92 245.88"/><polygon class="h" points="57.16 245.88 57.16 229.64 43.16 221.52 29.16 229.64 29.16 245.88 43.16 254 57.16 245.88"/><polygon class="h" points="85.05 245.88 85.05 229.64 71.06 221.52 57.06 229.64 57.06 245.88 71.06 254 85.05 245.88"/><polygon class="h" points="113.08 245.75 113.08 229.51 99.08 221.39 85.08 229.51 85.08 245.75 99.08 253.87 113.08 245.75"/></g><g class="bf"><g class="aq"><rect class="j" x="108.19" y="216.31" width="37.99" height="42.48"/></g></g><g class="aq"><polygon class="g" points="141.18 245.67 141.18 229.43 127.19 221.31 113.19 229.43 113.19 245.67 127.19 253.79 141.18 245.67"/></g><g class="bg"><g class="aq"><rect class="j" x="136.42" y="216.47" width="37.99" height="42.49"/></g></g><g class="aq"><polygon class="g" points="169.41 245.84 169.41 229.6 155.42 221.47 141.42 229.6 141.42 245.84 155.42 253.96 169.41 245.84"/></g><g class="bh"><g class="aq"><rect class="l" x="164.65" y="216.47" width="38" height="42.49"/></g></g><g class="aq"><polygon class="g" points="197.65 245.84 197.65 229.6 183.65 221.47 169.65 229.6 169.65 245.84 183.65 253.96 197.65 245.84"/><polygon class="g" points="225.88 245.71 225.88 229.47 211.88 221.35 197.89 229.47 197.89 245.71 211.88 253.83 225.88 245.71"/><polygon class="h" points="254.11 245.71 254.11 229.47 240.11 221.35 226.12 229.47 226.12 245.71 240.11 253.83 254.11 245.71"/><polygon class="h" points="282.51 245.54 282.51 229.3 268.51 221.18 254.52 229.3 254.52 245.54 268.51 253.67 282.51 245.54"/><polygon class="h" points="310.24 245.54 310.24 229.3 296.24 221.18 282.25 229.3 282.25 245.54 296.24 253.67 310.24 245.54"/><polygon class="g" points="0.36 196.52 0.36 180.28 -13.64 172.16 -27.63 180.28 -27.63 196.52 -13.64 204.64 0.36 196.52"/><polygon class="g" points="28.59 196.69 28.59 180.45 14.59 172.32 0.6 180.45 0.6 196.69 14.59 204.81 28.59 196.69"/><polygon class="g" points="56.82 196.69 56.82 180.45 42.82 172.32 28.83 180.45 28.83 196.69 42.82 204.81 56.82 196.69"/><polygon class="h" points="84.72 196.69 84.72 180.45 70.72 172.32 56.73 180.45 56.73 196.69 70.72 204.81 84.72 196.69"/><polygon class="h" points="112.74 196.56 112.74 180.32 98.75 172.2 84.75 180.32 84.75 196.56 98.75 204.68 112.74 196.56"/><polygon class="h" points="140.85 196.48 140.85 180.24 126.85 172.11 112.86 180.24 112.86 196.48 126.85 204.6 140.85 196.48"/><polygon class="h" points="169.08 196.65 169.08 180.4 155.08 172.28 141.09 180.4 141.09 196.65 155.08 204.77 169.08 196.65"/><polygon class="h" points="197.31 196.65 197.31 180.4 183.32 172.28 169.32 180.4 169.32 196.65 183.32 204.77 197.31 196.65"/><polygon class="h" points="225.54 196.52 225.54 180.28 211.55 172.16 197.55 180.28 197.55 196.52 211.55 204.64 225.54 196.52"/><polygon class="h" points="253.78 196.52 253.78 180.28 239.78 172.16 225.78 180.28 225.78 196.52 239.78 204.64 253.78 196.52"/><polygon class="h" points="282.18 196.35 282.18 180.11 268.18 171.99 254.18 180.11 254.18 196.35 268.18 204.47 282.18 196.35"/><polygon class="h" points="309.91 196.35 309.91 180.11 295.91 171.99 281.91 180.11 281.91 196.35 295.91 204.47 309.91 196.35"/><polygon class="h" points="1.19 294.99 1.19 278.74 -12.8 270.62 -26.8 278.74 -26.8 294.99 -12.8 303.11 1.19 294.99"/><polygon class="h" points="29.43 294.9 29.43 278.66 15.43 270.54 1.43 278.66 1.43 294.9 15.43 303.02 29.43 294.9"/><polygon class="h" points="57.66 295.07 57.66 278.83 43.66 270.71 29.66 278.83 29.66 295.07 43.66 303.19 57.66 295.07"/><polygon class="h" points="85.89 295.07 85.89 278.83 71.89 270.71 57.9 278.83 57.9 295.07 71.89 303.19 85.89 295.07"/><polygon class="h" points="113.79 295.07 113.79 278.83 99.79 270.71 85.79 278.83 85.79 295.07 99.79 303.19 113.79 295.07"/><polygon class="h" points="141.81 294.94 141.81 278.7 127.81 270.58 113.82 278.7 113.82 294.94 127.81 303.06 141.81 294.94"/><polygon class="h" points="169.92 294.86 169.92 278.62 155.92 270.5 141.92 278.62 141.92 294.86 155.92 302.98 169.92 294.86"/><polygon class="h" points="198.15 295.03 198.15 278.79 184.15 270.66 170.15 278.79 170.15 295.03 184.15 303.15 198.15 295.03"/><polygon class="h" points="226.38 295.03 226.38 278.79 212.38 270.66 198.39 278.79 198.39 295.03 212.38 303.15 226.38 295.03"/><polygon class="h" points="254.61 294.9 254.61 278.66 240.61 270.54 226.62 278.66 226.62 294.9 240.61 303.02 254.61 294.9"/><polygon class="h" points="282.84 294.9 282.84 278.66 268.85 270.54 254.85 278.66 254.85 294.9 268.85 303.02 282.84 294.9"/><polygon class="h" points="311.24 294.73 311.24 278.49 297.25 270.37 283.25 278.49 283.25 294.73 297.25 302.86 311.24 294.73"/><polygon class="h" points="338.97 294.73 338.97 278.49 324.98 270.37 310.98 278.49 310.98 294.73 324.98 302.86 338.97 294.73"/></g><g class="aq"><polygon class="h" points="15.39 319.58 15.39 303.34 1.4 295.22 -12.6 303.34 -12.6 319.58 1.4 327.7 15.39 319.58"/><polygon class="h" points="43.62 319.75 43.62 303.51 29.63 295.38 15.63 303.51 15.63 319.75 29.63 327.87 43.62 319.75"/><polygon class="h" points="71.86 319.75 71.86 303.51 57.86 295.38 43.86 303.51 43.86 319.75 57.86 327.87 71.86 319.75"/><polygon class="h" points="99.75 319.75 99.75 303.51 85.76 295.38 71.76 303.51 71.76 319.75 85.76 327.87 99.75 319.75"/><polygon class="h" points="127.78 319.62 127.78 303.38 113.78 295.26 99.78 303.38 99.78 319.62 113.78 327.74 127.78 319.62"/><polygon class="h" points="155.88 319.54 155.88 303.3 141.89 295.17 127.89 303.3 127.89 319.54 141.89 327.66 155.88 319.54"/><polygon class="h" points="184.12 319.71 184.12 303.47 170.12 295.34 156.12 303.47 156.12 319.71 170.12 327.83 184.12 319.71"/><polygon class="h" points="212.35 319.71 212.35 303.47 198.35 295.34 184.35 303.47 184.35 319.71 198.35 327.83 212.35 319.71"/><polygon class="h" points="240.58 319.58 240.58 303.34 226.58 295.22 212.59 303.34 212.59 319.58 226.58 327.7 240.58 319.58"/><polygon class="h" points="268.81 319.58 268.81 303.34 254.82 295.22 240.82 303.34 240.82 319.58 254.82 327.7 268.81 319.58"/><polygon class="h" points="297.21 319.41 297.21 303.17 283.21 295.05 269.22 303.17 269.22 319.41 283.21 327.53 297.21 319.41"/><polygon class="h" points="324.94 319.41 324.94 303.17 310.94 295.05 296.95 303.17 296.95 319.41 310.94 327.53 324.94 319.41"/><polygon class="h" points="15.06 270.39 15.06 254.15 1.06 246.03 -12.93 254.15 -12.93 270.39 1.06 278.51 15.06 270.39"/><polygon class="h" points="43.29 270.56 43.29 254.32 29.29 246.19 15.3 254.32 15.3 270.56 29.29 278.68 43.29 270.56"/><polygon class="h" points="71.52 270.56 71.52 254.32 57.53 246.19 43.53 254.32 43.53 270.56 57.53 278.68 71.52 270.56"/><polygon class="h" points="99.42 270.56 99.42 254.32 85.42 246.19 71.43 254.32 71.43 270.56 85.42 278.68 99.42 270.56"/><polygon class="g" points="127.44 270.43 127.44 254.19 113.45 246.07 99.45 254.19 99.45 270.43 113.45 278.55 127.44 270.43"/></g><g class="bj"><g class="aq"><rect class="j" x="122.56" y="240.98" width="37.99" height="42.49"/></g></g><polygon class="g" points="155.55 270.35 155.55 254.11 141.55 245.98 127.56 254.11 127.56 270.35 141.55 278.47 155.55 270.35"/><g class="bk"><g class="aq"><rect class="l" x="150.79" y="241.15" width="37.99" height="42.49"/></g></g><g class="aq"><polygon class="g" points="183.78 270.52 183.78 254.27 169.78 246.15 155.79 254.27 155.79 270.52 169.78 278.64 183.78 270.52"/><polygon class="g" points="212.01 270.52 212.01 254.27 198.02 246.15 184.02 254.27 184.02 270.52 198.02 278.64 212.01 270.52"/><polygon class="h" points="240.25 270.39 240.25 254.15 226.25 246.03 212.25 254.15 212.25 270.39 226.25 278.51 240.25 270.39"/><polygon class="h" points="268.48 270.39 268.48 254.15 254.48 246.03 240.48 254.15 240.48 270.39 254.48 278.51 268.48 270.39"/><polygon class="h" points="296.88 270.22 296.88 253.98 282.88 245.86 268.88 253.98 268.88 270.22 282.88 278.34 296.88 270.22"/><polygon class="h" points="324.61 270.22 324.61 253.98 310.61 245.86 296.61 253.98 296.61 270.22 310.61 278.34 324.61 270.22"/></g><g class="bl"><g class="aq"><rect class="j" x="-17.6" y="339.41" width="37.99" height="42.48"/></g></g><g class="aq"><polygon class="h" points="15.39 368.77 15.39 352.53 1.4 344.41 -12.6 352.53 -12.6 368.77 1.4 376.89 15.39 368.77"/><polygon class="h" points="43.62 368.94 43.62 352.7 29.63 344.58 15.63 352.7 15.63 368.94 29.63 377.06 43.62 368.94"/><polygon class="h" points="71.86 368.94 71.86 352.7 57.86 344.58 43.86 352.7 43.86 368.94 57.86 377.06 71.86 368.94"/><polygon class="h" points="99.75 368.94 99.75 352.7 85.76 344.58 71.76 352.7 71.76 368.94 85.76 377.06 99.75 368.94"/><polygon class="h" points="127.78 368.81 127.78 352.57 113.78 344.45 99.78 352.57 99.78 368.81 113.78 376.93 127.78 368.81"/><polygon class="h" points="155.88 368.73 155.88 352.49 141.89 344.37 127.89 352.49 127.89 368.73 141.89 376.85 155.88 368.73"/><polygon class="h" points="184.12 368.9 184.12 352.66 170.12 344.53 156.12 352.66 156.12 368.9 170.12 377.02 184.12 368.9"/><polygon class="h" points="212.35 368.9 212.35 352.66 198.35 344.53 184.35 352.66 184.35 368.9 198.35 377.02 212.35 368.9"/><polygon class="h" points="240.58 368.77 240.58 352.53 226.58 344.41 212.59 352.53 212.59 368.77 226.58 376.89 240.58 368.77"/><polygon class="h" points="268.81 368.77 268.81 352.53 254.82 344.41 240.82 352.53 240.82 368.77 254.82 376.89 268.81 368.77"/><polygon class="h" points="297.21 368.6 297.21 352.36 283.21 344.24 269.22 352.36 269.22 368.6 283.21 376.73 297.21 368.6"/><polygon class="h" points="324.94 368.6 324.94 352.36 310.94 344.24 296.95 352.36 296.95 368.6 310.94 376.73 324.94 368.6"/><polygon class="h" points="1.36 393.45 1.36 377.21 -12.64 369.09 -26.63 377.21 -26.63 393.45 -12.64 401.57 1.36 393.45"/><polygon class="h" points="29.59 393.62 29.59 377.38 15.6 369.25 1.6 377.38 1.6 393.62 15.6 401.74 29.59 393.62"/><polygon class="h" points="57.82 393.62 57.82 377.38 43.83 369.25 29.83 377.38 29.83 393.62 43.83 401.74 57.82 393.62"/><polygon class="h" points="85.72 393.62 85.72 377.38 71.72 369.25 57.73 377.38 57.73 393.62 71.72 401.74 85.72 393.62"/><polygon class="h" points="113.74 393.49 113.74 377.25 99.75 369.13 85.75 377.25 85.75 393.49 99.75 401.61 113.74 393.49"/><polygon class="h" points="141.85 393.41 141.85 377.17 127.86 369.04 113.86 377.17 113.86 393.41 127.86 401.53 141.85 393.41"/><polygon class="h" points="170.08 393.58 170.08 377.33 156.09 369.21 142.09 377.33 142.09 393.58 156.09 401.7 170.08 393.58"/><polygon class="h" points="198.32 393.58 198.32 377.33 184.32 369.21 170.32 377.33 170.32 393.58 184.32 401.7 198.32 393.58"/></g><g class="bm"><g class="aq"><rect class="j" x="193.55" y="364.09" width="38" height="42.48"/></g></g><g class="aq"><polygon class="h" points="226.55 393.45 226.55 377.21 212.55 369.09 198.55 377.21 198.55 393.45 212.55 401.57 226.55 393.45"/><polygon class="h" points="254.78 393.45 254.78 377.21 240.78 369.09 226.79 377.21 226.79 393.45 240.78 401.57 254.78 393.45"/></g><g class="bn"><g class="aq"><rect class="j" x="250.19" y="363.92" width="37.99" height="42.48"/></g></g><g class="aq"><polygon class="h" points="283.18 393.28 283.18 377.04 269.18 368.92 255.19 377.04 255.19 393.28 269.18 401.4 283.18 393.28"/><polygon class="h" points="310.91 393.28 310.91 377.04 296.91 368.92 282.91 377.04 282.91 393.28 296.91 401.4 310.91 393.28"/></g><g class="bo"><g class="aq"><rect class="j" x="-31.97" y="314.9" width="38" height="42.48"/></g></g><g class="aq"><polygon class="h" points="1.03 344.26 1.03 328.02 -12.97 319.9 -26.97 328.02 -26.97 344.26 -12.97 352.38 1.03 344.26"/><polygon class="h" points="29.26 344.43 29.26 328.19 15.26 320.06 1.26 328.19 1.26 344.43 15.26 352.55 29.26 344.43"/><polygon class="h" points="57.49 344.43 57.49 328.19 43.49 320.06 29.5 328.19 29.5 344.43 43.49 352.55 57.49 344.43"/><polygon class="h" points="85.39 344.43 85.39 328.19 71.39 320.06 57.4 328.19 57.4 344.43 71.39 352.55 85.39 344.43"/><polygon class="h" points="113.41 344.3 113.41 328.06 99.41 319.94 85.42 328.06 85.42 344.3 99.41 352.42 113.41 344.3"/><polygon class="h" points="141.52 344.22 141.52 327.98 127.52 319.86 113.52 327.98 113.52 344.22 127.52 352.34 141.52 344.22"/><polygon class="h" points="169.75 344.39 169.75 328.14 155.75 320.02 141.76 328.14 141.76 344.39 155.75 352.51 169.75 344.39"/><polygon class="h" points="197.98 344.39 197.98 328.14 183.98 320.02 169.99 328.14 169.99 344.39 183.98 352.51 197.98 344.39"/><polygon class="h" points="226.21 344.26 226.21 328.02 212.22 319.9 198.22 328.02 198.22 344.26 212.22 352.38 226.21 344.26"/><polygon class="h" points="254.45 344.26 254.45 328.02 240.45 319.9 226.45 328.02 226.45 344.26 240.45 352.38 254.45 344.26"/><polygon class="h" points="282.84 344.09 282.84 327.85 268.85 319.73 254.85 327.85 254.85 344.09 268.85 352.21 282.84 344.09"/><polygon class="h" points="310.57 344.09 310.57 327.85 296.58 319.73 282.58 327.85 282.58 344.09 296.58 352.21 310.57 344.09"/><polygon class="h" points="1.53 442.73 1.53 426.48 -12.47 418.36 -26.47 426.48 -26.47 442.73 -12.47 450.85 1.53 442.73"/><polygon class="g" points="29.76 442.64 29.76 426.4 15.76 418.28 1.77 426.4 1.77 442.64 15.76 450.76 29.76 442.64"/><polygon class="g" points="57.99 442.81 57.99 426.57 43.99 418.45 30 426.57 30 442.81 43.99 450.93 57.99 442.81"/><polygon class="g" points="86.22 442.81 86.22 426.57 72.23 418.45 58.23 426.57 58.23 442.81 72.23 450.93 86.22 442.81"/><polygon class="g" points="114.12 442.81 114.12 426.57 100.12 418.45 86.13 426.57 86.13 442.81 100.12 450.93 114.12 442.81"/><polygon class="g" points="142.14 442.68 142.14 426.44 128.15 418.32 114.15 426.44 114.15 442.68 128.15 450.8 142.14 442.68"/><polygon class="h" points="170.25 442.6 170.25 426.36 156.25 418.24 142.26 426.36 142.26 442.6 156.25 450.72 170.25 442.6"/><polygon class="h" points="198.48 442.77 198.48 426.53 184.49 418.4 170.49 426.53 170.49 442.77 184.49 450.89 198.48 442.77"/><polygon class="h" points="226.71 442.77 226.71 426.53 212.72 418.4 198.72 426.53 198.72 442.77 212.72 450.89 226.71 442.77"/><polygon class="h" points="254.95 442.64 254.95 426.4 240.95 418.28 226.95 426.4 226.95 442.64 240.95 450.76 254.95 442.64"/><polygon class="h" points="283.18 442.64 283.18 426.4 269.18 418.28 255.19 426.4 255.19 442.64 269.18 450.76 283.18 442.64"/><polygon class="h" points="311.58 442.47 311.58 426.23 297.58 418.11 283.58 426.23 283.58 442.47 297.58 450.6 311.58 442.47"/><polygon class="h" points="339.31 442.47 339.31 426.23 325.31 418.11 311.31 426.23 311.31 442.47 325.31 450.6 339.31 442.47"/><polygon class="h" points="15.73 467.32 15.73 451.08 1.73 442.96 -12.27 451.08 -12.27 467.32 1.73 475.44 15.73 467.32"/><polygon class="g" points="43.96 467.49 43.96 451.25 29.96 443.12 15.97 451.25 15.97 467.49 29.96 475.61 43.96 467.49"/><polygon class="g" points="72.19 467.49 72.19 451.25 58.19 443.12 44.2 451.25 44.2 467.49 58.19 475.61 72.19 467.49"/><polygon class="g" points="100.09 467.49 100.09 451.25 86.09 443.12 72.09 451.25 72.09 467.49 86.09 475.61 100.09 467.49"/><polygon class="g" points="128.11 467.36 128.11 451.12 114.12 443 100.12 451.12 100.12 467.36 114.12 475.48 128.11 467.36"/><polygon class="h" points="156.22 467.28 156.22 451.04 142.22 442.92 128.22 451.04 128.22 467.28 142.22 475.4 156.22 467.28"/><polygon class="h" points="184.45 467.45 184.45 451.2 170.45 443.08 156.46 451.2 156.46 467.45 170.45 475.57 184.45 467.45"/><polygon class="h" points="212.68 467.45 212.68 451.2 198.69 443.08 184.69 451.2 184.69 467.45 198.69 475.57 212.68 467.45"/><polygon class="h" points="240.91 467.32 240.91 451.08 226.92 442.96 212.92 451.08 212.92 467.32 226.92 475.44 240.91 467.32"/><polygon class="h" points="269.15 467.32 269.15 451.08 255.15 442.96 241.15 451.08 241.15 467.32 255.15 475.44 269.15 467.32"/><polygon class="h" points="297.54 467.15 297.54 450.91 283.55 442.79 269.55 450.91 269.55 467.15 283.55 475.27 297.54 467.15"/><polygon class="h" points="325.28 467.15 325.28 450.91 311.28 442.79 297.28 450.91 297.28 467.15 311.28 475.27 325.28 467.15"/><polygon class="h" points="15.39 418.13 15.39 401.89 1.4 393.77 -12.6 401.89 -12.6 418.13 1.4 426.25 15.39 418.13"/><polygon class="h" points="43.62 418.3 43.62 402.05 29.63 393.93 15.63 402.05 15.63 418.3 29.63 426.42 43.62 418.3"/><polygon class="h" points="71.86 418.3 71.86 402.05 57.86 393.93 43.86 402.05 43.86 418.3 57.86 426.42 71.86 418.3"/><polygon class="h" points="99.75 418.3 99.75 402.05 85.76 393.93 71.76 402.05 71.76 418.3 85.76 426.42 99.75 418.3"/><polygon class="h" points="127.78 418.17 127.78 401.93 113.78 393.81 99.78 401.93 99.78 418.17 113.78 426.29 127.78 418.17"/><polygon class="h" points="155.88 418.09 155.88 401.85 141.89 393.72 127.89 401.85 127.89 418.09 141.89 426.21 155.88 418.09"/><polygon class="h" points="184.12 418.26 184.12 402.01 170.12 393.89 156.12 402.01 156.12 418.26 170.12 426.38 184.12 418.26"/><polygon class="h" points="212.35 418.26 212.35 402.01 198.35 393.89 184.35 402.01 184.35 418.26 198.35 426.38 212.35 418.26"/><polygon class="h" points="240.58 418.13 240.58 401.89 226.58 393.77 212.59 401.89 212.59 418.13 226.58 426.25 240.58 418.13"/></g><g class="bp"><g class="aq"><rect class="j" x="235.82" y="388.77" width="37.99" height="42.48"/></g></g><g class="aq"><polygon class="h" points="268.81 418.13 268.81 401.89 254.82 393.77 240.82 401.89 240.82 418.13 254.82 426.25 268.81 418.13"/><polygon class="h" points="297.21 417.96 297.21 401.72 283.21 393.6 269.22 401.72 269.22 417.96 283.21 426.08 297.21 417.96"/><polygon class="h" points="324.94 417.96 324.94 401.72 310.94 393.6 296.95 401.72 296.95 417.96 310.94 426.08 324.94 417.96"/><polygon class="h" points="15.73 516.51 15.73 500.27 1.73 492.15 -12.27 500.27 -12.27 516.51 1.73 524.63 15.73 516.51"/><polygon class="g" points="43.96 516.68 43.96 500.44 29.96 492.32 15.97 500.44 15.97 516.68 29.96 524.8 43.96 516.68"/><polygon class="g" points="72.19 516.68 72.19 500.44 58.19 492.32 44.2 500.44 44.2 516.68 58.19 524.8 72.19 516.68"/><polygon class="g" points="100.09 516.68 100.09 500.44 86.09 492.32 72.09 500.44 72.09 516.68 86.09 524.8 100.09 516.68"/><polygon class="g" points="128.11 516.55 128.11 500.31 114.12 492.19 100.12 500.31 100.12 516.55 114.12 524.67 128.11 516.55"/><polygon class="h" points="156.22 516.47 156.22 500.23 142.22 492.11 128.22 500.23 128.22 516.47 142.22 524.59 156.22 516.47"/><polygon class="h" points="184.45 516.64 184.45 500.39 170.45 492.27 156.46 500.39 156.46 516.64 170.45 524.76 184.45 516.64"/><polygon class="h" points="212.68 516.64 212.68 500.39 198.69 492.27 184.69 500.39 184.69 516.64 198.69 524.76 212.68 516.64"/><polygon class="h" points="240.91 516.51 240.91 500.27 226.92 492.15 212.92 500.27 212.92 516.51 226.92 524.63 240.91 516.51"/><polygon class="h" points="269.15 516.51 269.15 500.27 255.15 492.15 241.15 500.27 241.15 516.51 255.15 524.63 269.15 516.51"/><polygon class="h" points="297.54 516.34 297.54 500.1 283.55 491.98 269.55 500.1 269.55 516.34 283.55 524.46 297.54 516.34"/><polygon class="h" points="325.28 516.34 325.28 500.1 311.28 491.98 297.28 500.1 297.28 516.34 311.28 524.46 325.28 516.34"/><polygon class="h" points="1.69 541.19 1.69 524.95 -12.3 516.83 -26.3 524.95 -26.3 541.19 -12.3 549.31 1.69 541.19"/><polygon class="g" points="29.93 541.36 29.93 525.12 15.93 516.99 1.93 525.12 1.93 541.36 15.93 549.48 29.93 541.36"/><polygon class="g" points="58.16 541.36 58.16 525.12 44.16 516.99 30.17 525.12 30.17 541.36 44.16 549.48 58.16 541.36"/><polygon class="g" points="86.06 541.36 86.06 525.12 72.06 516.99 58.06 525.12 58.06 541.36 72.06 549.48 86.06 541.36"/><polygon class="g" points="114.08 541.23 114.08 524.99 100.08 516.87 86.09 524.99 86.09 541.23 100.08 549.35 114.08 541.23"/><polygon class="g" points="142.19 541.15 142.19 524.91 128.19 516.78 114.19 524.91 114.19 541.15 128.19 549.27 142.19 541.15"/><polygon class="h" points="170.42 541.32 170.42 525.07 156.42 516.95 142.42 525.07 142.42 541.32 156.42 549.44 170.42 541.32"/><polygon class="h" points="198.65 541.32 198.65 525.07 184.65 516.95 170.66 525.07 170.66 541.32 184.65 549.44 198.65 541.32"/><polygon class="h" points="226.88 541.19 226.88 524.95 212.89 516.83 198.89 524.95 198.89 541.19 212.89 549.31 226.88 541.19"/><polygon class="h" points="255.11 541.19 255.11 524.95 241.12 516.83 227.12 524.95 227.12 541.19 241.12 549.31 255.11 541.19"/><polygon class="h" points="283.51 541.02 283.51 524.78 269.52 516.66 255.52 524.78 255.52 541.02 269.52 549.14 283.51 541.02"/><polygon class="h" points="311.24 541.02 311.24 524.78 297.25 516.66 283.25 524.78 283.25 541.02 297.25 549.14 311.24 541.02"/></g><g class="aq"><polygon class="h" points="1.36 492 1.36 475.76 -12.64 467.64 -26.63 475.76 -26.63 492 -12.64 500.12 1.36 492"/><polygon class="g" points="29.59 492.17 29.59 475.93 15.6 467.8 1.6 475.93 1.6 492.17 15.6 500.29 29.59 492.17"/><polygon class="g" points="57.82 492.17 57.82 475.93 43.83 467.8 29.83 475.93 29.83 492.17 43.83 500.29 57.82 492.17"/><polygon class="g" points="85.72 492.17 85.72 475.93 71.72 467.8 57.73 475.93 57.73 492.17 71.72 500.29 85.72 492.17"/><polygon class="g" points="113.74 492.04 113.74 475.8 99.75 467.68 85.75 475.8 85.75 492.04 99.75 500.16 113.74 492.04"/><polygon class="g" points="141.85 491.96 141.85 475.72 127.86 467.59 113.86 475.72 113.86 491.96 127.86 500.08 141.85 491.96"/><polygon class="h" points="170.08 492.13 170.08 475.88 156.09 467.76 142.09 475.88 142.09 492.13 156.09 500.25 170.08 492.13"/><polygon class="h" points="198.32 492.13 198.32 475.88 184.32 467.76 170.32 475.88 170.32 492.13 184.32 500.25 198.32 492.13"/><polygon class="h" points="226.55 492 226.55 475.76 212.55 467.64 198.55 475.76 198.55 492 212.55 500.12 226.55 492"/><polygon class="h" points="254.78 492 254.78 475.76 240.78 467.64 226.79 475.76 226.79 492 240.78 500.12 254.78 492"/><polygon class="h" points="283.18 491.83 283.18 475.59 269.18 467.47 255.19 475.59 255.19 491.83 269.18 499.95 283.18 491.83"/><polygon class="h" points="310.91 491.83 310.91 475.59 296.91 467.47 282.91 475.59 282.91 491.83 296.91 499.95 310.91 491.83"/></g><g class="br"><g class="aq"><rect class="j" x="122.89" y="536.3" width="37.99" height="42.48"/></g></g><g class="bs"><g class="aq"><rect class="j" x="151.12" y="536.46" width="38" height="42.49"/></g></g><g class="bt"><g class="aq"><rect class="j" x="179.35" y="536.46" width="38" height="42.49"/></g></g><g class="aq"><polygon class="h" points="297.21 565.53 297.21 549.29 283.21 541.17 269.22 549.29 269.22 565.53 283.21 573.65 297.21 565.53"/><polygon class="h" points="324.94 565.53 324.94 549.29 310.94 541.17 296.95 549.29 296.95 565.53 310.94 573.65 324.94 565.53"/></g><g class="aq"><polygon class="h" points="14.13 24.35 14.13 8.11 0.13 -0.01 -13.86 8.11 -13.86 24.35 0.13 32.47 14.13 24.35"/><polygon class="h" points="42.36 24.52 42.36 8.27 28.37 0.15 14.37 8.27 14.37 24.52 28.37 32.64 42.36 24.52"/><polygon class="h" points="0.1 49.03 0.1 32.79 -13.9 24.66 -27.89 32.79 -27.89 49.03 -13.9 57.15 0.1 49.03"/><polygon class="h" points="-0.24 -0.16 -0.24 -16.4 -14.23 -24.53 -28.23 -16.4 -28.23 -0.16 -14.23 7.96 -0.24 -0.16"/><polygon class="h" points="28 0 28 -16.24 14 -24.36 0 -16.24 0 0 14 8.13 28 0"/></g></g></g></g></svg>