<svg xmlns="http://www.w3.org/2000/svg" viewBox="0 0 24 20"><defs><style>.cls-1{fill:#1c1c1c;}</style></defs><title>logo conected</title><g id="Laag_2" data-name="Laag 2"><g id="kast_bijenmonitor" data-name="kast bijenmonitor"><path class="cls-1" d="M0,5.2A16.63,16.63,0,0,1,12,0,16.63,16.63,0,0,1,24,5.2L22,7.4A13.85,13.85,0,0,0,12,3,13.85,13.85,0,0,0,2,7.4Zm5.7,6.1A8.53,8.53,0,0,1,12,8.6a8.53,8.53,0,0,1,6.3,2.7l2.1-2.2A11.33,11.33,0,0,0,12,5.4,11.5,11.5,0,0,0,3.6,9.1Zm3.7,3.8A3.47,3.47,0,0,1,12,14a3.47,3.47,0,0,1,2.6,1.1l2.1-2.2a6.34,6.34,0,0,0-4.7-2,6.74,6.74,0,0,0-4.7,2C7.3,13,9.4,15.1,9.4,15.1ZM12,16.2a1.9,1.9,0,1,0,1.9,1.9A1.9,1.9,0,0,0,12,16.2Z"/></g></g></svg>