<svg xmlns="http://www.w3.org/2000/svg" viewBox="0 0 27.9 28.07"><defs><style>.cls-1,.cls-2{fill:#1c1c1c;stroke:#1c1c1c;stroke-miterlimit:10;}.cls-2{stroke-width:0.25px;}</style></defs><title>logo aantal hz</title><g id="Laag_2" data-name="Laag 2"><g id="kast_bijenmonitor" data-name="kast bijenmonitor"><path class="cls-1" d="M22.69,27.57a4.7,4.7,0,0,1-2.34-.63L13,22.72H5.68A5.19,5.19,0,0,1,.5,17.54V10.16A5.19,5.19,0,0,1,5.68,5h7.39l.49,0,6.78-3.88A4.71,4.71,0,0,1,27.4,5.22V22.84a4.73,4.73,0,0,1-4.71,4.72Zm-9.26-6.65,7.81,4.46a2.93,2.93,0,0,0,4.38-2.54V5.22a2.93,2.93,0,0,0-4.38-2.54L13.91,6.86l-.31,0a3.38,3.38,0,0,0-.53,0H5.68a3.4,3.4,0,0,0-3.4,3.4v7.37a3.4,3.4,0,0,0,3.4,3.4h7.74Z"/><path class="cls-2" d="M7.74,10.9A6.64,6.64,0,0,1,9,10.79a2.19,2.19,0,0,1,1.46.39,1.11,1.11,0,0,1,.44.94,1.26,1.26,0,0,1-.9,1.16v0a1.37,1.37,0,0,1,1.09,1.33,1.43,1.43,0,0,1-.45,1.06,2.66,2.66,0,0,1-1.83.5,8,8,0,0,1-1.06-.06Zm.68,2.17H9c.72,0,1.15-.38,1.15-.89s-.47-.87-1.16-.87a2.94,2.94,0,0,0-.61,0Zm0,2.54a3.66,3.66,0,0,0,.57,0c.71,0,1.36-.26,1.36-1s-.62-1-1.37-1H8.43Z"/><path class="cls-2" d="M12.34,15.73l1.72-2.24.5-.59v0H12.49v-.56h2.9v.43L13.69,15c-.16.21-.31.4-.49.6v0h2.23v.55H12.34Z"/><path class="cls-2" d="M16.49,15.73l1.72-2.24.5-.59v0H16.65v-.56h2.9v.43L17.84,15c-.16.21-.31.4-.49.6v0h2.23v.55H16.49Z"/></g></g></svg>